;TYPE=PLATED
;Layer: PTH_Through
;EasyEDA Pro v2.2.47.7, 2026-04-22 18:43:47
;Gerber Generator version 0.3
M48
METRIC,LZ,0000.00000
;Hole size 1 = 0.30002 METRIC
T01C0.30002
;Hole size 2 = 0.30500 METRIC
T02C0.30500
;Hole size 3 = 0.40000 METRIC
T03C0.40000
;Hole size 4 = 0.60000 METRIC
T04C0.60000
;Hole size 5 = 1.00000 METRIC
T05C1.00000
%
G05
G90
T01
X61.71837Y76.4567
X61.71837Y75.05671
X61.01837Y77.1567
X60.31837Y76.4567
X60.31837Y75.05671
X63.11837Y75.05671
X63.11837Y76.4567
X62.41837Y77.1567
X62.41837Y75.7567
X61.01837Y75.7567
X61.01837Y74.35671
X62.41837Y74.35671
T02
X47.44987Y46.85669
X73.39696Y80.65221
X52.54423Y47.16258
X53.00251Y79.7634
X45.90542Y48.76502
X53.5699Y53.70568
X42.71519Y50.66572
X46.59087Y56.09781
X44.08576Y58.01373
X53.7869Y55.34423
X56.28267Y55.32968
X49.13194Y70.87343
X46.08675Y79.45798
X53.25053Y74.7973
X69.41807Y73.27157
X59.91548Y56.05786
X66.95622Y56.96922
X72.81153Y55.34974
X79.40208Y58.50381
X82.40521Y86.84249
X81.62097Y56.6855
X76.13107Y79.47878
X47.28212Y76.5637
X48.13345Y77.9935
X46.58905Y82.33564
X44.48314Y83.29476
X55.63479Y64.33235
X46.65135Y63.36866
X48.88609Y61.00431
X73.96978Y72.98131
X76.58539Y75.52871
X56.62633Y64.39326
X58.78799Y64.35648
X59.70846Y64.31807
X60.51143Y64.11131
X62.18778Y64.05406
X53.09091Y69.83916
X52.81042Y71.9613
X52.07286Y73.16768
X56.17441Y67.88019
X56.93662Y68.61329
X57.95563Y68.54651
X57.8562Y72.94891
X58.76177Y68.55596
X53.02135Y78.75614
X68.72279Y61.42444
X73.62293Y62.70143
X69.66988Y62.69561
X70.5571Y63.15723
X66.75226Y67.64556
X74.43604Y73.87567
X68.26387Y57.59332
X64.12609Y64.24828
X67.51629Y64.02678
X74.52444Y67.48393
X79.06486Y68.13152
X71.85237Y61.95315
X71.83602Y58.55393
X50.40553Y68.55566
X53.01432Y72.85504
X72.11983Y65.1652
X68.72246Y59.08467
X76.47001Y61.36549
X75.52318Y66.06826
X67.9274Y67.51102
X73.23011Y71.58302
X74.21701Y68.98265
X66.52722Y58.49295
X61.20195Y55.69239
T03
X47.22913Y57.72995
X75.81964Y55.49388
T04
X68.02686Y44.59317G85X68.02686Y43.79317
X59.38679Y44.59317G85X59.38679Y43.79317
X68.02686Y48.89304G85X68.02686Y47.79301
X59.38679Y48.89304G85X59.38679Y47.79301
T05
X23.95154Y22.49692
X22.25195Y24.38451
X104.50929Y24.08555
X102.84289Y22.16859
X103.86494Y102.12632
X102.19855Y104.04328
X22.00472Y102.6268
X23.67111Y104.54376
M30