G04 Layer: BottomSolderMaskLayer*
G04 EasyEDA Pro v2.2.47.7, 2026-04-22 18:43:47*
G04 Gerber Generator version 0.3*
G04 Scale: 100 percent, Rotated: No, Reflected: No*
G04 Dimensions in millimeters*
G04 Leading zeros omitted, absolute positions, 4 integers and 5 decimals*
G04 Generated by one-click*
G04 Object Configs: Pad,Via,Track,Text,Image,Dimension,BoardOutline,BoardCutout,CopperFilled,SolidRegion,FPCStiffener,Line,PlaneZone,ComponentProperty,ComponentSilkscreen,TearDrop*
G04 Layer Configs: 1,2,3,4,5,6,7,8,9,10,11,13,14,56*
G04 Copper Areas: 0*
%FSLAX45Y45*%
%MOMM*%
%AMRoundRect*1,1,$1,$2,$3*1,1,$1,$4,$5*1,1,$1,0-$2,0-$3*1,1,$1,0-$4,0-$5*20,1,$1,$2,$3,$4,$5,0*20,1,$1,$4,$5,0-$2,0-$3,0*20,1,$1,0-$2,0-$3,0-$4,0-$5,0*20,1,$1,0-$4,0-$5,$2,$3,0*4,1,4,$2,$3,$4,$5,0-$2,0-$3,0-$4,0-$5,$2,$3,0*%
%ADD10RoundRect,0.08771X-0.27695X-0.40199X-0.27695X0.40199*%
%ADD11RoundRect,0.08771X-0.40199X0.27695X0.40199X0.27695*%
%ADD12RoundRect,0.09017X-0.35571X0.80571X0.35571X0.80571*%
%ADD13RoundRect,0.09424X-0.60368X0.75368X0.60368X0.75368*%
%ADD14RoundRect,0.09424X-0.60368X1.10368X0.60368X1.10368*%
%ADD15RoundRect,0.09554X-0.80303X0.75303X0.80303X0.75303*%
%ADD16C,1.9016*%
%ADD17RoundRect,0.1047X-0.0668X-1.27468X-1.27468X0.0668*%
%ADD18RoundRect,0.09645X-0.0668X-1.27468X-1.27468X0.0668*%
%ADD19RoundRect,0.09645X-1.27332X-0.08904X-0.08904X1.27332*%
%ADD20RoundRect,0.09645X-0.08904X-1.27332X-1.27332X0.08904*%
%ADD21RoundRect,0.08906X-0.30647X-0.55647X-0.30647X0.55647*%
%ADD22RoundRect,0.08771X-0.27695X-0.28977X-0.27695X0.28977*%
%ADD23RoundRect,0.08X-0.16X0.63501X0.16X0.63501*%
%ADD24RoundRect,0.09545X-1.00227X1.25227X1.00227X1.25227*%
%ADD25O,1.1016X1.9016*%
%ADD26O,1.1016X2.2016*%
G75*


G04 Pad Start*
G54D10*
G01X4906826Y7180508D03*
G01X4906826Y7289525D03*
G54D11*
G01X4605541Y7567537D03*
G01X4714558Y7567537D03*
G54D10*
G01X4357314Y7208822D03*
G01X4357314Y7317839D03*
G54D11*
G01X4603087Y6967256D03*
G01X4712104Y6967256D03*
G01X7913510Y7553052D03*
G01X8022527Y7553052D03*
G54D10*
G01X8266761Y7202075D03*
G01X8266761Y7311092D03*
G54D11*
G01X7913510Y6942930D03*
G01X8022527Y6942930D03*
G54D10*
G01X7707490Y7202075D03*
G01X7707490Y7311092D03*
G54D12*
G01X5745942Y7019499D03*
G01X5855924Y7019499D03*
G01X5965932Y7019499D03*
G01X6075939Y7019499D03*
G01X6185921Y7019499D03*
G01X6295928Y7019499D03*
G01X6405936Y7019499D03*
G01X6515943Y7019499D03*
G01X5635935Y7019499D03*
G54D13*
G01X5515920Y7119498D03*
G54D14*
G01X5515920Y8079491D03*
G01X7065929Y8079491D03*
G54D15*
G01X6975937Y7119498D03*
G54D16*
G01X2395154Y2249692D03*
G54D18*
G01X2225195Y2438451D03*
G54D16*
G01X10450929Y2408555D03*
G54D19*
G01X10284289Y2216859D03*
G54D16*
G01X10386494Y10212632D03*
G54D20*
G01X10219855Y10404328D03*
G54D16*
G01X2200472Y10262680D03*
G54D19*
G01X2367111Y10454376D03*
G54D21*
G01X7881859Y7099229D03*
G01X8071851Y7099229D03*
G01X8071851Y7359249D03*
G01X7976855Y7359249D03*
G01X7881859Y7359249D03*
G01X4558059Y7122871D03*
G01X4748051Y7122871D03*
G01X4748051Y7382890D03*
G01X4653055Y7382890D03*
G01X4558059Y7382890D03*
G54D22*
G01X5037142Y7564681D03*
G01X5037142Y7478118D03*
G01X7556656Y7560889D03*
G01X7556656Y7474326D03*
G01X7556656Y7008251D03*
G01X7556656Y6921688D03*
G01X5042053Y7040367D03*
G01X5042053Y6953804D03*
G01X7556656Y7274861D03*
G01X7556656Y7188298D03*
G01X5042053Y7279416D03*
G01X5042053Y7192853D03*
G54D23*
G01X6889221Y6289731D03*
G01X6839234Y6289731D03*
G01X6789222Y6289731D03*
G01X6739234Y6289731D03*
G01X6689222Y6289731D03*
G01X6639235Y6289731D03*
G01X6589222Y6289731D03*
G01X6539235Y6289731D03*
G01X6489222Y6289731D03*
G01X6439235Y6289731D03*
G01X6389222Y6289731D03*
G01X6339235Y6289731D03*
G01X6289223Y6289731D03*
G01X6239235Y6289731D03*
G01X6189223Y6289731D03*
G01X6139236Y6289731D03*
G01X6089223Y6289731D03*
G01X6039236Y6289731D03*
G01X5989223Y6289731D03*
G01X5939236Y6289731D03*
G01X5889223Y6289731D03*
G01X5839236Y6289731D03*
G01X5789224Y6289731D03*
G01X5739236Y6289731D03*
G54D24*
G01X7058233Y6032226D03*
G01X5570225Y6032226D03*
G54D25*
G01X6802686Y4419317D03*
G01X5938679Y4419317D03*
G54D26*
G01X6802686Y4834302D03*
G01X5938679Y4834302D03*
G04 Pad End*

M02*

