G04 Layer: TopPasteMaskLayer*
G04 EasyEDA Pro v2.2.47.7, 2026-04-22 18:43:47*
G04 Gerber Generator version 0.3*
G04 Scale: 100 percent, Rotated: No, Reflected: No*
G04 Dimensions in millimeters*
G04 Leading zeros omitted, absolute positions, 4 integers and 5 decimals*
G04 Generated by one-click*
G04 Object Configs: Pad,Via,Track,Text,Image,Dimension,BoardOutline,BoardCutout,CopperFilled,SolidRegion,FPCStiffener,Line,PlaneZone,ComponentProperty,ComponentSilkscreen,TearDrop*
G04 Layer Configs: 1,2,3,4,5,6,7,8,9,10,11,13,14,56*
G04 Copper Areas: 0*
%FSLAX45Y45*%
%MOMM*%
%AMRect*21,1,$1,$2,0,0,$3*%
%ADD10R,1.23X1.35999*%
%ADD11R,0.8X0.9*%
%ADD12R,0.9X0.8*%
%ADD13R,0.6X1.5*%
%ADD14R,1.9X2.59999*%
%ADD15R,0.532X1.07201*%
%ADD16Rect,2.04638X1.62001X138.0*%
%ADD17Rect,2.04638X1.62001X40.0*%
%ADD18Rect,2.0562X1.62001X139.0*%
%ADD19Rect,2.04638X1.62001X139.0*%
%ADD20Rect,2.04638X1.62001X41.0*%
%ADD21R,1.39954X1.0*%
%ADD22R,0.8X0.8*%
%ADD23R,1.1X0.6*%
%ADD24Rect,1.25001X0.7X48.0*%
%ADD25Rect,1.25001X0.7X130.0*%
%ADD26Rect,1.25001X0.7X49.0*%
%ADD27Rect,1.25001X0.7X131.0*%
%ADD28Rect,0.9X2.0X99.9*%
%ADD29Rect,1.1X0.93X99.9*%
%ADD30R,1.2X0.6*%
%ADD31R,2.4X3.29999*%
%ADD32R,1.07201X0.532*%
%ADD33R,1.5X0.9*%
%ADD34R,0.9X1.5*%
%ADD35R,0.9X0.9*%
G75*


G04 PolygonModel Start*
G36*
G01X4341223Y5859914D02*
G01X4341223Y5987912D01*
G01X4346224Y5992913D01*
G01X4461225Y5992913D01*
G01X4466224Y5987912D01*
G01X4466727Y5946909D01*
G01X4421726Y5946909D01*
G01X4421726Y5901910D01*
G01X4465726Y5901910D01*
G01X4466224Y5859914D01*
G01X4461225Y5854912D01*
G01X4346224Y5854912D01*
G01X4341223Y5859914D01*
G37*
G36*
G01X4682218Y5987914D02*
G01X4682218Y5859916D01*
G01X4677217Y5854915D01*
G01X4562216Y5854915D01*
G01X4557217Y5859916D01*
G01X4556714Y5900919D01*
G01X4601715Y5900919D01*
G01X4601715Y5945918D01*
G01X4557715Y5945918D01*
G01X4557217Y5987914D01*
G01X4562216Y5992916D01*
G01X4677217Y5992916D01*
G01X4682218Y5987914D01*
G37*
G36*
G01X7016117Y4960033D02*
G01X6888119Y4960033D01*
G01X6883118Y4965034D01*
G01X6883118Y5080035D01*
G01X6888119Y5085034D01*
G01X6929122Y5085537D01*
G01X6929122Y5040536D01*
G01X6974121Y5040536D01*
G01X6974121Y5084536D01*
G01X7016117Y5085034D01*
G01X7021118Y5080035D01*
G01X7021118Y4965034D01*
G01X7016117Y4960033D01*
G37*
G36*
G01X7016117Y5175034D02*
G01X6974121Y5175036D01*
G01X6974121Y5219535D01*
G01X6929122Y5219535D01*
G01X6929122Y5175537D01*
G01X6888119Y5175034D01*
G01X6883118Y5180035D01*
G01X6883118Y5295034D01*
G01X6888119Y5300035D01*
G01X7016117Y5300035D01*
G01X7021118Y5295034D01*
G01X7021118Y5180035D01*
G01X7016117Y5175034D01*
G37*
G36*
G01X7734726Y5286219D02*
G01X7862724Y5286219D01*
G01X7867725Y5281218D01*
G01X7867725Y5166217D01*
G01X7862724Y5161218D01*
G01X7821721Y5160715D01*
G01X7821721Y5205716D01*
G01X7776722Y5205716D01*
G01X7776722Y5161716D01*
G01X7734726Y5161218D01*
G01X7729725Y5166217D01*
G01X7729725Y5281218D01*
G01X7734726Y5286219D01*
G37*
G36*
G01X7734726Y5071218D02*
G01X7776722Y5071216D01*
G01X7776722Y5026717D01*
G01X7821721Y5026717D01*
G01X7821721Y5070715D01*
G01X7862724Y5071218D01*
G01X7867725Y5066217D01*
G01X7867725Y4951218D01*
G01X7862724Y4946217D01*
G01X7734726Y4946217D01*
G01X7729725Y4951218D01*
G01X7729725Y5066217D01*
G01X7734726Y5071218D01*
G37*
G36*
G01X6379998Y5661442D02*
G01X6379998Y5616440D01*
G01X6373001Y5611442D01*
G01X6325000Y5611442D01*
G01X6319999Y5616440D01*
G01X6319999Y5661442D01*
G01X6325000Y5666440D01*
G01X6373001Y5666440D01*
G01X6379998Y5661442D01*
G37*
G36*
G01X6476000Y5661442D02*
G01X6476000Y5616440D01*
G01X6470999Y5611442D01*
G01X6423001Y5611442D01*
G01X6416000Y5616440D01*
G01X6416000Y5661442D01*
G01X6423001Y5666440D01*
G01X6470999Y5666440D01*
G01X6476000Y5661442D01*
G37*
G36*
G01X5170890Y4591628D02*
G01X5170890Y4636629D01*
G01X5177888Y4641628D01*
G01X5225888Y4641628D01*
G01X5230890Y4636629D01*
G01X5230890Y4591628D01*
G01X5225888Y4586629D01*
G01X5177888Y4586629D01*
G01X5170890Y4591628D01*
G37*
G36*
G01X5074888Y4591628D02*
G01X5074888Y4636629D01*
G01X5079889Y4641628D01*
G01X5127888Y4641628D01*
G01X5134888Y4636629D01*
G01X5134888Y4591628D01*
G01X5127888Y4586629D01*
G01X5079889Y4586629D01*
G01X5074888Y4591628D01*
G37*
G36*
G01X7471153Y4700811D02*
G01X7471153Y4745812D01*
G01X7478151Y4750811D01*
G01X7526152Y4750811D01*
G01X7531153Y4745812D01*
G01X7531153Y4700811D01*
G01X7526152Y4695812D01*
G01X7478151Y4695812D01*
G01X7471153Y4700811D01*
G37*
G36*
G01X7375151Y4700811D02*
G01X7375151Y4745812D01*
G01X7380153Y4750811D01*
G01X7428151Y4750811D01*
G01X7435151Y4745812D01*
G01X7435151Y4700811D01*
G01X7428151Y4695812D01*
G01X7380153Y4695812D01*
G01X7375151Y4700811D01*
G37*
G36*
G01X5177092Y8122362D02*
G01X5177092Y8077361D01*
G01X5170094Y8072362D01*
G01X5122093Y8072362D01*
G01X5117092Y8077361D01*
G01X5117092Y8122362D01*
G01X5122093Y8127361D01*
G01X5170094Y8127361D01*
G01X5177092Y8122362D01*
G37*
G36*
G01X5273094Y8122362D02*
G01X5273094Y8077361D01*
G01X5268093Y8072362D01*
G01X5220094Y8072362D01*
G01X5213094Y8077361D01*
G01X5213094Y8122362D01*
G01X5220094Y8127361D01*
G01X5268093Y8127361D01*
G01X5273094Y8122362D01*
G37*
G36*
G01X5172033Y8283731D02*
G01X5172033Y8238730D01*
G01X5165035Y8233731D01*
G01X5117034Y8233731D01*
G01X5112033Y8238730D01*
G01X5112033Y8283731D01*
G01X5117034Y8288730D01*
G01X5165035Y8288730D01*
G01X5172033Y8283731D01*
G37*
G36*
G01X5268035Y8283731D02*
G01X5268035Y8238730D01*
G01X5263033Y8233731D01*
G01X5215035Y8233731D01*
G01X5208035Y8238730D01*
G01X5208035Y8283731D01*
G01X5215035Y8288730D01*
G01X5263033Y8288730D01*
G01X5268035Y8283731D01*
G37*
G36*
G01X6214376Y6212539D02*
G02X6242377Y6212539I14000J0D01*
G01X6242377Y6160540D01*
G02X6214376Y6160540I-14000J0D01*
G01X6214376Y6212539D01*
G37*
G36*
G01X6264363Y6212539D02*
G02X6292364Y6212539I14000J0D01*
G01X6292364Y6160540D01*
G02X6264363Y6160540I-14000J0D01*
G01X6264363Y6212539D01*
G37*
G36*
G01X6314375Y6212539D02*
G02X6342376Y6212539I14000J0D01*
G01X6342376Y6160540D01*
G02X6314375Y6160540I-14000J0D01*
G01X6314375Y6212539D01*
G37*
G36*
G01X6364363Y6212539D02*
G02X6392364Y6212539I14000J0D01*
G01X6392364Y6160540D01*
G02X6364363Y6160540I-14000J0D01*
G01X6364363Y6212539D01*
G37*
G36*
G01X6414375Y6212539D02*
G02X6442376Y6212539I14000J0D01*
G01X6442376Y6160540D01*
G02X6414375Y6160540I-14000J0D01*
G01X6414375Y6212539D01*
G37*
G36*
G01X6464362Y6212539D02*
G02X6492363Y6212539I14000J0D01*
G01X6492363Y6160540D01*
G02X6464362Y6160540I-14000J0D01*
G01X6464362Y6212539D01*
G37*
G36*
G01X6579369Y6124746D02*
G02X6579369Y6096745I0J-14000D01*
G01X6527370Y6096745D01*
G02X6527370Y6124746I0J14000D01*
G01X6579369Y6124746D01*
G37*
G36*
G01X6579369Y6075546D02*
G02X6579369Y6047545I0J-14000D01*
G01X6527370Y6047545D01*
G02X6527370Y6075546I0J14000D01*
G01X6579369Y6075546D01*
G37*
G36*
G01X6579369Y6025534D02*
G02X6579369Y5997533I0J-14000D01*
G01X6527370Y5997533D01*
G02X6527370Y6025534I0J14000D01*
G01X6579369Y6025534D01*
G37*
G36*
G01X6579369Y5975547D02*
G02X6579369Y5947546I0J-14000D01*
G01X6527370Y5947546D01*
G02X6527370Y5975547I0J14000D01*
G01X6579369Y5975547D01*
G37*
G36*
G01X6579369Y5925534D02*
G02X6579369Y5897533I0J-14000D01*
G01X6527370Y5897533D01*
G02X6527370Y5925534I0J14000D01*
G01X6579369Y5925534D01*
G37*
G36*
G01X6579369Y5875547D02*
G02X6579369Y5847546I0J-14000D01*
G01X6527370Y5847546D01*
G02X6527370Y5875547I0J14000D01*
G01X6579369Y5875547D01*
G37*
G36*
G01X6464362Y5812540D02*
G02X6492363Y5812540I14000J0D01*
G01X6492363Y5760541D01*
G02X6464362Y5760541I-14000J0D01*
G01X6464362Y5812540D01*
G37*
G36*
G01X6414375Y5812540D02*
G02X6442376Y5812540I14000J0D01*
G01X6442376Y5760541D01*
G02X6414375Y5760541I-14000J0D01*
G01X6414375Y5812540D01*
G37*
G36*
G01X6364363Y5812540D02*
G02X6392364Y5812540I14000J0D01*
G01X6392364Y5760541D01*
G02X6364363Y5760541I-14000J0D01*
G01X6364363Y5812540D01*
G37*
G36*
G01X6314375Y5812540D02*
G02X6342376Y5812540I14000J0D01*
G01X6342376Y5760541D01*
G02X6314375Y5760541I-14000J0D01*
G01X6314375Y5812540D01*
G37*
G36*
G01X6264363Y5812540D02*
G02X6292364Y5812540I14000J0D01*
G01X6292364Y5760541D01*
G02X6264363Y5760541I-14000J0D01*
G01X6264363Y5812540D01*
G37*
G36*
G01X6214376Y5812540D02*
G02X6242377Y5812540I14000J0D01*
G01X6242377Y5760541D01*
G02X6214376Y5760541I-14000J0D01*
G01X6214376Y5812540D01*
G37*
G36*
G01X6179369Y5875547D02*
G02X6179369Y5847546I0J-14000D01*
G01X6127371Y5847546D01*
G02X6127371Y5875547I0J14000D01*
G01X6179369Y5875547D01*
G37*
G36*
G01X6179369Y5925534D02*
G02X6179369Y5897533I0J-14000D01*
G01X6127371Y5897533D01*
G02X6127371Y5925534I0J14000D01*
G01X6179369Y5925534D01*
G37*
G36*
G01X6179369Y5975547D02*
G02X6179369Y5947546I0J-14000D01*
G01X6127371Y5947546D01*
G02X6127371Y5975547I0J14000D01*
G01X6179369Y5975547D01*
G37*
G36*
G01X6179369Y6025534D02*
G02X6179369Y5997533I0J-14000D01*
G01X6127371Y5997533D01*
G02X6127371Y6025534I0J14000D01*
G01X6179369Y6025534D01*
G37*
G36*
G01X6179369Y6075546D02*
G02X6179369Y6047545I0J-14000D01*
G01X6127371Y6047545D01*
G02X6127371Y6075546I0J14000D01*
G01X6179369Y6075546D01*
G37*
G36*
G01X6179369Y6125534D02*
G02X6179369Y6097533I0J-14000D01*
G01X6127371Y6097533D01*
G02X6127371Y6125534I0J14000D01*
G01X6179369Y6125534D01*
G37*
G36*
G01X6461370Y6093296D02*
G01X6461370Y5877294D01*
G01X6245369Y5877294D01*
G01X6245369Y6093296D01*
G01X6461370Y6093296D01*
G37*
G36*
G01X5617295Y4731612D02*
G01X5617295Y4811612D01*
G01X5612294Y4816613D01*
G01X5589497Y4816613D01*
G01X5589497Y4779613D01*
G01X5556497Y4779613D01*
G01X5556497Y4816613D01*
G01X5532294Y4816613D01*
G01X5527295Y4811612D01*
G01X5527295Y4731612D01*
G01X5532294Y4726613D01*
G01X5612294Y4726613D01*
G01X5617295Y4731612D01*
G37*
G36*
G01X5612294Y4886613D02*
G01X5589497Y4886613D01*
G01X5589497Y4924611D01*
G01X5556497Y4924611D01*
G01X5556497Y4886613D01*
G01X5532294Y4886613D01*
G01X5527295Y4891612D01*
G01X5527295Y4970611D01*
G01X5532294Y4975612D01*
G01X5612294Y4975612D01*
G01X5617295Y4970611D01*
G01X5617295Y4891612D01*
G01X5612294Y4886613D01*
G37*
G36*
G01X4584231Y5539668D02*
G01X4504231Y5539668D01*
G01X4499230Y5534666D01*
G01X4499230Y5511870D01*
G01X4536230Y5511870D01*
G01X4536230Y5478870D01*
G01X4499230Y5478870D01*
G01X4499230Y5454667D01*
G01X4504231Y5449668D01*
G01X4584231Y5449668D01*
G01X4589230Y5454667D01*
G01X4589230Y5534666D01*
G01X4584231Y5539668D01*
G37*
G36*
G01X4429230Y5534666D02*
G01X4429230Y5511870D01*
G01X4391232Y5511870D01*
G01X4391232Y5478870D01*
G01X4429230Y5478870D01*
G01X4429230Y5454667D01*
G01X4424231Y5449668D01*
G01X4345232Y5449668D01*
G01X4340231Y5454667D01*
G01X4340231Y5534666D01*
G01X4345232Y5539668D01*
G01X4424231Y5539668D01*
G01X4429230Y5534666D01*
G37*
G36*
G01X5796124Y5513621D02*
G01X5796124Y5593621D01*
G01X5791122Y5598622D01*
G01X5768326Y5598622D01*
G01X5768326Y5561622D01*
G01X5735326Y5561622D01*
G01X5735326Y5598622D01*
G01X5711122Y5598622D01*
G01X5706124Y5593621D01*
G01X5706124Y5513621D01*
G01X5711122Y5508622D01*
G01X5791122Y5508622D01*
G01X5796124Y5513621D01*
G37*
G36*
G01X5791122Y5668622D02*
G01X5768326Y5668622D01*
G01X5768326Y5706621D01*
G01X5735326Y5706621D01*
G01X5735326Y5668622D01*
G01X5711122Y5668622D01*
G01X5706124Y5673621D01*
G01X5706124Y5752620D01*
G01X5711122Y5757621D01*
G01X5791122Y5757621D01*
G01X5796124Y5752620D01*
G01X5796124Y5673621D01*
G01X5791122Y5668622D01*
G37*
G36*
G01X5609928Y5119008D02*
G01X5609928Y5199007D01*
G01X5604926Y5204009D01*
G01X5582130Y5204009D01*
G01X5582130Y5167008D01*
G01X5549130Y5167008D01*
G01X5549130Y5204009D01*
G01X5524926Y5204009D01*
G01X5519928Y5199007D01*
G01X5519928Y5119008D01*
G01X5524926Y5114009D01*
G01X5604926Y5114009D01*
G01X5609928Y5119008D01*
G37*
G36*
G01X5604926Y5274009D02*
G01X5582130Y5274009D01*
G01X5582130Y5312007D01*
G01X5549130Y5312007D01*
G01X5549130Y5274009D01*
G01X5524926Y5274009D01*
G01X5519928Y5279007D01*
G01X5519928Y5358006D01*
G01X5524926Y5363008D01*
G01X5604926Y5363008D01*
G01X5609928Y5358006D01*
G01X5609928Y5279007D01*
G01X5604926Y5274009D01*
G37*
G36*
G01X4590293Y5745876D02*
G01X4510293Y5745876D01*
G01X4505292Y5740875D01*
G01X4505292Y5718078D01*
G01X4542292Y5718078D01*
G01X4542292Y5685079D01*
G01X4505292Y5685079D01*
G01X4505292Y5660875D01*
G01X4510293Y5655876D01*
G01X4590293Y5655876D01*
G01X4595292Y5660875D01*
G01X4595292Y5740875D01*
G01X4590293Y5745876D01*
G37*
G36*
G01X4435292Y5740875D02*
G01X4435292Y5718078D01*
G01X4397294Y5718078D01*
G01X4397294Y5685079D01*
G01X4435292Y5685079D01*
G01X4435292Y5660875D01*
G01X4430293Y5655876D01*
G01X4351294Y5655876D01*
G01X4346293Y5660875D01*
G01X4346293Y5740875D01*
G01X4351294Y5745876D01*
G01X4430293Y5745876D01*
G01X4435292Y5740875D01*
G37*
G36*
G01X6004796Y5247993D02*
G01X6004796Y5293992D01*
G01X6008796Y5297993D01*
G01X6058860Y5297993D01*
G01X6062860Y5293992D01*
G01X6062860Y5247993D01*
G01X6058860Y5243993D01*
G01X6008796Y5243993D01*
G01X6004796Y5247993D01*
G37*
G36*
G01X5977796Y5247993D02*
G01X5977796Y5293992D01*
G01X5973795Y5297993D01*
G01X5923732Y5297993D01*
G01X5919731Y5293992D01*
G01X5919731Y5247993D01*
G01X5923732Y5243993D01*
G01X5973795Y5243993D01*
G01X5977796Y5247993D01*
G37*
G36*
G01X6615790Y5296965D02*
G01X6615790Y5250965D01*
G01X6611790Y5246965D01*
G01X6561726Y5246965D01*
G01X6557726Y5250965D01*
G01X6557726Y5296965D01*
G01X6561726Y5300965D01*
G01X6611790Y5300965D01*
G01X6615790Y5296965D01*
G37*
G36*
G01X6642790Y5296965D02*
G01X6642790Y5250965D01*
G01X6646791Y5246965D01*
G01X6696854Y5246965D01*
G01X6700855Y5250965D01*
G01X6700855Y5296965D01*
G01X6696854Y5300965D01*
G01X6646791Y5300965D01*
G01X6642790Y5296965D01*
G37*
G36*
G01X4591969Y4683401D02*
G01X4561189Y4649216D01*
G01X4555539Y4648920D01*
G01X4518335Y4682419D01*
G01X4518039Y4688069D01*
G01X4548818Y4722253D01*
G01X4554468Y4722549D01*
G01X4591673Y4689050D01*
G01X4591969Y4683401D01*
G37*
G36*
G01X4612034Y4665334D02*
G01X4581254Y4631150D01*
G01X4581550Y4625500D01*
G01X4618755Y4592001D01*
G01X4624404Y4592297D01*
G01X4655184Y4626481D01*
G01X4654888Y4632131D01*
G01X4617683Y4665630D01*
G01X4612034Y4665334D01*
G37*
G36*
G01X8045481Y4708539D02*
G01X8075049Y4673301D01*
G01X8074556Y4667665D01*
G01X8036205Y4635485D01*
G01X8030569Y4635978D01*
G01X8001001Y4671216D01*
G01X8001494Y4676852D01*
G01X8039845Y4709032D01*
G01X8045481Y4708539D01*
G37*
G36*
G01X8066164Y4725894D02*
G01X8095732Y4690657D01*
G01X8101368Y4690164D01*
G01X8139719Y4722344D01*
G01X8140212Y4727980D01*
G01X8110644Y4763217D01*
G01X8105008Y4763711D01*
G01X8066658Y4731530D01*
G01X8066164Y4725894D01*
G37*
G36*
G01X8219418Y8208440D02*
G01X8249597Y8243156D01*
G01X8255240Y8243551D01*
G01X8293024Y8210706D01*
G01X8293418Y8205063D01*
G01X8263240Y8170346D01*
G01X8257596Y8169952D01*
G01X8219813Y8202796D01*
G01X8219418Y8208440D01*
G37*
G36*
G01X8199041Y8226154D02*
G01X8229219Y8260870D01*
G01X8228825Y8266514D01*
G01X8191041Y8299358D01*
G01X8185398Y8298964D01*
G01X8155219Y8264248D01*
G01X8155614Y8258604D01*
G01X8193397Y8225759D01*
G01X8199041Y8226154D01*
G37*
G36*
G01X4310666Y8231039D02*
G01X4340844Y8196323D01*
G01X4340450Y8190679D01*
G01X4302666Y8157834D01*
G01X4297023Y8158229D01*
G01X4266844Y8192945D01*
G01X4267239Y8198589D01*
G01X4305022Y8231433D01*
G01X4310666Y8231039D01*
G37*
G36*
G01X4331043Y8248752D02*
G01X4361222Y8214036D01*
G01X4366866Y8213642D01*
G01X4404649Y8246486D01*
G01X4405044Y8252130D01*
G01X4374865Y8286846D01*
G01X4369221Y8287241D01*
G01X4331438Y8254396D01*
G01X4331043Y8248752D01*
G37*
G36*
G01X5917599Y5768629D02*
G01X5963598Y5768629D01*
G01X5967599Y5764628D01*
G01X5967599Y5714565D01*
G01X5963598Y5710564D01*
G01X5917599Y5710564D01*
G01X5913598Y5714565D01*
G01X5913598Y5764628D01*
G01X5917599Y5768629D01*
G37*
G36*
G01X5917599Y5795629D02*
G01X5963598Y5795629D01*
G01X5967599Y5799629D01*
G01X5967599Y5849693D01*
G01X5963598Y5853693D01*
G01X5917599Y5853693D01*
G01X5913598Y5849693D01*
G01X5913598Y5799629D01*
G01X5917599Y5795629D01*
G37*
G36*
G01X6675423Y6099074D02*
G01X6721422Y6099074D01*
G01X6725423Y6095073D01*
G01X6725423Y6045010D01*
G01X6721422Y6041009D01*
G01X6675423Y6041009D01*
G01X6671422Y6045010D01*
G01X6671422Y6095073D01*
G01X6675423Y6099074D01*
G37*
G36*
G01X6675423Y6126074D02*
G01X6721422Y6126074D01*
G01X6725423Y6130074D01*
G01X6725423Y6180138D01*
G01X6721422Y6184138D01*
G01X6675423Y6184138D01*
G01X6671422Y6180138D01*
G01X6671422Y6130074D01*
G01X6675423Y6126074D01*
G37*
G36*
G01X7457344Y5701611D02*
G01X7457344Y5655611D01*
G01X7453344Y5651611D01*
G01X7403280Y5651611D01*
G01X7399280Y5655611D01*
G01X7399280Y5701611D01*
G01X7403280Y5705611D01*
G01X7453344Y5705611D01*
G01X7457344Y5701611D01*
G37*
G36*
G01X7484344Y5701611D02*
G01X7484344Y5655611D01*
G01X7488345Y5651611D01*
G01X7538408Y5651611D01*
G01X7542409Y5655611D01*
G01X7542409Y5701611D01*
G01X7538408Y5705611D01*
G01X7488345Y5705611D01*
G01X7484344Y5701611D01*
G37*
G36*
G01X7255419Y5031430D02*
G01X7198020Y5031430D01*
G01X7198020Y4881430D01*
G01X7255419Y4881430D01*
G01X7255419Y5031430D01*
G37*
G36*
G01X7555418Y5031430D02*
G01X7498019Y5031430D01*
G01X7498019Y4881430D01*
G01X7555418Y4881430D01*
G01X7555418Y5031430D01*
G37*
G36*
G01X7255419Y5370929D02*
G01X7198020Y5370929D01*
G01X7198020Y5220929D01*
G01X7255419Y5220929D01*
G01X7255419Y5370929D01*
G37*
G36*
G01X7555418Y5370929D02*
G01X7498019Y5370929D01*
G01X7498019Y5220929D01*
G01X7555418Y5220929D01*
G01X7555418Y5370929D01*
G37*
G36*
G01X7464732Y4967678D02*
G02X7288731Y4967678I-88001J0D01*
G01X7289033Y5157779D01*
G02X7348532Y5225580I86545J-15942D01*
G01X7348032Y5370979D01*
G01X7405431Y5370878D01*
G01X7405431Y5224879D01*
G01X7418431Y5218879D01*
G01X7430132Y5211378D01*
G01X7439932Y5202580D01*
G01X7448730Y5192580D01*
G01X7460231Y5169580D01*
G01X7464831Y5145780D01*
G01X7464732Y4967678D01*
G37*
G36*
G01X6020678Y4949311D02*
G01X6080678Y4949311D01*
G01X6080678Y4834310D01*
G01X6020678Y4834310D01*
G01X6020678Y4949311D01*
G37*
G36*
G01X6100678Y4949311D02*
G01X6160678Y4949311D01*
G01X6160678Y4834310D01*
G01X6100678Y4834310D01*
G01X6100678Y4949311D01*
G37*
G36*
G01X6660677Y4949311D02*
G01X6720677Y4949311D01*
G01X6720677Y4834310D01*
G01X6660677Y4834310D01*
G01X6660677Y4949311D01*
G37*
G36*
G01X6580677Y4949311D02*
G01X6640677Y4949311D01*
G01X6640677Y4834310D01*
G01X6580677Y4834310D01*
G01X6580677Y4949311D01*
G37*
G36*
G01X6530675Y4949311D02*
G01X6560677Y4949311D01*
G01X6560677Y4834310D01*
G01X6530675Y4834310D01*
G01X6530675Y4949311D01*
G37*
G36*
G01X6480675Y4949311D02*
G01X6510677Y4949311D01*
G01X6510677Y4834310D01*
G01X6480675Y4834310D01*
G01X6480675Y4949311D01*
G37*
G36*
G01X6430675Y4949311D02*
G01X6460677Y4949311D01*
G01X6460677Y4834310D01*
G01X6430675Y4834310D01*
G01X6430675Y4949311D01*
G37*
G36*
G01X6380675Y4949311D02*
G01X6410677Y4949311D01*
G01X6410677Y4834310D01*
G01X6380675Y4834310D01*
G01X6380675Y4949311D01*
G37*
G36*
G01X6330675Y4949311D02*
G01X6360677Y4949311D01*
G01X6360677Y4834310D01*
G01X6330675Y4834310D01*
G01X6330675Y4949311D01*
G37*
G36*
G01X6280675Y4949311D02*
G01X6310677Y4949311D01*
G01X6310677Y4834310D01*
G01X6280675Y4834310D01*
G01X6280675Y4949311D01*
G37*
G36*
G01X6230675Y4949311D02*
G01X6260678Y4949311D01*
G01X6260678Y4834310D01*
G01X6230675Y4834310D01*
G01X6230675Y4949311D01*
G37*
G36*
G01X6180675Y4949311D02*
G01X6210678Y4949311D01*
G01X6210678Y4834310D01*
G01X6180675Y4834310D01*
G01X6180675Y4949311D01*
G37*
G36*
G01X6752686Y4459320D02*
G02X6852686Y4459320I50000J0D01*
G01X6852686Y4379320D01*
G02X6752686Y4379320I-50000J0D01*
G01X6752686Y4459320D01*
G37*
G36*
G01X5888679Y4459320D02*
G02X5988679Y4459320I50000J0D01*
G01X5988679Y4379320D01*
G02X5888679Y4379320I-50000J0D01*
G01X5888679Y4459320D01*
G37*
G36*
G01X6752686Y4889306D02*
G02X6852686Y4889306I50000J0D01*
G01X6852686Y4779304D01*
G02X6752686Y4779304I-50000J0D01*
G01X6752686Y4889306D01*
G37*
G36*
G01X5888679Y4889306D02*
G02X5988679Y4889306I50000J0D01*
G01X5988679Y4779304D01*
G02X5888679Y4779304I-50000J0D01*
G01X5888679Y4889306D01*
G37*

G04 Pad Start*
G54D10*
G01X7245226Y4382051D03*
G01X7682208Y4382051D03*
G54D11*
G01X5294686Y5891499D03*
G01X5154681Y5891499D03*
G54D12*
G01X5933393Y6138299D03*
G01X5933393Y5998294D03*
G54D13*
G01X4819913Y7917536D03*
G01X4944907Y7917536D03*
G54D14*
G01X5189915Y7634047D03*
G01X4574930Y7634047D03*
G54D15*
G01X6226668Y5267018D03*
G01X6321664Y5267018D03*
G01X6416660Y5267018D03*
G01X6416660Y5496837D03*
G01X6321664Y5496837D03*
G01X6226668Y5496837D03*
G54D16*
G01X4352333Y4016537D03*
G01X3971040Y4359854D03*
G54D17*
G01X8666897Y4393347D03*
G01X8273855Y4063546D03*
G54D19*
G01X8864105Y8526041D03*
G01X8476878Y8862652D03*
G54D20*
G01X3734531Y8551189D03*
G01X4121757Y8887800D03*
G54D21*
G01X7471658Y6102958D03*
G01X7471658Y5892900D03*
G54D22*
G01X5766884Y4775954D03*
G01X5766884Y4935847D03*
G01X5763204Y5154964D03*
G01X5763204Y5314857D03*
G54D23*
G01X5065346Y5674043D03*
G01X5065346Y5579047D03*
G01X5065346Y5484051D03*
G01X4795344Y5484051D03*
G01X4795344Y5579047D03*
G01X4795344Y5674043D03*
G54D24*
G01X4524172Y4479037D03*
G01X4382980Y4606166D03*
G01X4319750Y4393973D03*
G54D25*
G01X8247520Y4632327D03*
G01X8101978Y4510202D03*
G01X8303306Y4418056D03*
G54D26*
G01X8276412Y8416677D03*
G01X8419801Y8292031D03*
G01X8479318Y8505295D03*
G54D27*
G01X4164967Y8570586D03*
G01X4021578Y8445940D03*
G01X4224484Y8357322D03*
G54D10*
G01X4921299Y4365344D03*
G01X5358280Y4365344D03*
G54D28*
G01X4612778Y7084206D03*
G01X4664356Y6788674D03*
G01X4690144Y6640921D03*
G54D29*
G01X4646709Y6475981D03*
G01X4423090Y6436953D03*
G01X4292425Y7185630D03*
G01X4516044Y7224657D03*
G54D30*
G01X4773766Y5259480D03*
G01X4773766Y5132480D03*
G01X4773766Y5005480D03*
G01X4773766Y4878480D03*
G01X5355426Y4878480D03*
G01X5355426Y5005480D03*
G01X5355426Y5132480D03*
G01X5355426Y5259480D03*
G54D31*
G01X5064596Y5068980D03*
G54D32*
G01X5269683Y5669526D03*
G01X5269683Y5574530D03*
G01X5269683Y5479534D03*
G01X5499503Y5479534D03*
G01X5499503Y5574530D03*
G01X5499503Y5669526D03*
G54D33*
G01X5446845Y8347678D03*
G01X5446845Y8220678D03*
G01X5446845Y8093678D03*
G01X5446845Y7966678D03*
G01X5446845Y7839678D03*
G01X5446845Y7712678D03*
G01X5446845Y7585678D03*
G01X5446845Y7458678D03*
G01X5446845Y7331678D03*
G01X5446845Y7204678D03*
G01X5446845Y7077678D03*
G01X5446845Y6950678D03*
G01X5446845Y6823678D03*
G01X5446845Y6696678D03*
G54D34*
G01X5623349Y6568687D03*
G01X5750349Y6568687D03*
G01X5877349Y6568687D03*
G01X6004349Y6568687D03*
G01X6131349Y6568687D03*
G01X6258349Y6568687D03*
G01X6385349Y6568687D03*
G01X6512349Y6568687D03*
G01X6639349Y6568687D03*
G01X6766349Y6568687D03*
G01X6893349Y6568687D03*
G01X7020349Y6571685D03*
G54D33*
G01X7196854Y6696678D03*
G01X7196854Y6823678D03*
G01X7196854Y6950678D03*
G01X7196854Y7077678D03*
G01X7196854Y7204678D03*
G01X7196854Y7331678D03*
G01X7196854Y7458678D03*
G01X7196854Y7585678D03*
G01X7196854Y7712678D03*
G01X7196854Y7839678D03*
G01X7196854Y7966678D03*
G01X7196854Y8093678D03*
G01X7196854Y8220678D03*
G01X7196854Y8347678D03*
G54D35*
G01X6311842Y7435666D03*
G01X6171837Y7435666D03*
G01X6031832Y7435666D03*
G01X6031832Y7715675D03*
G01X6171837Y7715675D03*
G01X6311842Y7715675D03*
G01X6311842Y7575670D03*
G01X6031832Y7575670D03*
G01X6171837Y7575670D03*
G04 Pad End*

M02*

