G04 Layer: BottomLayer*
G04 EasyEDA Pro v2.2.47.7, 2026-04-22 18:43:47*
G04 Gerber Generator version 0.3*
G04 Scale: 100 percent, Rotated: No, Reflected: No*
G04 Dimensions in millimeters*
G04 Leading zeros omitted, absolute positions, 4 integers and 5 decimals*
G04 Generated by one-click*
G04 Object Configs: Pad,Via,Track,Text,Image,Dimension,BoardOutline,BoardCutout,CopperFilled,SolidRegion,FPCStiffener,Line,PlaneZone,ComponentProperty,ComponentSilkscreen,TearDrop*
G04 Layer Configs: 1,2,3,4,5,6,7,8,9,10,11,13,14,56*
G04 Copper Areas: 12*
%FSLAX45Y45*%
%MOMM*%
%AMRect*21,1,$1,$2,0,0,$3*%
%ADD10C,0.2032*%
%ADD11R,0.54X0.79009*%
%ADD12R,0.79009X0.54*%
%ADD13R,0.7X1.6*%
%ADD14R,1.2X1.5*%
%ADD15R,1.2X2.2*%
%ADD16R,1.6X1.5*%
%ADD17C,1.8*%
%ADD18Rect,1.8X1.8X132.0*%
%ADD19Rect,1.8045X1.8X49.0*%
%ADD20Rect,1.8X1.8X49.0*%
%ADD21Rect,1.8X1.8X131.0*%
%ADD22R,0.6X1.1*%
%ADD23R,0.54X0.56566*%
%ADD24R,0.3X1.25001*%
%ADD25R,2.0X2.49999*%
%ADD26O,1.0X1.8*%
%ADD27O,1.0X2.1*%
%ADD28C,0.50002*%
%ADD29C,0.61*%
%ADD30C,0.8*%
%ADD31C,0.508*%
%ADD32C,0.152*%
%ADD33C,0.3048*%
%ADD34C,0.4064*%
%ADD35C,0.254*%
G75*


G04 Copper Start*
G36*
G01X4228422Y7759815D02*
G01X4228422Y7269295D01*
G01X4126138Y7865950D01*
G01X4122933Y7875792D01*
G01X4117048Y7884307D01*
G01X3898021Y8119496D01*
G01X5700116Y8119496D01*
G01X5701957Y8100804D01*
G01X5707409Y8082830D01*
G01X5716263Y8066265D01*
G01X5728179Y8051746D01*
G01X5742698Y8039830D01*
G01X5759263Y8030976D01*
G01X5777237Y8025523D01*
G01X5795929Y8023682D01*
G01X5814622Y8025523D01*
G01X5832596Y8030976D01*
G01X5849161Y8039830D01*
G01X5863680Y8051746D01*
G01X5875596Y8066265D01*
G01X5884450Y8082830D01*
G01X5889902Y8100804D01*
G01X5891743Y8119496D01*
G01X6500114Y8119496D01*
G01X6501955Y8100804D01*
G01X6507407Y8082830D01*
G01X6516262Y8066265D01*
G01X6528177Y8051746D01*
G01X6542697Y8039830D01*
G01X6559261Y8030976D01*
G01X6577236Y8025523D01*
G01X6595928Y8023682D01*
G01X6614620Y8025523D01*
G01X6632594Y8030976D01*
G01X6649159Y8039830D01*
G01X6663679Y8051746D01*
G01X6675594Y8066265D01*
G01X6684448Y8082830D01*
G01X6689901Y8100804D01*
G01X6691742Y8119496D01*
G01X6689901Y8138189D01*
G01X6684448Y8156163D01*
G01X6675594Y8172728D01*
G01X6663679Y8187247D01*
G01X6649159Y8199163D01*
G01X6632594Y8208017D01*
G01X6614620Y8213469D01*
G01X6595928Y8215310D01*
G01X6577236Y8213469D01*
G01X6559261Y8208017D01*
G01X6542697Y8199163D01*
G01X6528177Y8187247D01*
G01X6516262Y8172728D01*
G01X6507407Y8156163D01*
G01X6501955Y8138189D01*
G01X6500114Y8119496D01*
G01X6500114Y8119496D01*
G01X5891743Y8119496D01*
G01X5889902Y8138189D01*
G01X5884450Y8156163D01*
G01X5875596Y8172728D01*
G01X5863680Y8187247D01*
G01X5849161Y8199163D01*
G01X5832596Y8208017D01*
G01X5814622Y8213469D01*
G01X5795929Y8215310D01*
G01X5777237Y8213469D01*
G01X5759263Y8208017D01*
G01X5742698Y8199163D01*
G01X5728179Y8187247D01*
G01X5716263Y8172728D01*
G01X5707409Y8156163D01*
G01X5701957Y8138189D01*
G01X5700116Y8119496D01*
G01X5700116Y8119496D01*
G01X3898021Y8119496D01*
G01X3704266Y8327550D01*
G01X4382028Y8327550D01*
G01X4384434Y8311674D01*
G01X4390586Y8296841D01*
G01X4400124Y8283921D01*
G01X4412486Y8273673D01*
G01X4426950Y8266698D01*
G01X4442667Y8263403D01*
G01X4458714Y8263983D01*
G01X4474152Y8268403D01*
G01X4488075Y8276404D01*
G01X4499666Y8287517D01*
G01X4535628Y8287517D01*
G01X4592663Y8230483D01*
G01X4595336Y8214683D01*
G01X4601721Y8199986D01*
G01X4611444Y8187249D01*
G01X4623939Y8177217D01*
G01X4638476Y8170475D01*
G01X4654205Y8167416D01*
G01X4670209Y8168220D01*
G01X4685553Y8172839D01*
G01X4699341Y8181004D01*
G01X4710768Y8192238D01*
G01X4710768Y8192238D01*
G01X4719167Y8205884D01*
G01X4724047Y8221147D01*
G01X4725123Y8237135D01*
G01X4722333Y8252914D01*
G01X4715840Y8267564D01*
G01X4706022Y8280228D01*
G01X4693453Y8290168D01*
G01X4678867Y8296802D01*
G01X4663115Y8299744D01*
G01X4647118Y8298822D01*
G01X4584310Y8361630D01*
G01X4575318Y8368529D01*
G01X4564848Y8372866D01*
G01X4553611Y8374345D01*
G01X4497143Y8374345D01*
G01X4484927Y8384767D01*
G01X4470563Y8391946D01*
G01X4454894Y8395463D01*
G01X4438840Y8395110D01*
G01X4423342Y8390908D01*
G01X4409307Y8383105D01*
G01X4397560Y8372156D01*
G01X4388789Y8358705D01*
G01X4383509Y8343540D01*
G01X4382028Y8327550D01*
G01X3704266Y8327550D01*
G01X2857228Y9237096D01*
G01X3995414Y9237096D01*
G01X4816078Y8490878D01*
G01X4823256Y8485809D01*
G01X4831451Y8482640D01*
G01X4840172Y8481562D01*
G01X7788638Y8481562D01*
G01X7797442Y8482661D01*
G01X7805706Y8485890D01*
G01X7812923Y8491053D01*
G01X8621588Y9237096D01*
G01X9742590Y9237096D01*
G01X8498240Y7893476D01*
G01X8492394Y7884978D01*
G01X8489213Y7875168D01*
G01X8229332Y6352871D01*
G01X8228821Y6346850D01*
G01X8229330Y6340828D01*
G01X8343768Y5669263D01*
G01X8228407Y5669263D01*
G01X8228241Y5673298D01*
G01X8277680Y5722738D01*
G01X8284579Y5731729D01*
G01X8288916Y5742200D01*
G01X8290395Y5753436D01*
G01X8290395Y5774932D01*
G01X8288916Y5786168D01*
G01X8284579Y5796638D01*
G01X8277680Y5805630D01*
G01X8262480Y5820830D01*
G01X8253488Y5827729D01*
G01X8243018Y5832066D01*
G01X8231781Y5833545D01*
G01X8106681Y5833545D01*
G01X8087547Y5852680D01*
G01X8078555Y5859579D01*
G01X8068085Y5863916D01*
G01X8056848Y5865396D01*
G01X8037400Y5865396D01*
G01X8199907Y6027903D01*
G01X8211249Y6037692D01*
G01X8219872Y6049942D01*
G01X8225262Y6063920D01*
G01X8227096Y6078789D01*
G01X8227096Y7050430D01*
G01X8292428Y7115762D01*
G01X8301689Y7127645D01*
G01X8312788Y7132229D01*
G01X8321749Y7140224D01*
G01X8327562Y7150732D01*
G01X8329575Y7162570D01*
G01X8329575Y7241580D01*
G01X8327822Y7252647D01*
G01X8322735Y7262631D01*
G01X8314812Y7270554D01*
G01X8304828Y7275641D01*
G01X8293761Y7277394D01*
G01X8239761Y7277394D01*
G01X8230601Y7276203D01*
G01X8222051Y7272709D01*
G01X8137665Y7357094D01*
G01X8137665Y7414249D01*
G01X8135912Y7425316D01*
G01X8130825Y7435300D01*
G01X8122902Y7443223D01*
G01X8112918Y7448310D01*
G01X8101851Y7450063D01*
G01X8041851Y7450063D01*
G01X8030784Y7448310D01*
G01X8020801Y7443223D01*
G01X8012877Y7435300D01*
G01X8007790Y7425316D01*
G01X8006037Y7414249D01*
G01X8006037Y7304249D01*
G01X8007790Y7293182D01*
G01X8012877Y7283198D01*
G01X8020801Y7275275D01*
G01X8030784Y7270188D01*
G01X8041851Y7268435D01*
G01X8053185Y7268435D01*
G01X8055377Y7266243D01*
G01X7936448Y7266243D01*
G01X7934974Y7267768D01*
G01X7931874Y7270869D01*
G01X7931874Y7274550D01*
G01X7940330Y7282522D01*
G01X7945788Y7292782D01*
G01X7947673Y7304249D01*
G01X7947673Y7375798D01*
G01X7952940Y7386092D01*
G01X7956177Y7397192D01*
G01X7957269Y7408703D01*
G01X7957269Y7409935D01*
G01X7962060Y7414726D01*
G01X7969673Y7424002D01*
G01X7975329Y7434585D01*
G01X7978813Y7446068D01*
G01X7979989Y7458011D01*
G01X7979989Y7502493D01*
G01X7984804Y7509558D01*
G01X7987808Y7517563D01*
G01X7988828Y7526052D01*
G01X7988828Y7580052D01*
G01X7987076Y7591119D01*
G01X7981989Y7601103D01*
G01X7974065Y7609026D01*
G01X7964082Y7614113D01*
G01X7953014Y7615866D01*
G01X7937516Y7615866D01*
G01X7930860Y8288020D01*
G01X8265772Y8622931D01*
G01X8279928Y8630915D01*
G01X8291717Y8642101D01*
G01X8300431Y8655820D01*
G01X8305547Y8671245D01*
G01X8306757Y8687452D01*
G01X8303989Y8703467D01*
G01X8297409Y8718327D01*
G01X8287412Y8731141D01*
G01X8274598Y8741138D01*
G01X8259738Y8747718D01*
G01X8243724Y8750486D01*
G01X8227517Y8749276D01*
G01X8212091Y8744160D01*
G01X8198373Y8735446D01*
G01X8187186Y8723657D01*
G01X8179203Y8709501D01*
G01X7826110Y8356408D01*
G01X7818413Y8347006D01*
G01X7812725Y8336269D01*
G01X7809270Y8324620D01*
G01X7808184Y8312518D01*
G01X7811874Y7939843D01*
G01X7773141Y7978577D01*
G01X7764149Y7985476D01*
G01X7753679Y7989813D01*
G01X7742442Y7991293D01*
G01X7663235Y7991293D01*
G01X7651328Y8002070D01*
G01X7637179Y8009669D01*
G01X7621618Y8013644D01*
G01X7605558Y8013761D01*
G01X7589941Y8010014D01*
G01X7575682Y8002623D01*
G01X7563619Y7992020D01*
G01X7554459Y7978828D01*
G01X7548738Y7963821D01*
G01X7546793Y7947878D01*
G01X7548738Y7931936D01*
G01X7554459Y7916929D01*
G01X7563619Y7903737D01*
G01X7575682Y7893134D01*
G01X7589941Y7885743D01*
G01X7605558Y7881996D01*
G01X7621618Y7882113D01*
G01X7637179Y7886088D01*
G01X7651328Y7893687D01*
G01X7663235Y7904464D01*
G01X7724460Y7904464D01*
G01X7748359Y7880565D01*
G01X7748359Y7681093D01*
G01X7719478Y7652213D01*
G01X7714077Y7645630D01*
G01X7710064Y7638121D01*
G01X7675078Y7673107D01*
G01X7675078Y7745459D01*
G01X7673598Y7756695D01*
G01X7669261Y7767166D01*
G01X7662362Y7776157D01*
G01X7501020Y7937499D01*
G01X7501020Y8014981D01*
G01X7499541Y8026218D01*
G01X7495204Y8036688D01*
G01X7488304Y8045680D01*
G01X7438064Y8095920D01*
G01X7429073Y8102819D01*
G01X7418602Y8107156D01*
G01X7407366Y8108635D01*
G01X7389824Y8108635D01*
G01X7377929Y8119404D01*
G01X7363797Y8127001D01*
G01X7348253Y8130981D01*
G01X7332209Y8131111D01*
G01X7316603Y8127384D01*
G01X7302348Y8120018D01*
G01X7290281Y8109444D01*
G01X7281106Y8096281D01*
G01X7275361Y8081300D01*
G01X7273382Y8065378D01*
G01X7275286Y8049446D01*
G01X7280960Y8034438D01*
G01X7290073Y8021232D01*
G01X7302091Y8010601D01*
G01X7316310Y8003168D01*
G01X7331898Y7999367D01*
G01X7347943Y7999422D01*
G01X7363505Y8003329D01*
G01X7377674Y8010859D01*
G01X7389619Y8021572D01*
G01X7414192Y7996999D01*
G01X7414192Y7919516D01*
G01X7415671Y7908280D01*
G01X7420008Y7897809D01*
G01X7426908Y7888818D01*
G01X7588250Y7727476D01*
G01X7588250Y7655124D01*
G01X7589729Y7643888D01*
G01X7594066Y7633417D01*
G01X7600965Y7624426D01*
G01X7619163Y7606228D01*
G01X7616271Y7603968D01*
G01X7610767Y7612574D01*
G01X7603056Y7619277D01*
G01X7593768Y7623529D01*
G01X7583656Y7624986D01*
G01X7529656Y7624986D01*
G01X7518589Y7623233D01*
G01X7508605Y7618146D01*
G01X7500682Y7610223D01*
G01X7495595Y7600239D01*
G01X7493842Y7589172D01*
G01X7493842Y7532606D01*
G01X7493852Y7531749D01*
G01X7375420Y7531749D01*
G01X7360892Y7529836D01*
G01X7347353Y7524228D01*
G01X7335727Y7515307D01*
G01X7111372Y7290952D01*
G01X6997366Y7290952D01*
G01X7003974Y7304073D01*
G01X7007531Y7318328D01*
G01X7007862Y7333015D01*
G01X7004951Y7347416D01*
G01X6998941Y7360821D01*
G01X6990127Y7372575D01*
G01X6978941Y7382099D01*
G01X6965932Y7388927D01*
G01X6951740Y7392723D01*
G01X6937060Y7393301D01*
G01X6819933Y7510428D01*
G01X6810942Y7517327D01*
G01X6800471Y7521665D01*
G01X6789235Y7523144D01*
G01X6370088Y7523144D01*
G01X6364240Y7536531D01*
G01X6355368Y7548138D01*
G01X6343985Y7557294D01*
G01X6330746Y7563471D01*
G01X6316416Y7566313D01*
G01X6301822Y7565655D01*
G01X6302652Y7575670D01*
G01X6301822Y7585685D01*
G01X6316854Y7585062D01*
G01X6331580Y7588149D01*
G01X6345097Y7594756D01*
G01X6356578Y7604480D01*
G01X6365321Y7616724D01*
G01X6370791Y7630740D01*
G01X6372652Y7645670D01*
G01X6370791Y7660600D01*
G01X6365321Y7674616D01*
G01X6356578Y7686861D01*
G01X6345097Y7696584D01*
G01X6331580Y7703192D01*
G01X6316854Y7706278D01*
G01X6301822Y7705655D01*
G01X6302445Y7720688D01*
G01X6299358Y7735413D01*
G01X6292751Y7748930D01*
G01X6283028Y7760412D01*
G01X6270783Y7769155D01*
G01X6256767Y7774624D01*
G01X6241837Y7776485D01*
G01X6226907Y7774624D01*
G01X6212891Y7769155D01*
G01X6200646Y7760412D01*
G01X6190923Y7748930D01*
G01X6184316Y7735413D01*
G01X6181229Y7720688D01*
G01X6181852Y7705655D01*
G01X6171837Y7706485D01*
G01X6161822Y7705655D01*
G01X6162445Y7720688D01*
G01X6159358Y7735413D01*
G01X6152751Y7748930D01*
G01X6143028Y7760412D01*
G01X6130783Y7769155D01*
G01X6116767Y7774624D01*
G01X6101837Y7776485D01*
G01X6086907Y7774624D01*
G01X6072891Y7769155D01*
G01X6060647Y7760412D01*
G01X6050923Y7748930D01*
G01X6044316Y7735413D01*
G01X6041229Y7720688D01*
G01X6041852Y7705655D01*
G01X6026820Y7706278D01*
G01X6012094Y7703192D01*
G01X5998577Y7696584D01*
G01X5987096Y7686861D01*
G01X5978353Y7674616D01*
G01X5972883Y7660600D01*
G01X5971022Y7645670D01*
G01X5972883Y7630740D01*
G01X5978353Y7616724D01*
G01X5987096Y7604480D01*
G01X5998577Y7594756D01*
G01X6012094Y7588149D01*
G01X6026820Y7585062D01*
G01X6041852Y7585685D01*
G01X6041022Y7575670D01*
G01X6041852Y7565655D01*
G01X6027258Y7566313D01*
G01X6012928Y7563471D01*
G01X5999689Y7557294D01*
G01X5988306Y7548138D01*
G01X5979434Y7536531D01*
G01X5973586Y7523144D01*
G01X5375181Y7523144D01*
G01X5363302Y7533902D01*
G01X5349189Y7541496D01*
G01X5333666Y7545482D01*
G01X5317640Y7545628D01*
G01X5302048Y7541925D01*
G01X5287799Y7534590D01*
G01X5275725Y7524050D01*
G01X5266533Y7510922D01*
G01X5260759Y7495972D01*
G01X5258740Y7480073D01*
G01X5260594Y7464155D01*
G01X5266213Y7449145D01*
G01X5223895Y7449145D01*
G01X5212827Y7447711D01*
G01X5202490Y7443502D01*
G01X5193568Y7436797D01*
G01X5163926Y7407860D01*
G01X5154595Y7400767D01*
G01X5090334Y7336505D01*
G01X5080256Y7341716D01*
G01X5069053Y7343513D01*
G01X5015053Y7343513D01*
G01X5013040Y7343457D01*
G01X4986684Y7369813D01*
G01X4986684Y7422773D01*
G01X4993727Y7418004D01*
G01X5001696Y7415031D01*
G01X5010141Y7414021D01*
G01X5064142Y7414021D01*
G01X5075209Y7415774D01*
G01X5085193Y7420861D01*
G01X5093116Y7428784D01*
G01X5098203Y7438768D01*
G01X5099956Y7449835D01*
G01X5099956Y7506401D01*
G01X5099123Y7514079D01*
G01X5096664Y7521400D01*
G01X5099123Y7528721D01*
G01X5099956Y7536398D01*
G01X5099956Y7592964D01*
G01X5098203Y7604031D01*
G01X5093116Y7614015D01*
G01X5085193Y7621938D01*
G01X5075209Y7627025D01*
G01X5064142Y7628778D01*
G01X5010141Y7628778D01*
G01X5001608Y7627747D01*
G01X4993566Y7624711D01*
G01X4986478Y7619847D01*
G01X4986478Y7750442D01*
G01X5068236Y7832200D01*
G01X5252007Y7832200D01*
G01X5263568Y7821668D01*
G01X5277273Y7814136D01*
G01X5292361Y7810024D01*
G01X5307993Y7809559D01*
G01X5323298Y7812767D01*
G01X5337427Y7819471D01*
G01X5349593Y7829297D01*
G01X5359120Y7841698D01*
G01X5365478Y7855986D01*
G01X5368313Y7871366D01*
G01X5367467Y7886981D01*
G01X5362989Y7901965D01*
G01X5355126Y7915483D01*
G01X5344316Y7926783D01*
G01X5353568Y7936908D01*
G01X5360539Y7948720D01*
G01X5364932Y7961714D01*
G01X5366557Y7975333D01*
G01X5365346Y7988996D01*
G01X5361350Y8002116D01*
G01X5354740Y8014135D01*
G01X5345799Y8024536D01*
G01X5334910Y8032875D01*
G01X5322538Y8038796D01*
G01X5309212Y8042045D01*
G01X5295503Y8042484D01*
G01X5287465Y8050522D01*
G01X5278474Y8057421D01*
G01X5268003Y8061758D01*
G01X5256767Y8063238D01*
G01X4531845Y8063238D01*
G01X4520608Y8061758D01*
G01X4510138Y8057421D01*
G01X4501146Y8050522D01*
G01X4241138Y7790514D01*
G01X4234238Y7781522D01*
G01X4229901Y7771052D01*
G01X4228422Y7759815D01*
G37*
G36*
G01X3184598Y3787541D02*
G01X4103995Y4774039D01*
G01X4107735Y4770299D01*
G01X4115759Y4763975D01*
G01X4125039Y4759701D01*
G01X4135061Y4757714D01*
G01X4315662Y4577113D01*
G01X4324654Y4570214D01*
G01X4335124Y4565876D01*
G01X4346361Y4564397D01*
G01X4522052Y4564397D01*
G01X4533289Y4565876D01*
G01X4543759Y4570214D01*
G01X4552751Y4577113D01*
G01X4623925Y4648287D01*
G01X4645594Y4648287D01*
G01X4692211Y4601670D01*
G01X4701203Y4594771D01*
G01X4711673Y4590434D01*
G01X4722910Y4588955D01*
G01X4767065Y4588955D01*
G01X4778301Y4590434D01*
G01X4788772Y4594771D01*
G01X4797763Y4601670D01*
G01X4844378Y4648285D01*
G01X4864775Y4648285D01*
G01X4876011Y4649765D01*
G01X4886482Y4654102D01*
G01X4895473Y4661001D01*
G01X4907318Y4672846D01*
G01X5204296Y4672843D01*
G01X5214687Y4663167D01*
G01X5226900Y4655925D01*
G01X5240375Y4651449D01*
G01X5254493Y4649944D01*
G01X5268609Y4651479D01*
G01X5282074Y4655984D01*
G01X5294271Y4663252D01*
G01X5304642Y4672950D01*
G01X5312710Y4684633D01*
G01X5318106Y4697767D01*
G01X5354565Y4697767D01*
G01X5417227Y4635104D01*
G01X5426219Y4628205D01*
G01X5436689Y4623868D01*
G01X5447926Y4622389D01*
G01X6752688Y4622389D01*
G01X6763924Y4623868D01*
G01X6774395Y4628205D01*
G01X6783386Y4635104D01*
G01X6808944Y4660662D01*
G01X6824644Y4660662D01*
G01X6837880Y4647427D01*
G01X6846871Y4640527D01*
G01X6857342Y4636190D01*
G01X6868578Y4634711D01*
G01X6928888Y4634711D01*
G01X6940124Y4636190D01*
G01X6950595Y4640527D01*
G01X6959586Y4647427D01*
G01X6972822Y4660662D01*
G01X7220695Y4660662D01*
G01X7231931Y4662142D01*
G01X7242402Y4666479D01*
G01X7251393Y4673378D01*
G01X7618815Y5040800D01*
G01X7625715Y5049792D01*
G01X7630052Y5060262D01*
G01X7631531Y5071499D01*
G01X7631531Y5160928D01*
G01X7632172Y5161569D01*
G01X7639071Y5170560D01*
G01X7643408Y5181031D01*
G01X7644887Y5192267D01*
G01X7644887Y5212956D01*
G01X7794404Y5362473D01*
G01X7801303Y5371464D01*
G01X7805640Y5381935D01*
G01X7807119Y5393171D01*
G01X7807119Y6245288D01*
G01X7815738Y6253907D01*
G01X7822105Y6262002D01*
G01X7826387Y6271370D01*
G01X7828341Y6281483D01*
G01X7838232Y6291373D01*
G01X7844597Y6299465D01*
G01X7848878Y6308829D01*
G01X7850834Y6318938D01*
G01X7852386Y6340378D01*
G01X7851527Y6352646D01*
G01X7847263Y6364180D01*
G01X7839936Y6374057D01*
G01X7839936Y6437259D01*
G01X7842421Y6439743D01*
G01X7849320Y6448734D01*
G01X7853657Y6459205D01*
G01X7855136Y6470441D01*
G01X7855136Y6517094D01*
G01X7853657Y6528331D01*
G01X7849320Y6538801D01*
G01X7842421Y6547793D01*
G01X7801502Y6588711D01*
G01X7801502Y6684118D01*
G01X7876326Y6609294D01*
G01X7876326Y5950921D01*
G01X7836660Y5911255D01*
G01X7829761Y5902263D01*
G01X7825424Y5891793D01*
G01X7823944Y5880556D01*
G01X7823944Y5820206D01*
G01X7825424Y5808969D01*
G01X7829761Y5798498D01*
G01X7836660Y5789507D01*
G01X7879335Y5746833D01*
G01X7888326Y5739933D01*
G01X7898797Y5735596D01*
G01X7910033Y5734117D01*
G01X7970384Y5734117D01*
G01X7981620Y5735596D01*
G01X7992091Y5739933D01*
G01X8001082Y5746833D01*
G01X8032817Y5778567D01*
G01X8038866Y5778567D01*
G01X8058000Y5759433D01*
G01X8066991Y5752534D01*
G01X8077462Y5748196D01*
G01X8088699Y5746717D01*
G01X8178866Y5746717D01*
G01X8166843Y5734694D01*
G01X8151436Y5734002D01*
G01X8136606Y5729769D01*
G01X8123154Y5722225D01*
G01X8111809Y5711778D01*
G01X8103183Y5698993D01*
G01X8097745Y5684561D01*
G01X8095786Y5669263D01*
G01X8088847Y5669263D01*
G01X8077780Y5667511D01*
G01X8067796Y5662424D01*
G01X8059873Y5654500D01*
G01X8054786Y5644517D01*
G01X8053033Y5633449D01*
G01X8053033Y5469733D01*
G01X8054786Y5458665D01*
G01X8059873Y5448682D01*
G01X8067796Y5440758D01*
G01X8077780Y5435671D01*
G01X8088847Y5433919D01*
G01X8373715Y5433919D01*
G01X8383633Y5435319D01*
G01X8488750Y4818453D01*
G01X8491961Y4808575D01*
G01X8497872Y4800034D01*
G01X9442782Y3787541D01*
G01X8261186Y3787541D01*
G01X7803236Y4205172D01*
G01X7796050Y4210260D01*
G01X7787841Y4213442D01*
G01X7779103Y4214524D01*
G01X4845352Y4214524D01*
G01X4836595Y4213437D01*
G01X4828369Y4210241D01*
G01X4821174Y4205131D01*
G01X4364841Y3787541D01*
G01X3184598Y3787541D01*
G37*
G36*
G01X4732884Y5559869D02*
G01X4744826Y5561045D01*
G01X4756309Y5564528D01*
G01X4766892Y5570185D01*
G01X4776169Y5577798D01*
G01X4885315Y5686943D01*
G01X4892928Y5696220D01*
G01X4898585Y5706803D01*
G01X4902068Y5718286D01*
G01X4903245Y5730229D01*
G01X4903244Y5820710D01*
G01X4906721Y5834327D01*
G01X4907001Y5848378D01*
G01X4904069Y5862122D01*
G01X4898079Y5874835D01*
G01X4889348Y5885847D01*
G01X4868590Y5906605D01*
G01X4868590Y5955157D01*
G01X4866624Y5970546D01*
G01X4860853Y5984947D01*
G01X4851646Y5997434D01*
G01X4851646Y6045374D01*
G01X4864175Y6038782D01*
G01X4877819Y6035001D01*
G01X4891954Y6034201D01*
G01X4905936Y6036421D01*
G01X4919129Y6041558D01*
G01X4930931Y6049378D01*
G01X5163043Y6049378D01*
G01X5328507Y5883913D01*
G01X5331107Y5881111D01*
G01X5611427Y5600791D01*
G01X5614617Y5597862D01*
G01X5601585Y5593677D01*
G01X5589690Y5586906D01*
G01X5579438Y5577837D01*
G01X5428818Y5577837D01*
G01X5417400Y5588266D01*
G01X5403878Y5595767D01*
G01X5388986Y5599933D01*
G01X5373535Y5600536D01*
G01X5358363Y5597545D01*
G01X5344297Y5591121D01*
G01X5332101Y5581614D01*
G01X5322439Y5569542D01*
G01X5312108Y5579872D01*
G01X5306677Y5590807D01*
G01X5298416Y5599797D01*
G01X5287979Y5606132D01*
G01X5276190Y5609310D01*
G01X5263983Y5609080D01*
G01X5252322Y5605460D01*
G01X5242131Y5598736D01*
G01X5234214Y5589440D01*
G01X5229200Y5578308D01*
G01X5227483Y5566220D01*
G01X5227483Y5559687D01*
G01X5229275Y5547342D01*
G01X5234503Y5536017D01*
G01X5226514Y5537635D01*
G01X5218382Y5538178D01*
G01X4811666Y5538178D01*
G01X4799724Y5537002D01*
G01X4788241Y5533518D01*
G01X4777658Y5527861D01*
G01X4768381Y5520249D01*
G01X4410721Y5162588D01*
G01X4403108Y5153312D01*
G01X4397451Y5142729D01*
G01X4393968Y5131245D01*
G01X4392791Y5119303D01*
G01X4392791Y5002549D01*
G01X4393968Y4990606D01*
G01X4397451Y4979123D01*
G01X4403108Y4968540D01*
G01X4410720Y4959264D01*
G01X4535691Y4834293D01*
G01X4543184Y4827918D01*
G01X4551601Y4822825D01*
G01X4564590Y4815477D01*
G01X4578893Y4811219D01*
G01X4593787Y4810267D01*
G01X4608515Y4812670D01*
G01X4622334Y4818305D01*
G01X4634543Y4826888D01*
G01X4644523Y4837984D01*
G01X4651769Y4851030D01*
G01X4655915Y4865366D01*
G01X4656749Y4880267D01*
G01X4654231Y4894976D01*
G01X4648487Y4908750D01*
G01X4639808Y4920891D01*
G01X4628635Y4930783D01*
G01X4615532Y4937927D01*
G01X4601163Y4941960D01*
G01X4515219Y5027904D01*
G01X4515219Y5093947D01*
G01X4837022Y5415750D01*
G01X5193026Y5415750D01*
G01X5291881Y5316894D01*
G01X5302367Y5308494D01*
G01X5314433Y5302583D01*
G01X5327498Y5299447D01*
G01X5206637Y5178587D01*
G01X5199738Y5169595D01*
G01X5195401Y5159125D01*
G01X5193922Y5147888D01*
G01X5193922Y5065517D01*
G01X5195401Y5054281D01*
G01X5199738Y5043810D01*
G01X5206637Y5034819D01*
G01X5409850Y4831606D01*
G01X5418842Y4824706D01*
G01X5429312Y4820369D01*
G01X5440549Y4818890D01*
G01X5658986Y4818890D01*
G01X5670222Y4820369D01*
G01X5680693Y4824706D01*
G01X5689684Y4831606D01*
G01X5722968Y4864890D01*
G01X5854726Y4864890D01*
G01X5865962Y4866369D01*
G01X5876433Y4870706D01*
G01X5885424Y4877605D01*
G01X5926507Y4918688D01*
G01X5950851Y4918688D01*
G01X5989812Y4879728D01*
G01X5998803Y4872828D01*
G01X6009274Y4868491D01*
G01X6020510Y4867012D01*
G01X6602899Y4867012D01*
G01X6614136Y4868491D01*
G01X6624606Y4872828D01*
G01X6633598Y4879728D01*
G01X6663085Y4909215D01*
G01X6763057Y4909215D01*
G01X6774294Y4910694D01*
G01X6784764Y4915031D01*
G01X6793756Y4921931D01*
G01X6857047Y4985221D01*
G01X6863946Y4994213D01*
G01X6868283Y5004683D01*
G01X6869762Y5015920D01*
G01X6869762Y5354344D01*
G01X6868283Y5365581D01*
G01X6863946Y5376051D01*
G01X6857047Y5385043D01*
G01X6720760Y5521329D01*
G01X6720760Y5534974D01*
G01X7214838Y5534974D01*
G01X7216830Y5518844D01*
G01X7222685Y5503683D01*
G01X7232051Y5490402D01*
G01X7244367Y5479798D01*
G01X7258892Y5472507D01*
G01X7274754Y5468969D01*
G01X7291001Y5469395D01*
G01X7306655Y5473760D01*
G01X7567549Y5473760D01*
G01X7573493Y5474049D01*
G01X7590972Y5474111D01*
G01X7607971Y5478175D01*
G01X7623589Y5486023D01*
G01X7636994Y5497239D01*
G01X7647474Y5511228D01*
G01X7654472Y5527244D01*
G01X7657616Y5544437D01*
G01X7656739Y5561894D01*
G01X7651888Y5578686D01*
G01X7643321Y5593920D01*
G01X7631492Y5606788D01*
G01X7617030Y5616605D01*
G01X7600705Y5622849D01*
G01X7583384Y5625189D01*
G01X7565988Y5623500D01*
G01X7549440Y5617871D01*
G01X7534621Y5608603D01*
G01X7522319Y5596188D01*
G01X7306655Y5596188D01*
G01X7291001Y5600552D01*
G01X7274754Y5600978D01*
G01X7258892Y5597440D01*
G01X7244367Y5590150D01*
G01X7232051Y5579545D01*
G01X7222685Y5566264D01*
G01X7216830Y5551103D01*
G01X7214838Y5534974D01*
G01X7214838Y5534974D01*
G01X6720760Y5534974D01*
G01X6720760Y5578497D01*
G01X6784420Y5642158D01*
G01X6791320Y5651149D01*
G01X6795657Y5661620D01*
G01X6797136Y5672856D01*
G01X6797136Y5699818D01*
G01X6812407Y5694508D01*
G01X6828509Y5693052D01*
G01X6844485Y5695536D01*
G01X6859385Y5701811D01*
G01X6872324Y5711506D01*
G01X6882532Y5724044D01*
G01X6889403Y5738679D01*
G01X6892528Y5754542D01*
G01X6891721Y5770690D01*
G01X6887031Y5786162D01*
G01X6878736Y5800040D01*
G01X6867329Y5811498D01*
G01X6853489Y5819855D01*
G01X6838037Y5824615D01*
G01X6821609Y5841043D01*
G01X6821609Y5865649D01*
G01X6831609Y5856063D01*
G01X6843383Y5848764D01*
G01X6856416Y5844070D01*
G01X6870140Y5842187D01*
G01X6883956Y5843195D01*
G01X6897261Y5847052D01*
G01X6909474Y5853589D01*
G01X6920063Y5862520D01*
G01X6928565Y5873457D01*
G01X6934610Y5885921D01*
G01X6937933Y5899369D01*
G01X6938390Y5913214D01*
G01X6966131Y5940956D01*
G01X6973031Y5949947D01*
G01X6977368Y5960418D01*
G01X6978847Y5971654D01*
G01X6978847Y6148687D01*
G01X6987690Y6157530D01*
G01X7115488Y6157530D01*
G01X7122462Y6158094D01*
G01X7129254Y6159770D01*
G01X7135006Y6152020D01*
G01X7141823Y6145188D01*
G01X7141823Y5906891D01*
G01X7130670Y5895339D01*
G01X7122620Y5881445D01*
G01X7118146Y5866023D01*
G01X7117510Y5849978D01*
G01X7120749Y5834251D01*
G01X7127673Y5819763D01*
G01X7137877Y5807364D01*
G01X7150761Y5797782D01*
G01X7165572Y5791577D01*
G01X7181439Y5789114D01*
G01X7197433Y5790537D01*
G01X7212617Y5795763D01*
G01X7226099Y5804485D01*
G01X7237089Y5816192D01*
G01X7244944Y5830197D01*
G01X7249201Y5845680D01*
G01X7249613Y5861732D01*
G01X7246154Y5877413D01*
G01X7239027Y5891802D01*
G01X7228651Y5904057D01*
G01X7228651Y6145188D01*
G01X7238595Y6155939D01*
G01X7288682Y6105851D01*
G01X7297674Y6098951D01*
G01X7308144Y6094614D01*
G01X7319381Y6093135D01*
G01X7596874Y6093135D01*
G01X7608781Y6082357D01*
G01X7622930Y6074758D01*
G01X7638491Y6070783D01*
G01X7654551Y6070666D01*
G01X7670168Y6074413D01*
G01X7684426Y6081805D01*
G01X7696490Y6092408D01*
G01X7705650Y6105600D01*
G01X7711371Y6120607D01*
G01X7713315Y6136549D01*
G01X7711371Y6152491D01*
G01X7705650Y6167499D01*
G01X7696490Y6180691D01*
G01X7684426Y6191293D01*
G01X7670168Y6198685D01*
G01X7654551Y6202432D01*
G01X7638491Y6202315D01*
G01X7622930Y6198340D01*
G01X7608781Y6190741D01*
G01X7596874Y6179963D01*
G01X7337364Y6179963D01*
G01X7242136Y6275191D01*
G01X7292750Y6275191D01*
G01X7296180Y6275306D01*
G01X7296786Y6259830D01*
G01X7300964Y6244916D01*
G01X7308488Y6231379D01*
G01X7318947Y6219956D01*
G01X7331771Y6211270D01*
G01X7346259Y6205796D01*
G01X7361622Y6203832D01*
G01X7377021Y6205485D01*
G01X7391617Y6210665D01*
G01X7404614Y6219089D01*
G01X7614417Y6219089D01*
G01X7627631Y6220828D01*
G01X7639944Y6225929D01*
G01X7650518Y6234042D01*
G01X7756274Y6339799D01*
G01X7758745Y6334680D01*
G01X7754341Y6330276D01*
G01X7747973Y6322180D01*
G01X7743692Y6312813D01*
G01X7741738Y6302700D01*
G01X7733007Y6293969D01*
G01X7726107Y6284978D01*
G01X7721770Y6274507D01*
G01X7720291Y6263271D01*
G01X7720291Y5411154D01*
G01X7570775Y5261637D01*
G01X7563875Y5252646D01*
G01X7559538Y5242175D01*
G01X7558059Y5230939D01*
G01X7558059Y5210250D01*
G01X7557419Y5209609D01*
G01X7550519Y5200618D01*
G01X7546182Y5190147D01*
G01X7544703Y5178911D01*
G01X7544703Y5089481D01*
G01X7202712Y4747491D01*
G01X6954839Y4747491D01*
G01X6943603Y4746011D01*
G01X6933132Y4741674D01*
G01X6924141Y4734775D01*
G01X6910905Y4721539D01*
G01X6886561Y4721539D01*
G01X6873325Y4734775D01*
G01X6864334Y4741674D01*
G01X6853863Y4746011D01*
G01X6842627Y4747491D01*
G01X6790962Y4747491D01*
G01X6779725Y4746011D01*
G01X6769255Y4741674D01*
G01X6760263Y4734775D01*
G01X6734705Y4709217D01*
G01X5465908Y4709217D01*
G01X5403246Y4771879D01*
G01X5394255Y4778778D01*
G01X5383784Y4783115D01*
G01X5374284Y4784366D01*
G01X6013368Y4784366D01*
G01X6015353Y4768018D01*
G01X6021193Y4752619D01*
G01X6030548Y4739066D01*
G01X6042875Y4728145D01*
G01X6057457Y4720492D01*
G01X6073447Y4716551D01*
G01X6089916Y4716551D01*
G01X6105905Y4720492D01*
G01X6120488Y4728145D01*
G01X6132814Y4739066D01*
G01X6142170Y4752619D01*
G01X6148009Y4768018D01*
G01X6149995Y4784366D01*
G01X6591370Y4784366D01*
G01X6593355Y4768018D01*
G01X6599195Y4752619D01*
G01X6608550Y4739066D01*
G01X6620877Y4728145D01*
G01X6635459Y4720492D01*
G01X6651449Y4716551D01*
G01X6667918Y4716551D01*
G01X6683908Y4720492D01*
G01X6698490Y4728145D01*
G01X6710817Y4739066D01*
G01X6720172Y4752619D01*
G01X6726012Y4768018D01*
G01X6727997Y4784366D01*
G01X6726012Y4800715D01*
G01X6720172Y4816113D01*
G01X6710817Y4829666D01*
G01X6698490Y4840587D01*
G01X6683908Y4848240D01*
G01X6667918Y4852181D01*
G01X6651449Y4852181D01*
G01X6635459Y4848240D01*
G01X6620877Y4840587D01*
G01X6608550Y4829666D01*
G01X6599195Y4816113D01*
G01X6593355Y4800715D01*
G01X6591370Y4784366D01*
G01X6591370Y4784366D01*
G01X6149995Y4784366D01*
G01X6148009Y4800715D01*
G01X6142170Y4816113D01*
G01X6132814Y4829666D01*
G01X6120488Y4840587D01*
G01X6105905Y4848240D01*
G01X6089916Y4852181D01*
G01X6073447Y4852181D01*
G01X6057457Y4848240D01*
G01X6042875Y4840587D01*
G01X6030548Y4829666D01*
G01X6021193Y4816113D01*
G01X6015353Y4800715D01*
G01X6013368Y4784366D01*
G01X6013368Y4784366D01*
G01X5374284Y4784366D01*
G01X5372548Y4784595D01*
G01X5322861Y4784595D01*
G01X5307199Y4800257D01*
G01X5298207Y4807156D01*
G01X5287737Y4811493D01*
G01X5276500Y4812972D01*
G01X4868333Y4812972D01*
G01X4857097Y4811493D01*
G01X4846626Y4807156D01*
G01X4837635Y4800257D01*
G01X4779607Y4742229D01*
G01X4768560Y4747652D01*
G01X4756702Y4750940D01*
G01X4744440Y4751981D01*
G01X4732196Y4750738D01*
G01X4720394Y4747254D01*
G01X4709438Y4741649D01*
G01X4699706Y4734117D01*
G01X4691534Y4724916D01*
G01X4683101Y4730478D01*
G01X4673611Y4733940D01*
G01X4663577Y4735115D01*
G01X4605943Y4735115D01*
G01X4594706Y4733636D01*
G01X4584236Y4729299D01*
G01X4575244Y4722400D01*
G01X4504070Y4651225D01*
G01X4364343Y4651225D01*
G01X4183873Y4831696D01*
G01X4179092Y4835827D01*
G01X4212963Y5035446D01*
G01X4222300Y5022130D01*
G01X4234597Y5011487D01*
G01X4249114Y5004157D01*
G01X4264979Y5000581D01*
G01X4281237Y5000974D01*
G01X4296911Y5005312D01*
G01X4311057Y5013334D01*
G01X4322826Y5024559D01*
G01X4331509Y5038310D01*
G01X4336583Y5053761D01*
G01X4368569Y5085746D01*
G01X4376363Y5095296D01*
G01X4382086Y5106213D01*
G01X4385506Y5118056D01*
G01X4386484Y5130344D01*
G01X4386614Y5134335D01*
G01X4386614Y5250739D01*
G01X4684338Y5548463D01*
G01X4694012Y5553410D01*
G01X4702748Y5559869D01*
G01X4732884Y5559869D01*
G37*
G36*
G01X4674940Y6924885D02*
G01X4677528Y6932377D01*
G01X4678405Y6940255D01*
G01X4678405Y6994256D01*
G01X4676653Y7005323D01*
G01X4671566Y7015307D01*
G01X4663642Y7023230D01*
G01X4653659Y7028317D01*
G01X4642591Y7030070D01*
G01X4563582Y7030070D01*
G01X4552515Y7028317D01*
G01X4542531Y7023230D01*
G01X4534608Y7015307D01*
G01X4529521Y7005323D01*
G01X4527768Y6994256D01*
G01X4527768Y6940255D01*
G01X4529521Y6929188D01*
G01X4534608Y6919204D01*
G01X4542531Y6911281D01*
G01X4552515Y6906194D01*
G01X4563582Y6904441D01*
G01X4572832Y6904441D01*
G01X4572832Y6694551D01*
G01X4568839Y6710156D01*
G01X4561738Y6724614D01*
G01X4551829Y6737313D01*
G01X4539532Y6747716D01*
G01X4525366Y6755384D01*
G01X4509931Y6759991D01*
G01X4493880Y6761343D01*
G01X4477893Y6759382D01*
G01X4462644Y6754192D01*
G01X4448780Y6745992D01*
G01X4448780Y6749124D01*
G01X4446861Y6761889D01*
G01X4441274Y6773525D01*
G01X4441274Y6900294D01*
G01X4457343Y6901444D01*
G01X4472837Y6905858D01*
G01X4487100Y6913349D01*
G01X4499528Y6923600D01*
G01X4509596Y6936178D01*
G01X4516876Y6950549D01*
G01X4521063Y6966106D01*
G01X4521977Y6982191D01*
G01X4519580Y6998122D01*
G01X4513974Y7013225D01*
G01X4505397Y7026862D01*
G01X4494210Y7038456D01*
G01X4480888Y7047514D01*
G01X4465994Y7053656D01*
G01X4450158Y7056619D01*
G01X4434051Y7056279D01*
G01X4418355Y7052651D01*
G01X4403733Y7045887D01*
G01X4402948Y7046693D01*
G01X4315250Y7134390D01*
G01X4315250Y7136825D01*
G01X4322601Y7134343D01*
G01X4330314Y7133503D01*
G01X4357838Y7133503D01*
G01X4408063Y7083278D01*
G01X4418636Y7075165D01*
G01X4430950Y7070064D01*
G01X4444163Y7068325D01*
G01X4492245Y7068325D01*
G01X4492245Y7067871D01*
G01X4493998Y7056804D01*
G01X4499085Y7046820D01*
G01X4507008Y7038897D01*
G01X4516992Y7033810D01*
G01X4528059Y7032057D01*
G01X4588059Y7032057D01*
G01X4599126Y7033810D01*
G01X4609110Y7038897D01*
G01X4617033Y7046820D01*
G01X4622120Y7056804D01*
G01X4623873Y7067871D01*
G01X4623873Y7177871D01*
G01X4622120Y7188938D01*
G01X4617033Y7198921D01*
G01X4609110Y7206845D01*
G01X4599126Y7211932D01*
G01X4588059Y7213685D01*
G01X4528059Y7213685D01*
G01X4516992Y7211932D01*
G01X4507008Y7206845D01*
G01X4499085Y7198921D01*
G01X4493998Y7188938D01*
G01X4492245Y7177871D01*
G01X4492245Y7170433D01*
G01X4465311Y7170433D01*
G01X4420129Y7215615D01*
G01X4420129Y7248326D01*
G01X4418376Y7259393D01*
G01X4413289Y7269377D01*
G01X4405366Y7277300D01*
G01X4395382Y7282387D01*
G01X4384315Y7284140D01*
G01X4330314Y7284140D01*
G01X4322601Y7283300D01*
G01X4315250Y7280818D01*
G01X4315250Y7741833D01*
G01X4549827Y7976410D01*
G01X4550081Y7976410D01*
G01X4544785Y7962941D01*
G01X4542537Y7948643D01*
G01X4543443Y7934199D01*
G01X4547461Y7920295D01*
G01X4547461Y7625157D01*
G01X4540303Y7619446D01*
G01X4534828Y7612106D01*
G01X4531393Y7603619D01*
G01X4530222Y7594537D01*
G01X4530222Y7540536D01*
G01X4530246Y7539246D01*
G01X4514309Y7523310D01*
G01X4505621Y7512366D01*
G01X4499641Y7499738D01*
G01X4496680Y7486082D01*
G01X4496894Y7472111D01*
G01X4496894Y7455536D01*
G01X4493427Y7447014D01*
G01X4492245Y7437890D01*
G01X4492245Y7327891D01*
G01X4493998Y7316823D01*
G01X4499085Y7306840D01*
G01X4507008Y7298916D01*
G01X4516992Y7293829D01*
G01X4528059Y7292077D01*
G01X4588059Y7292077D01*
G01X4599126Y7293829D01*
G01X4609110Y7298916D01*
G01X4617033Y7306840D01*
G01X4622120Y7316823D01*
G01X4623873Y7327891D01*
G01X4623873Y7437890D01*
G01X4622733Y7446854D01*
G01X4619386Y7455247D01*
G01X4637208Y7473069D01*
G01X4645104Y7482773D01*
G01X4650862Y7493879D01*
G01X4654242Y7505923D01*
G01X4664896Y7510727D01*
G01X4673436Y7518704D01*
G01X4678953Y7529007D01*
G01X4680860Y7540536D01*
G01X4680860Y7594537D01*
G01X4679580Y7604023D01*
G01X4675834Y7612832D01*
G01X4669889Y7620333D01*
G01X4669889Y7624812D01*
G01X4679085Y7611828D01*
G01X4691109Y7601408D01*
G01X4705269Y7594152D01*
G01X4720749Y7590478D01*
G01X4736660Y7590597D01*
G01X4752084Y7594502D01*
G01X4766134Y7601969D01*
G01X4778001Y7612568D01*
G01X4787001Y7625688D01*
G01X4792618Y7640575D01*
G01X4794526Y7656370D01*
G01X4792618Y7672166D01*
G01X4787001Y7687053D01*
G01X4778001Y7700173D01*
G01X4766134Y7710772D01*
G01X4752084Y7718239D01*
G01X4736660Y7722144D01*
G01X4720749Y7722263D01*
G01X4705269Y7718589D01*
G01X4691109Y7711333D01*
G01X4679085Y7700913D01*
G01X4669889Y7687929D01*
G01X4669889Y7799350D01*
G01X4747031Y7799350D01*
G01X4748958Y7783480D01*
G01X4754627Y7768532D01*
G01X4763708Y7755376D01*
G01X4775674Y7744774D01*
G01X4789830Y7737345D01*
G01X4805352Y7733519D01*
G01X4821338Y7733519D01*
G01X4836860Y7737345D01*
G01X4851016Y7744774D01*
G01X4862982Y7755376D01*
G01X4872063Y7768532D01*
G01X4877732Y7783480D01*
G01X4879659Y7799350D01*
G01X4877732Y7815220D01*
G01X4872063Y7830168D01*
G01X4862982Y7843324D01*
G01X4851016Y7853925D01*
G01X4836860Y7861355D01*
G01X4821338Y7865180D01*
G01X4805352Y7865180D01*
G01X4789830Y7861355D01*
G01X4775674Y7853925D01*
G01X4763708Y7843324D01*
G01X4754627Y7830168D01*
G01X4748958Y7815220D01*
G01X4747031Y7799350D01*
G01X4747031Y7799350D01*
G01X4669889Y7799350D01*
G01X4669889Y7920295D01*
G01X4673963Y7934180D01*
G01X4674929Y7948618D01*
G01X4672740Y7962921D01*
G01X4667501Y7976410D01*
G01X5233937Y7976410D01*
G01X5235529Y7961897D01*
G01X5240258Y7948084D01*
G01X5247895Y7935640D01*
G01X5258070Y7925170D01*
G01X5252007Y7919028D01*
G01X5050253Y7919028D01*
G01X5039017Y7917548D01*
G01X5028546Y7913211D01*
G01X5019555Y7906312D01*
G01X4911866Y7798623D01*
G01X4905577Y7790655D01*
G01X4901309Y7781446D01*
G01X4899297Y7771497D01*
G01X4899650Y7761353D01*
G01X4899650Y7556441D01*
G01X4899856Y7552220D01*
G01X4899856Y7351830D01*
G01X4901335Y7340594D01*
G01X4905672Y7330123D01*
G01X4912572Y7321132D01*
G01X4942630Y7291073D01*
G01X4942630Y7254728D01*
G01X4933826Y7255827D01*
G01X4879825Y7255827D01*
G01X4871049Y7254735D01*
G01X4862807Y7251525D01*
G01X4822454Y7291879D01*
G01X4822454Y7342256D01*
G01X4821479Y7353138D01*
G01X4818585Y7363674D01*
G01X4813865Y7373527D01*
G01X4813865Y7437890D01*
G01X4812112Y7448957D01*
G01X4807025Y7458941D01*
G01X4799102Y7466864D01*
G01X4789118Y7471951D01*
G01X4778051Y7473704D01*
G01X4718051Y7473704D01*
G01X4706984Y7471951D01*
G01X4697000Y7466864D01*
G01X4689077Y7458941D01*
G01X4683990Y7448957D01*
G01X4682237Y7437890D01*
G01X4682237Y7327891D01*
G01X4683448Y7318654D01*
G01X4687001Y7310042D01*
G01X4692655Y7302638D01*
G01X4700026Y7296943D01*
G01X4700026Y7266523D01*
G01X4701203Y7254581D01*
G01X4704686Y7243097D01*
G01X4710343Y7232514D01*
G01X4717956Y7223238D01*
G01X4727509Y7213685D01*
G01X4718051Y7213685D01*
G01X4706984Y7211932D01*
G01X4697000Y7206845D01*
G01X4689077Y7198921D01*
G01X4683990Y7188938D01*
G01X4682237Y7177871D01*
G01X4682237Y7067871D01*
G01X4683990Y7056804D01*
G01X4689077Y7046820D01*
G01X4697000Y7038897D01*
G01X4706984Y7033810D01*
G01X4718051Y7032057D01*
G01X4777784Y7032057D01*
G01X4777716Y7029178D01*
G01X4777716Y6938098D01*
G01X4750232Y6910614D01*
G01X4742619Y6901338D01*
G01X4736962Y6890755D01*
G01X4733479Y6879271D01*
G01X4732302Y6867329D01*
G01X4732302Y6836666D01*
G01X4734209Y6821509D01*
G01X4739809Y6807296D01*
G01X4739809Y6790468D01*
G01X4734209Y6776254D01*
G01X4732302Y6761097D01*
G01X4732302Y6752988D01*
G01X4734209Y6737831D01*
G01X4739809Y6723618D01*
G01X4739809Y6708751D01*
G01X4734004Y6698063D01*
G01X4730426Y6686438D01*
G01X4729218Y6674335D01*
G01X4729218Y6353924D01*
G01X4723565Y6368227D01*
G01X4714769Y6380844D01*
G01X4703303Y6391095D01*
G01X4689784Y6398429D01*
G01X4674940Y6402451D01*
G01X4674940Y6924885D01*
G37*
G36*
G01X5204299Y6779714D02*
G01X5211198Y6788706D01*
G01X5215535Y6799176D01*
G01X5217014Y6810413D01*
G01X5217014Y7152716D01*
G01X5230914Y7152716D01*
G01X5243062Y7141769D01*
G01X5257520Y7134127D01*
G01X5273408Y7130256D01*
G01X5289760Y7130391D01*
G01X5305582Y7134523D01*
G01X5319911Y7142402D01*
G01X5331877Y7153547D01*
G01X5340752Y7167282D01*
G01X5345996Y7182771D01*
G01X5347290Y7199072D01*
G01X5344556Y7215195D01*
G01X5337960Y7230158D01*
G01X5345168Y7235658D01*
G01X5351559Y7242090D01*
G01X5609185Y7242090D01*
G01X5715853Y7135312D01*
G01X5710942Y7135312D01*
G01X5699875Y7133560D01*
G01X5689891Y7128473D01*
G01X5681968Y7120549D01*
G01X5676881Y7110566D01*
G01X5675128Y7099498D01*
G01X5675128Y6939499D01*
G01X5675822Y6932482D01*
G01X5677878Y6925737D01*
G01X5662937Y6920095D01*
G01X5649778Y6911045D01*
G01X5639164Y6899111D01*
G01X5631711Y6884986D01*
G01X5627852Y6869488D01*
G01X5627810Y6853517D01*
G01X5613190Y6854197D01*
G01X5598777Y6851653D01*
G01X5585274Y6846009D01*
G01X5573337Y6837541D01*
G01X5563548Y6826661D01*
G01X5556385Y6813898D01*
G01X5552195Y6799875D01*
G01X5551184Y6785275D01*
G01X5553399Y6770808D01*
G01X5558734Y6757179D01*
G01X5566929Y6745053D01*
G01X5577584Y6735019D01*
G01X5590180Y6727567D01*
G01X5604104Y6723060D01*
G01X5604104Y6632610D01*
G01X5605583Y6621374D01*
G01X5609920Y6610903D01*
G01X5616820Y6601912D01*
G01X5727056Y6491676D01*
G01X5736047Y6484776D01*
G01X5746518Y6480439D01*
G01X5757754Y6478960D01*
G01X5828584Y6478960D01*
G01X5822783Y6471141D01*
G01X5818190Y6462557D01*
G01X5814903Y6453393D01*
G01X5812994Y6443846D01*
G01X5728793Y6443846D01*
G01X5725801Y6459509D01*
G01X5719157Y6474006D01*
G01X5709244Y6486496D01*
G01X5696636Y6496260D01*
G01X5682061Y6502731D01*
G01X5666363Y6505536D01*
G01X5650450Y6504512D01*
G01X5635241Y6499719D01*
G01X5621616Y6491433D01*
G01X5610362Y6480135D01*
G01X5597587Y6490106D01*
G01X5582775Y6496680D01*
G01X5566810Y6499466D01*
G01X5550647Y6498296D01*
G01X5535249Y6493241D01*
G01X5521538Y6484602D01*
G01X5510332Y6472895D01*
G01X5502299Y6458820D01*
G01X5352505Y6608614D01*
G01X5352505Y6933788D01*
G01X5363283Y6945695D01*
G01X5370882Y6959844D01*
G01X5374857Y6975405D01*
G01X5374974Y6991465D01*
G01X5371227Y7007082D01*
G01X5363835Y7021341D01*
G01X5353233Y7033404D01*
G01X5340041Y7042565D01*
G01X5325034Y7048285D01*
G01X5309091Y7050230D01*
G01X5293149Y7048285D01*
G01X5278142Y7042565D01*
G01X5264950Y7033404D01*
G01X5254347Y7021341D01*
G01X5246955Y7007082D01*
G01X5243208Y6991465D01*
G01X5243326Y6975405D01*
G01X5247300Y6959844D01*
G01X5254899Y6945695D01*
G01X5265677Y6933788D01*
G01X5265677Y6590631D01*
G01X5266685Y6581333D01*
G01X5062277Y6581333D01*
G01X5047164Y6579666D01*
G01X5032779Y6574745D01*
G01X5019812Y6566806D01*
G01X5008887Y6556231D01*
G01X5000530Y6543530D01*
G01X4995143Y6529312D01*
G01X4992985Y6514262D01*
G01X4994159Y6499103D01*
G01X4961160Y6499103D01*
G01X4953602Y6506660D01*
G01X4953602Y6529018D01*
G01X5204299Y6779714D01*
G37*
G36*
G01X5386023Y6412275D02*
G01X5649966Y6148332D01*
G01X5657285Y6142449D01*
G01X5665698Y6138278D01*
G01X5674811Y6136013D01*
G01X5662326Y6123528D01*
G01X5655427Y6114537D01*
G01X5651090Y6104066D01*
G01X5649611Y6092830D01*
G01X5649611Y5927840D01*
G01X5478764Y5927840D01*
G01X5227219Y6179385D01*
G01X5225698Y6190534D01*
G01X5221362Y6200917D01*
G01X5214504Y6209838D01*
G01X5012067Y6412275D01*
G01X5386023Y6412275D01*
G37*
G36*
G01X5029458Y7215320D02*
G01X5069053Y7215320D01*
G01X5079896Y7217000D01*
G01X5089722Y7221885D01*
G01X5097607Y7229516D01*
G01X5102812Y7239175D01*
G01X5102812Y7192101D01*
G01X5104786Y7179157D01*
G01X5104786Y7071061D01*
G01X5102469Y7081536D01*
G01X5097153Y7090855D01*
G01X5089316Y7098181D01*
G01X5079661Y7102857D01*
G01X5069053Y7104464D01*
G01X5029458Y7104464D01*
G01X5029458Y7215320D01*
G37*
G36*
G01X6153240Y7215633D02*
G01X6144320Y7204008D01*
G01X6138712Y7190469D01*
G01X6136799Y7175941D01*
G01X6136799Y7132411D01*
G01X6130930Y7129214D01*
G01X6121389Y7133754D01*
G01X6110939Y7135312D01*
G01X6040939Y7135312D01*
G01X6029872Y7133560D01*
G01X6019888Y7128473D01*
G01X6011965Y7120549D01*
G01X6006878Y7110566D01*
G01X6005125Y7099498D01*
G01X6005125Y6939499D01*
G01X6005362Y6935390D01*
G01X5926502Y6935390D01*
G01X5926738Y6939499D01*
G01X5926738Y7099498D01*
G01X5924985Y7110566D01*
G01X5919898Y7120549D01*
G01X5911975Y7128473D01*
G01X5901991Y7133560D01*
G01X5890924Y7135312D01*
G01X5838584Y7135312D01*
G01X5657895Y7316187D01*
G01X5648900Y7323095D01*
G01X5638424Y7327437D01*
G01X5627180Y7328919D01*
G01X5351559Y7328919D01*
G01X5340329Y7339212D01*
G01X5327046Y7346672D01*
G01X5312412Y7350903D01*
G01X5297197Y7351683D01*
G01X5282207Y7348971D01*
G01X5268231Y7342909D01*
G01X5262712Y7353175D01*
G01X5255482Y7362317D01*
G01X5667737Y7362317D01*
G01X5720865Y7309189D01*
G01X5719325Y7293274D01*
G01X5721640Y7277452D01*
G01X5727674Y7262645D01*
G01X5737077Y7249712D01*
G01X5749302Y7239406D01*
G01X5763639Y7232326D01*
G01X5779253Y7228883D01*
G01X5795238Y7229278D01*
G01X5810664Y7233488D01*
G01X5824633Y7241267D01*
G01X5836335Y7252165D01*
G01X5845087Y7265546D01*
G01X5850383Y7280633D01*
G01X5851913Y7296550D01*
G01X5849589Y7312369D01*
G01X5843546Y7327173D01*
G01X5834135Y7340100D01*
G01X5821903Y7350398D01*
G01X5807562Y7357470D01*
G01X5791945Y7360903D01*
G01X5716532Y7436316D01*
G01X5973285Y7436316D01*
G01X5980248Y7429354D01*
G01X5989239Y7422454D01*
G01X5999710Y7418117D01*
G01X6010946Y7416638D01*
G01X6044077Y7416638D01*
G01X6050598Y7402914D01*
G01X6060317Y7391235D01*
G01X6072628Y7382329D01*
G01X6086762Y7376754D01*
G01X6101837Y7374855D01*
G01X6116912Y7376754D01*
G01X6131047Y7382329D01*
G01X6143358Y7391235D01*
G01X6153077Y7402914D01*
G01X6159597Y7416638D01*
G01X6184077Y7416638D01*
G01X6190597Y7402914D01*
G01X6200316Y7391235D01*
G01X6212627Y7382329D01*
G01X6226762Y7376754D01*
G01X6241837Y7374855D01*
G01X6256912Y7376754D01*
G01X6271046Y7382329D01*
G01X6283357Y7391235D01*
G01X6293076Y7402914D01*
G01X6299597Y7416638D01*
G01X6330545Y7416638D01*
G01X6341782Y7418117D01*
G01X6352252Y7422454D01*
G01X6361244Y7429354D01*
G01X6368206Y7436316D01*
G01X6771252Y7436316D01*
G01X6875663Y7331904D01*
G01X6876187Y7317592D01*
G01X6879771Y7303726D01*
G01X6886249Y7290952D01*
G01X6527558Y7290952D01*
G01X6518184Y7291740D01*
G01X6252599Y7291740D01*
G01X6238070Y7289828D01*
G01X6224532Y7284220D01*
G01X6212906Y7275299D01*
G01X6153240Y7215633D01*
G37*
G36*
G01X6249067Y7152689D02*
G01X6275850Y7179472D01*
G01X6514854Y7179472D01*
G01X6524228Y7178684D01*
G01X7111059Y7178684D01*
G01X7111059Y7128772D01*
G01X7047399Y7065112D01*
G01X6941305Y7065112D01*
G01X6930068Y7063633D01*
G01X6919598Y7059296D01*
G01X6910606Y7052397D01*
G01X6687864Y6829654D01*
G01X6673141Y6830837D01*
G01X6658522Y6828732D01*
G01X6644731Y6823442D01*
G01X6632453Y6815232D01*
G01X6622297Y6804507D01*
G01X6614767Y6791801D01*
G01X6610236Y6777743D01*
G01X6608929Y6763030D01*
G01X6610912Y6748394D01*
G01X6453387Y6905919D01*
G01X6460940Y6909792D01*
G01X6470486Y6905246D01*
G01X6480943Y6903685D01*
G01X6550943Y6903685D01*
G01X6562010Y6905438D01*
G01X6571994Y6910525D01*
G01X6579917Y6918448D01*
G01X6585004Y6928432D01*
G01X6586757Y6939499D01*
G01X6586757Y7099498D01*
G01X6585004Y7110566D01*
G01X6579917Y7120549D01*
G01X6571994Y7128473D01*
G01X6562010Y7133560D01*
G01X6550943Y7135312D01*
G01X6480943Y7135312D01*
G01X6470486Y7133752D01*
G01X6460940Y7129205D01*
G01X6451393Y7133752D01*
G01X6440936Y7135312D01*
G01X6370936Y7135312D01*
G01X6360478Y7133752D01*
G01X6350932Y7129205D01*
G01X6341386Y7133752D01*
G01X6330928Y7135312D01*
G01X6260929Y7135312D01*
G01X6254912Y7134803D01*
G01X6249067Y7133291D01*
G01X6249067Y7152689D01*
G37*
G36*
G01X6820302Y6195230D02*
G01X6828968Y6201341D01*
G01X6835464Y6209722D01*
G01X6839222Y6219638D01*
G01X6842183Y6211225D01*
G01X6847132Y6203804D01*
G01X6833240Y6196048D01*
G01X6821595Y6185207D01*
G01X6820302Y6195230D01*
G37*
G36*
G01X7815369Y7586869D02*
G01X7816633Y7575087D01*
G01X7820143Y7563770D01*
G01X7825767Y7553340D01*
G01X7833295Y7544190D01*
G01X7835179Y7542307D01*
G01X7834333Y7529205D01*
G01X7836301Y7516225D01*
G01X7840991Y7503962D01*
G01X7848188Y7492982D01*
G01X7857561Y7483789D01*
G01X7857561Y7483366D01*
G01X7852771Y7478576D01*
G01X7844979Y7469030D01*
G01X7839256Y7458116D01*
G01X7835836Y7446278D01*
G01X7827694Y7440682D01*
G01X7821392Y7433074D01*
G01X7817408Y7424034D01*
G01X7816045Y7414249D01*
G01X7816045Y7337192D01*
G01X7811119Y7323756D01*
G01X7809446Y7309544D01*
G01X7809446Y7245513D01*
G01X7810622Y7233571D01*
G01X7814106Y7222087D01*
G01X7819763Y7211504D01*
G01X7827375Y7202228D01*
G01X7841187Y7188416D01*
G01X7832267Y7184209D01*
G01X7824833Y7177728D01*
G01X7819448Y7169465D01*
G01X7770304Y7218609D01*
G01X7770304Y7241580D01*
G01X7768551Y7252647D01*
G01X7763464Y7262631D01*
G01X7755541Y7270554D01*
G01X7745557Y7275641D01*
G01X7734490Y7277394D01*
G01X7701104Y7277394D01*
G01X7701104Y7329983D01*
G01X7711480Y7329983D01*
G01X7722716Y7331462D01*
G01X7733187Y7335799D01*
G01X7742178Y7342698D01*
G01X7786628Y7387149D01*
G01X7793528Y7396140D01*
G01X7797865Y7406611D01*
G01X7799344Y7417847D01*
G01X7799344Y7571605D01*
G01X7797881Y7582781D01*
G01X7793590Y7593203D01*
G01X7793590Y7603531D01*
G01X7814992Y7624933D01*
G01X7815369Y7586869D01*
G37*
G36*
G01X7834155Y6774258D02*
G01X7834155Y7013097D01*
G01X7842703Y7009606D01*
G01X7851859Y7008415D01*
G01X7858625Y7008415D01*
G01X7858625Y7002274D01*
G01X7850240Y6996723D01*
G01X7843728Y6989059D01*
G01X7839603Y6979887D01*
G01X7838191Y6969930D01*
G01X7838191Y6915930D01*
G01X7839362Y6906848D01*
G01X7842798Y6898359D01*
G01X7848274Y6891019D01*
G01X7855432Y6885308D01*
G01X7855432Y6855473D01*
G01X7847238Y6842939D01*
G01X7842065Y6828886D01*
G01X7840178Y6814031D01*
G01X7841671Y6799131D01*
G01X7846469Y6784947D01*
G01X7854328Y6772200D01*
G01X7864846Y6761541D01*
G01X7877487Y6753514D01*
G01X7891607Y6748529D01*
G01X7906486Y6746838D01*
G01X7921365Y6748529D01*
G01X7935485Y6753514D01*
G01X7948126Y6761541D01*
G01X7958644Y6772200D01*
G01X7966503Y6784947D01*
G01X7971301Y6799131D01*
G01X7972794Y6814031D01*
G01X7970906Y6828886D01*
G01X7965734Y6842939D01*
G01X7957540Y6855473D01*
G01X7957540Y6880403D01*
G01X7967471Y6883163D01*
G01X7976205Y6888638D01*
G01X7983018Y6896374D01*
G01X7987345Y6905729D01*
G01X7988828Y6915930D01*
G01X7988828Y6969930D01*
G01X7987524Y6979507D01*
G01X7983706Y6988387D01*
G01X7977653Y6995923D01*
G01X7969805Y7001565D01*
G01X7960733Y7004902D01*
G01X7960733Y7070336D01*
G01X7959223Y7082661D01*
G01X7954782Y7094257D01*
G01X7947673Y7104438D01*
G01X7947673Y7143815D01*
G01X8006037Y7143815D01*
G01X8006037Y7044229D01*
G01X8007790Y7033162D01*
G01X8012877Y7023178D01*
G01X8020801Y7015255D01*
G01X8030784Y7010168D01*
G01X8041851Y7008415D01*
G01X8101851Y7008415D01*
G01X8104668Y7008526D01*
G01X8104668Y6105803D01*
G01X7963155Y5964290D01*
G01X7963155Y6627277D01*
G01X7961675Y6638513D01*
G01X7957338Y6648984D01*
G01X7950439Y6657975D01*
G01X7834155Y6774258D01*
G37*
G54D10*
G01X4228422Y7759815D02*
G01X4228422Y7269295D01*
G01X4126138Y7865950D01*
G03X4117048Y7884307I-35299J-6051D01*
G01X2857228Y9237096D01*
G01X3995414Y9237096D01*
G01X4816078Y8490878D01*
G03X4840172Y8481562I24094J26498D01*
G01X7788638Y8481562D01*
G03X7812923Y8491053I0J35814D01*
G01X8621588Y9237096D01*
G01X9742590Y9237096D01*
G01X8498240Y7893476D01*
G03X8489213Y7875168I26276J-24335D01*
G01X8229332Y6352871D01*
G03X8229330Y6340828I35303J-6027D01*
G01X8343768Y5669263D01*
G01X8228407Y5669263D01*
G03X8228241Y5673298I-66310J-713D01*
G01X8277680Y5722738D01*
G03X8290395Y5753436I-30699J30698D01*
G01X8290395Y5774932D01*
G03X8277680Y5805630I-43414J-0D01*
G01X8262480Y5820830D01*
G03X8231781Y5833545I-30698J-30698D01*
G01X8106681Y5833545D01*
G01X8087547Y5852680D01*
G03X8056848Y5865396I-30698J-30698D01*
G01X8037400Y5865396D01*
G01X8199907Y6027903D01*
G03X8227096Y6078789I-34026J50886D01*
G01X8227096Y7050430D01*
G01X8292428Y7115762D01*
G03X8301689Y7127645I-43285J43285D01*
G03X8329575Y7162570I-7928J34926D01*
G01X8329575Y7241580D01*
G03X8293761Y7277394I-35814J0D01*
G01X8239761Y7277394D01*
G03X8222051Y7272709I0J-35814D01*
G01X8137665Y7357094D01*
G01X8137665Y7414249D01*
G03X8101851Y7450063I-35814J0D01*
G01X8041851Y7450063D01*
G03X8006037Y7414249I0J-35814D01*
G01X8006037Y7304249D01*
G03X8041851Y7268435I35814J0D01*
G01X8053185Y7268435D01*
G01X8055377Y7266243D01*
G01X7936448Y7266243D01*
G01X7934974Y7267768D01*
G01X7931874Y7270869D01*
G01X7931874Y7274550D01*
G03X7947673Y7304249I-20015J29699D01*
G01X7947673Y7375798D01*
G03X7957269Y7408703I-51618J32905D01*
G01X7957269Y7409935D01*
G01X7962060Y7414726D01*
G03X7979989Y7458011I-43285J43285D01*
G01X7979989Y7502493D01*
G03X7988828Y7526052I-26974J23559D01*
G01X7988828Y7580052D01*
G03X7953014Y7615866I-35814J0D01*
G01X7937516Y7615866D01*
G01X7930860Y8288020D01*
G01X8265772Y8622931D01*
G03X8287412Y8731141I-25252J61318D01*
G03X8179203Y8709501I-46891J-46891D01*
G01X7826110Y8356408D01*
G03X7808184Y8312518I43285J-43285D01*
G01X7811874Y7939843D01*
G01X7773141Y7978577D01*
G03X7742442Y7991293I-30698J-30698D01*
G01X7663235Y7991293D01*
G03X7546793Y7947878I-50128J-43414D01*
G03X7663235Y7904464I66314J0D01*
G01X7724460Y7904464D01*
G01X7748359Y7880565D01*
G01X7748359Y7681093D01*
G01X7719478Y7652213D01*
G03X7710064Y7638121I30698J-30698D01*
G01X7675078Y7673107D01*
G01X7675078Y7745459D01*
G03X7662362Y7776157I-43414J0D01*
G01X7501020Y7937499D01*
G01X7501020Y8014981D01*
G03X7488304Y8045680I-43414J0D01*
G01X7438064Y8095920D01*
G03X7407366Y8108635I-30698J-30698D01*
G01X7389824Y8108635D01*
G03X7273382Y8065378I-50128J-43414D01*
G03X7389619Y8021572I66314J-156D01*
G01X7414192Y7996999D01*
G01X7414192Y7919516D01*
G03X7426908Y7888818I43414J0D01*
G01X7588250Y7727476D01*
G01X7588250Y7655124D01*
G03X7600965Y7624426I43414J0D01*
G01X7619163Y7606228D01*
G03X7616271Y7603968I39377J-53358D01*
G03X7583656Y7624986I-32615J-14796D01*
G01X7529656Y7624986D01*
G03X7493842Y7589172I0J-35814D01*
G01X7493842Y7532606D01*
G01X7493852Y7531749D01*
G01X7375420Y7531749D01*
G03X7335727Y7515307I0J-56134D01*
G01X7111372Y7290952D01*
G01X6997366Y7290952D01*
G03X6998941Y7360821I-55558J36205D01*
G03X6937060Y7393301I-57134J-33664D01*
G01X6819933Y7510428D01*
G03X6789235Y7523144I-30698J-30698D01*
G01X6370088Y7523144D01*
G03X6343985Y7557294I-58251J-17473D01*
G03X6301822Y7565655I-32148J-51624D01*
G03X6301822Y7585685I-59985J10015D01*
G03X6372652Y7645670I10015J59985D01*
G03X6301822Y7705655I-60815J0D01*
G03X6241837Y7776485I-59985J10015D01*
G03X6181852Y7705655I0J-60815D01*
G03X6171837Y7706485I-10015J-59985D01*
G03X6161822Y7705655I0J-60815D01*
G03X6101837Y7776485I-59985J10015D01*
G03X6041852Y7705655I0J-60815D01*
G03X5971022Y7645670I-10015J-59985D01*
G03X6041852Y7585685I60815J0D01*
G03X6041852Y7565655I59985J-10015D01*
G03X5999689Y7557294I-10015J-59985D01*
G03X5973586Y7523144I32148J-51624D01*
G01X5375181Y7523144D01*
G03X5287799Y7534590I-50128J-43414D01*
G03X5266213Y7449145I37255J-54860D01*
G01X5223895Y7449145D01*
G03X5193568Y7436797I0J-43414D01*
G01X5163926Y7407860D01*
G03X5154595Y7400767I21367J-37792D01*
G01X5090334Y7336505D01*
G03X5069053Y7343513I-21280J-28806D01*
G01X5015053Y7343513D01*
G01X5013040Y7343457D01*
G01X4986684Y7369813D01*
G01X4986684Y7422773D01*
G03X5010141Y7414021I23457J27063D01*
G01X5064142Y7414021D01*
G03X5099956Y7449835I0J35814D01*
G01X5099956Y7506401D01*
G03X5096664Y7521400I-35814J0D01*
G03X5099956Y7536398I-32522J14999D01*
G01X5099956Y7592964D01*
G03X5064142Y7628778I-35814J0D01*
G01X5010141Y7628778D01*
G03X4986478Y7619847I0J-35814D01*
G01X4986478Y7750442D01*
G01X5068236Y7832200D01*
G01X5252007Y7832200D01*
G03X5349593Y7829297I50128J43414D01*
G03X5344316Y7926783I-47458J46317D01*
G03X5361350Y8002116I-44065J49556D01*
G03X5295503Y8042484I-61099J-25777D01*
G01X5287465Y8050522D01*
G03X5256767Y8063238I-30698J-30698D01*
G01X4531845Y8063238D01*
G03X4501146Y8050522I0J-43414D01*
G01X4241138Y7790514D01*
G03X4228422Y7759815I30698J-30698D01*
G01X4710768Y8192238D02*
G03X4647118Y8298822I-51863J41326D01*
G01X4584310Y8361630D01*
G03X4553611Y8374345I-30698J-30698D01*
G01X4497143Y8374345D01*
G03X4382028Y8327550I-48829J-44869D01*
G03X4499666Y8287517I66286J1926D01*
G01X4535628Y8287517D01*
G01X4592663Y8230483D01*
G03X4710768Y8192238I66242J3081D01*
G01X5700116Y8119496D02*
G03X5891743Y8119496I95814J0D01*
G03X5700116Y8119496I-95814J0D01*
G01X6500114Y8119496D02*
G03X6691742Y8119496I95814J0D01*
G03X6500114Y8119496I-95814J0D01*
G01X3184598Y3787541D02*
G01X4103995Y4774039D01*
G01X4107735Y4770299D01*
G03X4135061Y4757714I30698J30698D01*
G01X4315662Y4577113D01*
G03X4346361Y4564397I30698J30698D01*
G01X4522052Y4564397D01*
G03X4552751Y4577113I0J43414D01*
G01X4623925Y4648287D01*
G01X4645594Y4648287D01*
G01X4692211Y4601670D01*
G03X4722910Y4588955I30698J30698D01*
G01X4767065Y4588955D01*
G03X4797763Y4601670I0J43414D01*
G01X4844378Y4648285D01*
G01X4864775Y4648285D01*
G03X4895473Y4661001I0J43414D01*
G01X4907318Y4672846D01*
G01X5204296Y4672843D01*
G03X5268609Y4651479I50127J43415D01*
G03X5318106Y4697767I-14186J64779D01*
G01X5354565Y4697767D01*
G01X5417227Y4635104D01*
G03X5447926Y4622389I30698J30698D01*
G01X6752688Y4622389D01*
G03X6783386Y4635104I0J43414D01*
G01X6808944Y4660662D01*
G01X6824644Y4660662D01*
G01X6837880Y4647427D01*
G03X6868578Y4634711I30698J30698D01*
G01X6928888Y4634711D01*
G03X6959586Y4647427I0J43414D01*
G01X6972822Y4660662D01*
G01X7220695Y4660662D01*
G03X7251393Y4673378I0J43414D01*
G01X7618815Y5040800D01*
G03X7631531Y5071499I-30698J30698D01*
G01X7631531Y5160928D01*
G01X7632172Y5161569D01*
G03X7644887Y5192267I-30698J30698D01*
G01X7644887Y5212956D01*
G01X7794404Y5362473D01*
G03X7807119Y5393171I-30698J30698D01*
G01X7807119Y6245288D01*
G01X7815738Y6253907D01*
G03X7828341Y6281483I-30698J30698D01*
G01X7838232Y6291373D01*
G03X7850834Y6318938I-30698J30698D01*
G01X7852386Y6340378D01*
G03X7839936Y6374057I-43301J3134D01*
G01X7839936Y6437259D01*
G01X7842421Y6439743D01*
G03X7855136Y6470441I-30698J30698D01*
G01X7855136Y6517094D01*
G03X7842421Y6547793I-43414J0D01*
G01X7801502Y6588711D01*
G01X7801502Y6684118D01*
G01X7876326Y6609294D01*
G01X7876326Y5950921D01*
G01X7836660Y5911255D01*
G03X7823944Y5880556I30698J-30698D01*
G01X7823944Y5820206D01*
G03X7836660Y5789507I43414J0D01*
G01X7879335Y5746833D01*
G03X7910033Y5734117I30698J30698D01*
G01X7970384Y5734117D01*
G03X8001082Y5746833I0J43414D01*
G01X8032817Y5778567D01*
G01X8038866Y5778567D01*
G01X8058000Y5759433D01*
G03X8088699Y5746717I30698J30698D01*
G01X8178866Y5746717D01*
G01X8166843Y5734694D01*
G03X8095786Y5669263I-4746J-66144D01*
G01X8088847Y5669263D01*
G03X8053033Y5633449I0J-35814D01*
G01X8053033Y5469733D01*
G03X8088847Y5433919I35814J0D01*
G01X8373715Y5433919D01*
G03X8383633Y5435319I0J35814D01*
G01X8488750Y4818453D01*
G03X8497872Y4800034I35305J6016D01*
G01X9442782Y3787541D01*
G01X8261186Y3787541D01*
G01X7803236Y4205172D01*
G03X7779103Y4214524I-24133J-26462D01*
G01X4845352Y4214524D01*
G03X4821174Y4205131I0J-35814D01*
G01X4364841Y3787541D01*
G01X3184598Y3787541D01*
G01X4732884Y5559869D02*
G03X4776169Y5577798I0J61214D01*
G01X4885315Y5686943D01*
G03X4903245Y5730229I-43285J43285D01*
G01X4903244Y5820710D01*
G03X4889348Y5885847I-57181J21852D01*
G01X4868590Y5906605D01*
G01X4868590Y5955157D01*
G03X4851646Y5997434I-61214J0D01*
G01X4851646Y6045374D01*
G03X4930931Y6049378I36963J55057D01*
G01X5163043Y6049378D01*
G01X5328507Y5883913D01*
G03X5331107Y5881111I38700J33299D01*
G01X5611427Y5600791D01*
G03X5614617Y5597862I36101J36101D01*
G03X5579438Y5577837I13651J-64894D01*
G01X5428818Y5577837D01*
G03X5373535Y5600536I-50128J-43414D01*
G03X5322439Y5569542I5155J-66113D01*
G01X5312108Y5579872D01*
G03X5227483Y5566220I-41212J-13652D01*
G01X5227483Y5559687D01*
G03X5234503Y5536017I43414J0D01*
G03X5218382Y5538178I-16121J-59053D01*
G01X4811666Y5538178D01*
G03X4768381Y5520249I0J-61214D01*
G01X4410721Y5162588D01*
G03X4392791Y5119303I43285J-43285D01*
G01X4392791Y5002549D01*
G03X4410720Y4959264I61214J0D01*
G01X4535691Y4834293D01*
G03X4551601Y4822825I43285J43285D01*
G03X4651769Y4851030I38941J53676D01*
G03X4601163Y4941960I-61227J25472D01*
G01X4515219Y5027904D01*
G01X4515219Y5093947D01*
G01X4837022Y5415750D01*
G01X5193026Y5415750D01*
G01X5291881Y5316894D01*
G03X5327498Y5299447I43285J43285D01*
G01X5206637Y5178587D01*
G03X5193922Y5147888I30698J-30698D01*
G01X5193922Y5065517D01*
G03X5206637Y5034819I43414J0D01*
G01X5409850Y4831606D01*
G03X5440549Y4818890I30698J30698D01*
G01X5658986Y4818890D01*
G03X5689684Y4831606I0J43414D01*
G01X5722968Y4864890D01*
G01X5854726Y4864890D01*
G03X5885424Y4877605I0J43414D01*
G01X5926507Y4918688D01*
G01X5950851Y4918688D01*
G01X5989812Y4879728D01*
G03X6020510Y4867012I30698J30698D01*
G01X6602899Y4867012D01*
G03X6633598Y4879728I0J43414D01*
G01X6663085Y4909215D01*
G01X6763057Y4909215D01*
G03X6793756Y4921931I0J43414D01*
G01X6857047Y4985221D01*
G03X6869762Y5015920I-30698J30698D01*
G01X6869762Y5354344D01*
G03X6857047Y5385043I-43414J0D01*
G01X6720760Y5521329D01*
G01X6720760Y5578497D01*
G01X6784420Y5642158D01*
G03X6797136Y5672856I-30698J30698D01*
G01X6797136Y5699818D01*
G03X6889403Y5738679I29251J59514D01*
G03X6838037Y5824615I-63016J20653D01*
G01X6821609Y5841043D01*
G01X6821609Y5865649D01*
G03X6897261Y5847052I50638J42818D01*
G03X6938390Y5913214I-25015J61415D01*
G01X6966131Y5940956D01*
G03X6978847Y5971654I-30698J30698D01*
G01X6978847Y6148687D01*
G01X6987690Y6157530D01*
G01X7115488Y6157530D01*
G03X7129254Y6159770I0J43414D01*
G03X7141823Y6145188I55983J35545D01*
G01X7141823Y5906891D01*
G03X7181439Y5789114I41779J-51498D01*
G03X7228651Y5904057I2163J66279D01*
G01X7228651Y6145188D01*
G03X7238595Y6155939I-43414J50128D01*
G01X7288682Y6105851D01*
G03X7319381Y6093135I30698J30698D01*
G01X7596874Y6093135D01*
G03X7713315Y6136549I50128J43414D01*
G03X7596874Y6179963I-66314J0D01*
G01X7337364Y6179963D01*
G01X7242136Y6275191D01*
G01X7292750Y6275191D01*
G03X7296180Y6275306I0J51054D01*
G03X7331771Y6211270I66113J-5163D01*
G03X7404614Y6219089I30522J58872D01*
G01X7614417Y6219089D01*
G03X7650518Y6234042I0J51054D01*
G01X7756274Y6339799D01*
G03X7758745Y6334680I40248J16276D01*
G01X7754341Y6330276D01*
G03X7741738Y6302700I30698J-30698D01*
G01X7733007Y6293969D01*
G03X7720291Y6263271I30698J-30698D01*
G01X7720291Y5411154D01*
G01X7570775Y5261637D01*
G03X7558059Y5230939I30698J-30698D01*
G01X7558059Y5210250D01*
G01X7557419Y5209609D01*
G03X7544703Y5178911I30698J-30698D01*
G01X7544703Y5089481D01*
G01X7202712Y4747491D01*
G01X6954839Y4747491D01*
G03X6924141Y4734775I0J-43414D01*
G01X6910905Y4721539D01*
G01X6886561Y4721539D01*
G01X6873325Y4734775D01*
G03X6842627Y4747491I-30698J-30698D01*
G01X6790962Y4747491D01*
G03X6760263Y4734775I0J-43414D01*
G01X6734705Y4709217D01*
G01X5465908Y4709217D01*
G01X5403246Y4771879D01*
G03X5372548Y4784595I-30698J-30698D01*
G01X5322861Y4784595D01*
G01X5307199Y4800257D01*
G03X5276500Y4812972I-30698J-30698D01*
G01X4868333Y4812972D01*
G03X4837635Y4800257I0J-43414D01*
G01X4779607Y4742229D01*
G03X4732196Y4750738I-34620J-56560D01*
G03X4691534Y4724916I12791J-65069D01*
G03X4663577Y4735115I-27957J-33214D01*
G01X4605943Y4735115D01*
G03X4575244Y4722400I0J-43414D01*
G01X4504070Y4651225D01*
G01X4364343Y4651225D01*
G01X4183873Y4831696D01*
G03X4179092Y4835827I-30698J-30698D01*
G01X4212963Y5035446D01*
G03X4281237Y5000974I58555J31126D01*
G03X4336583Y5053761I-9719J65598D01*
G01X4368569Y5085746D01*
G03X4386484Y5130344I-43285J43285D01*
G03X4386614Y5134335I-61084J3992D01*
G01X4386614Y5250739D01*
G01X4684338Y5548463D01*
G03X4702748Y5559869I-25252J61318D01*
G01X4732884Y5559869D01*
G01X6013368Y4784366D02*
G03X6149995Y4784366I68313J0D01*
G03X6013368Y4784366I-68313J0D01*
G01X6591370Y4784366D02*
G03X6727997Y4784366I68313J0D01*
G03X6591370Y4784366I-68313J0D01*
G01X7214838Y5534974D02*
G03X7306655Y5473760I66314J0D01*
G01X7567549Y5473760D01*
G03X7573493Y5474049I0J61214D01*
G03X7651888Y5578686I8471J75339D01*
G03X7522319Y5596188I-69924J-29297D01*
G01X7306655Y5596188D01*
G03X7214838Y5534974I-25503J-61214D01*
G01X4674940Y6924885D02*
G03X4678405Y6940255I-32348J15370D01*
G01X4678405Y6994256D01*
G03X4642591Y7030070I-35814J0D01*
G01X4563582Y7030070D01*
G03X4527768Y6994256I0J-35814D01*
G01X4527768Y6940255D01*
G03X4563582Y6904441I35814J0D01*
G01X4572832Y6904441D01*
G01X4572832Y6694551D01*
G03X4448780Y6745992I-77463J-11507D01*
G01X4448780Y6749124D01*
G03X4441274Y6773525I-43414J0D01*
G01X4441274Y6900294D01*
G03X4519580Y6998122I2474J78274D01*
G03X4403733Y7045887I-75833J-19553D01*
G01X4402948Y7046693D01*
G01X4315250Y7134390D01*
G01X4315250Y7136825D01*
G03X4330314Y7133503I15064J32492D01*
G01X4357838Y7133503D01*
G01X4408063Y7083278D01*
G03X4444163Y7068325I36101J36101D01*
G01X4492245Y7068325D01*
G01X4492245Y7067871D01*
G03X4528059Y7032057I35814J0D01*
G01X4588059Y7032057D01*
G03X4623873Y7067871I0J35814D01*
G01X4623873Y7177871D01*
G03X4588059Y7213685I-35814J0D01*
G01X4528059Y7213685D01*
G03X4492245Y7177871I0J-35814D01*
G01X4492245Y7170433D01*
G01X4465311Y7170433D01*
G01X4420129Y7215615D01*
G01X4420129Y7248326D01*
G03X4384315Y7284140I-35814J0D01*
G01X4330314Y7284140D01*
G03X4315250Y7280818I0J-35814D01*
G01X4315250Y7741833D01*
G01X4549827Y7976410D01*
G01X4550081Y7976410D01*
G03X4547461Y7920295I58710J-30860D01*
G01X4547461Y7625157D01*
G03X4530222Y7594537I18575J-30620D01*
G01X4530222Y7540536D01*
G01X4530246Y7539246D01*
G01X4514309Y7523310D01*
G03X4496894Y7472111I43285J-43285D01*
G01X4496894Y7455536D01*
G03X4492245Y7437890I31165J-17646D01*
G01X4492245Y7327891D01*
G03X4528059Y7292077I35814J0D01*
G01X4588059Y7292077D01*
G03X4623873Y7327891I0J35814D01*
G01X4623873Y7437890D01*
G03X4619386Y7455247I-35814J0D01*
G01X4637208Y7473069D01*
G03X4654242Y7505923I-43285J43285D01*
G03X4680860Y7540536I-9196J34613D01*
G01X4680860Y7594537D01*
G03X4669889Y7620333I-35814J0D01*
G01X4669889Y7624812D01*
G03X4794526Y7656370I58323J31558D01*
G03X4669889Y7687929I-66314J0D01*
G01X4669889Y7920295D01*
G03X4667501Y7976410I-61214J25503D01*
G01X5233937Y7976410D01*
G03X5258070Y7925170I66314J-70D01*
G03X5252007Y7919028I44065J-49556D01*
G01X5050253Y7919028D01*
G03X5019555Y7906312I0J-43414D01*
G01X4911866Y7798623D01*
G03X4899650Y7761353I30698J-30698D01*
G01X4899650Y7556441D01*
G03X4899856Y7552220I43414J0D01*
G01X4899856Y7351830D01*
G03X4912572Y7321132I43414J0D01*
G01X4942630Y7291073D01*
G01X4942630Y7254728D01*
G03X4933826Y7255827I-8804J-34715D01*
G01X4879825Y7255827D01*
G03X4862807Y7251525I0J-35814D01*
G01X4822454Y7291879D01*
G01X4822454Y7342256D01*
G03X4813865Y7373527I-61214J0D01*
G01X4813865Y7437890D01*
G03X4778051Y7473704I-35814J0D01*
G01X4718051Y7473704D01*
G03X4682237Y7437890I0J-35814D01*
G01X4682237Y7327891D01*
G03X4700026Y7296943I35814J0D01*
G01X4700026Y7266523D01*
G03X4717956Y7223238I61214J0D01*
G01X4727509Y7213685D01*
G01X4718051Y7213685D01*
G03X4682237Y7177871I0J-35814D01*
G01X4682237Y7067871D01*
G03X4718051Y7032057I35814J0D01*
G01X4777784Y7032057D01*
G03X4777716Y7029178I61146J-2879D01*
G01X4777716Y6938098D01*
G01X4750232Y6910614D01*
G03X4732302Y6867329I43285J-43285D01*
G01X4732302Y6836666D01*
G03X4739809Y6807296I61214J0D01*
G01X4739809Y6790468D01*
G03X4732302Y6761097I53708J-29371D01*
G01X4732302Y6752988D01*
G03X4739809Y6723618I61214J0D01*
G01X4739809Y6708751D01*
G03X4729218Y6674335I50623J-34416D01*
G01X4729218Y6353924D01*
G03X4674940Y6402451I-64083J-17058D01*
G01X4674940Y6924885D01*
G01X4747031Y7799350D02*
G03X4879659Y7799350I66314J0D01*
G03X4747031Y7799350I-66314J0D01*
G01X5204299Y6779714D02*
G03X5217014Y6810413I-30698J30698D01*
G01X5217014Y7152716D01*
G01X5230914Y7152716D01*
G03X5319911Y7142402I50128J43414D01*
G03X5337960Y7230158I-38870J53728D01*
G03X5351559Y7242090I-36528J55347D01*
G01X5609185Y7242090D01*
G01X5715853Y7135312D01*
G01X5710942Y7135312D01*
G03X5675128Y7099498I0J-35814D01*
G01X5675128Y6939499D01*
G03X5677878Y6925737I35814J0D01*
G03X5627810Y6853517I15784J-64408D01*
G03X5552195Y6799875I-10369J-65498D01*
G03X5604104Y6723060I65246J-11856D01*
G01X5604104Y6632610D01*
G03X5616820Y6601912I43414J0D01*
G01X5727056Y6491676D01*
G03X5757754Y6478960I30698J30698D01*
G01X5828584Y6478960D01*
G03X5818190Y6462557I50216J-43312D01*
G03X5812994Y6443846I60609J-26909D01*
G01X5728793Y6443846D01*
G03X5682061Y6502731I-66160J-4519D01*
G03X5610362Y6480135I-19428J-63404D01*
G03X5502299Y6458820I-46883J-46899D01*
G01X5352505Y6608614D01*
G01X5352505Y6933788D01*
G03X5309091Y7050230I-43414J50128D01*
G03X5265677Y6933788I0J-66314D01*
G01X5265677Y6590631D01*
G03X5266685Y6581333I43414J0D01*
G01X5062277Y6581333D01*
G03X5008887Y6556231I0J-69329D01*
G03X4994159Y6499103I53390J-44227D01*
G01X4961160Y6499103D01*
G01X4953602Y6506660D01*
G01X4953602Y6529018D01*
G01X5204299Y6779714D01*
G01X5386023Y6412275D02*
G01X5649966Y6148332D01*
G03X5674811Y6136013I30698J30698D01*
G01X5662326Y6123528D01*
G03X5649611Y6092830I30698J-30698D01*
G01X5649611Y5927840D01*
G01X5478764Y5927840D01*
G01X5227219Y6179385D01*
G03X5214504Y6209838I-43413J-245D01*
G01X5012067Y6412275D01*
G01X5386023Y6412275D01*
G01X5029458Y7215320D02*
G01X5069053Y7215320D01*
G03X5102812Y7239175I0J35814D01*
G01X5102812Y7192101D01*
G03X5104786Y7179157I43414J0D01*
G01X5104786Y7071061D01*
G03X5069053Y7104464I-35733J-2411D01*
G01X5029458Y7104464D01*
G01X5029458Y7215320D01*
G01X6153240Y7215633D02*
G03X6136799Y7175941I39693J-39693D01*
G01X6136799Y7132411D01*
G03X6130930Y7129214I14122J-32912D01*
G03X6110939Y7135312I-19991J-29715D01*
G01X6040939Y7135312D01*
G03X6005125Y7099498I0J-35814D01*
G01X6005125Y6939499D01*
G03X6005362Y6935390I35814J0D01*
G01X5926502Y6935390D01*
G03X5926738Y6939499I-35578J4109D01*
G01X5926738Y7099498D01*
G03X5890924Y7135312I-35814J0D01*
G01X5838584Y7135312D01*
G01X5657895Y7316187D01*
G03X5627180Y7328919I-30714J-30683D01*
G01X5351559Y7328919D01*
G03X5268231Y7342909I-50128J-43414D01*
G03X5255482Y7362317I-60944J-26141D01*
G01X5667737Y7362317D01*
G01X5720865Y7309189D01*
G03X5824633Y7241267I64754J-14298D01*
G03X5791945Y7360903I-39014J53624D01*
G01X5716532Y7436316D01*
G01X5973285Y7436316D01*
G01X5980248Y7429354D01*
G03X6010946Y7416638I30698J30698D01*
G01X6044077Y7416638D01*
G03X6159597Y7416638I57760J19033D01*
G01X6184077Y7416638D01*
G03X6241837Y7374855I57760J19033D01*
G03X6299597Y7416638I0J60815D01*
G01X6330545Y7416638D01*
G03X6361244Y7429354I0J43414D01*
G01X6368206Y7436316D01*
G01X6771252Y7436316D01*
G01X6875663Y7331904D01*
G03X6886249Y7290952I66144J-4747D01*
G01X6527558Y7290952D01*
G03X6518184Y7291740I-9374J-55346D01*
G01X6252599Y7291740D01*
G03X6212906Y7275299I0J-56134D01*
G01X6153240Y7215633D01*
G01X6249067Y7152689D02*
G01X6275850Y7179472D01*
G01X6514854Y7179472D01*
G03X6524228Y7178684I9374J55346D01*
G01X7111059Y7178684D01*
G01X7111059Y7128772D01*
G01X7047399Y7065112D01*
G01X6941305Y7065112D01*
G03X6910606Y7052397I0J-43414D01*
G01X6687864Y6829654D01*
G03X6610912Y6748394I-12638J-65099D01*
G01X6453387Y6905919D01*
G03X6460940Y6909792I-12451J33580D01*
G03X6480943Y6903685I20004J29707D01*
G01X6550943Y6903685D01*
G03X6586757Y6939499I0J35814D01*
G01X6586757Y7099498D01*
G03X6550943Y7135312I-35814J0D01*
G01X6480943Y7135312D01*
G03X6460940Y7129205I0J-35814D01*
G03X6440936Y7135312I-20004J-29707D01*
G01X6370936Y7135312D01*
G03X6350932Y7129205I0J-35814D01*
G03X6330928Y7135312I-20004J-29707D01*
G01X6260929Y7135312D01*
G03X6249067Y7133291I0J-35814D01*
G01X6249067Y7152689D01*
G01X6820302Y6195230D02*
G03X6839222Y6219638I-16080J32001D01*
G03X6847132Y6203804I35000J7593D01*
G03X6821595Y6185207I25147J-61361D01*
G03X6820302Y6195230I-48500J-1162D01*
G01X7815369Y7586869D02*
G03X7833295Y7544190I61211J606D01*
G01X7835179Y7542307D01*
G03X7857561Y7483789I60312J-10471D01*
G01X7857561Y7483366D01*
G01X7852771Y7478576D01*
G03X7835836Y7446278I43285J-43285D01*
G03X7816045Y7414249I16024J-32029D01*
G01X7816045Y7337192D01*
G03X7809446Y7309544I54615J-27647D01*
G01X7809446Y7245513D01*
G03X7827375Y7202228I61214J0D01*
G01X7841187Y7188416D01*
G03X7819448Y7169465I10672J-34187D01*
G01X7770304Y7218609D01*
G01X7770304Y7241580D01*
G03X7734490Y7277394I-35814J0D01*
G01X7701104Y7277394D01*
G01X7701104Y7329983D01*
G01X7711480Y7329983D01*
G03X7742178Y7342698I0J43414D01*
G01X7786628Y7387149D01*
G03X7799344Y7417847I-30698J30698D01*
G01X7799344Y7571605D01*
G03X7793590Y7593203I-43414J0D01*
G01X7793590Y7603531D01*
G01X7814992Y7624933D01*
G01X7815369Y7586869D01*
G01X7834155Y6774258D02*
G01X7834155Y7013097D01*
G03X7851859Y7008415I17704J31132D01*
G01X7858625Y7008415D01*
G01X7858625Y7002274D01*
G03X7838191Y6969930I15380J-32344D01*
G01X7838191Y6915930D01*
G03X7855432Y6885308I35814J0D01*
G01X7855432Y6855473D01*
G03X7906486Y6746838I51054J-42321D01*
G03X7957540Y6855473I0J66314D01*
G01X7957540Y6880403D01*
G03X7988828Y6915930I-4525J35527D01*
G01X7988828Y6969930D01*
G03X7960733Y7004902I-35814J0D01*
G01X7960733Y7070336D01*
G03X7947673Y7104438I-51054J0D01*
G01X7947673Y7143815D01*
G01X8006037Y7143815D01*
G01X8006037Y7044229D01*
G03X8041851Y7008415I35814J0D01*
G01X8101851Y7008415D01*
G03X8104668Y7008526I0J35814D01*
G01X8104668Y6105803D01*
G01X7963155Y5964290D01*
G01X7963155Y6627277D01*
G03X7950439Y6657975I-43414J0D01*
G01X7834155Y6774258D01*
G04 Copper End*

G04 Pad Start*
G54D11*
G01X4906826Y7180508D03*
G01X4906826Y7289525D03*
G54D12*
G01X4605541Y7567537D03*
G01X4714558Y7567537D03*
G54D11*
G01X4357314Y7208822D03*
G01X4357314Y7317839D03*
G54D12*
G01X4603087Y6967256D03*
G01X4712104Y6967256D03*
G01X7913510Y7553052D03*
G01X8022527Y7553052D03*
G54D11*
G01X8266761Y7202075D03*
G01X8266761Y7311092D03*
G54D12*
G01X7913510Y6942930D03*
G01X8022527Y6942930D03*
G54D11*
G01X7707490Y7202075D03*
G01X7707490Y7311092D03*
G54D13*
G01X5745942Y7019499D03*
G01X5855924Y7019499D03*
G01X5965932Y7019499D03*
G01X6075939Y7019499D03*
G01X6185921Y7019499D03*
G01X6295928Y7019499D03*
G01X6405936Y7019499D03*
G01X6515943Y7019499D03*
G01X5635935Y7019499D03*
G54D14*
G01X5515920Y7119498D03*
G54D15*
G01X5515920Y8079491D03*
G01X7065929Y8079491D03*
G54D16*
G01X6975937Y7119498D03*
G54D17*
G01X2395154Y2249692D03*
G54D18*
G01X2225195Y2438451D03*
G54D17*
G01X10450929Y2408555D03*
G54D20*
G01X10284289Y2216859D03*
G54D17*
G01X10386494Y10212632D03*
G54D21*
G01X10219855Y10404328D03*
G54D17*
G01X2200472Y10262680D03*
G54D20*
G01X2367111Y10454376D03*
G54D22*
G01X7881859Y7099229D03*
G01X8071851Y7099229D03*
G01X8071851Y7359249D03*
G01X7976855Y7359249D03*
G01X7881859Y7359249D03*
G01X4558059Y7122871D03*
G01X4748051Y7122871D03*
G01X4748051Y7382890D03*
G01X4653055Y7382890D03*
G01X4558059Y7382890D03*
G54D23*
G01X5037142Y7564681D03*
G01X5037142Y7478118D03*
G01X7556656Y7560889D03*
G01X7556656Y7474326D03*
G01X7556656Y7008251D03*
G01X7556656Y6921688D03*
G01X5042053Y7040367D03*
G01X5042053Y6953804D03*
G01X7556656Y7274861D03*
G01X7556656Y7188298D03*
G01X5042053Y7279416D03*
G01X5042053Y7192853D03*
G54D24*
G01X6889221Y6289731D03*
G01X6839234Y6289731D03*
G01X6789222Y6289731D03*
G01X6739234Y6289731D03*
G01X6689222Y6289731D03*
G01X6639235Y6289731D03*
G01X6589222Y6289731D03*
G01X6539235Y6289731D03*
G01X6489222Y6289731D03*
G01X6439235Y6289731D03*
G01X6389222Y6289731D03*
G01X6339235Y6289731D03*
G01X6289223Y6289731D03*
G01X6239235Y6289731D03*
G01X6189223Y6289731D03*
G01X6139236Y6289731D03*
G01X6089223Y6289731D03*
G01X6039236Y6289731D03*
G01X5989223Y6289731D03*
G01X5939236Y6289731D03*
G01X5889223Y6289731D03*
G01X5839236Y6289731D03*
G01X5789224Y6289731D03*
G01X5739236Y6289731D03*
G54D25*
G01X7058233Y6032226D03*
G01X5570225Y6032226D03*
G54D26*
G01X6802686Y4419317D03*
G01X5938679Y4419317D03*
G54D27*
G01X6802686Y4834302D03*
G01X5938679Y4834302D03*
G04 Pad End*

G04 Via Start*
G54D28*
G01X6171837Y7645670D03*
G01X6171837Y7505671D03*
G01X6101837Y7715670D03*
G01X6031837Y7645670D03*
G01X6031837Y7505671D03*
G01X6311837Y7505671D03*
G01X6311837Y7645670D03*
G01X6241837Y7715670D03*
G01X6241837Y7575670D03*
G01X6101837Y7575670D03*
G01X6101837Y7435671D03*
G01X6241837Y7435671D03*
G54D29*
G01X4744987Y4685669D03*
G01X7339696Y8065221D03*
G01X5254423Y4716258D03*
G01X5300251Y7976340D03*
G01X4590542Y4876502D03*
G01X5356990Y5370568D03*
G01X4271519Y5066572D03*
G01X4659087Y5609781D03*
G54D30*
G01X4722913Y5772995D03*
G54D29*
G01X4408576Y5801373D03*
G01X5378690Y5534423D03*
G01X5628267Y5532968D03*
G01X4913194Y7087343D03*
G01X4608675Y7945798D03*
G01X5325053Y7479730D03*
G01X6941807Y7327157D03*
G01X5991548Y5605786D03*
G01X6695622Y5696922D03*
G01X7281153Y5534974D03*
G54D30*
G01X7581964Y5549388D03*
G54D29*
G01X7940208Y5850381D03*
G01X8240521Y8684249D03*
G01X8162097Y5668550D03*
G01X7613107Y7947878D03*
G01X4728212Y7656370D03*
G01X4813345Y7799350D03*
G01X4658905Y8233564D03*
G01X4448314Y8329476D03*
G01X5563479Y6433235D03*
G01X4665135Y6336866D03*
G01X4888609Y6100431D03*
G01X7396978Y7298131D03*
G01X7658539Y7552871D03*
G01X5662633Y6439326D03*
G01X5878799Y6435648D03*
G01X5970846Y6431807D03*
G01X6051143Y6411131D03*
G01X6218778Y6405406D03*
G01X5309091Y6983916D03*
G01X5281042Y7196130D03*
G01X5207286Y7316768D03*
G01X5617441Y6788019D03*
G01X5693662Y6861329D03*
G01X5795563Y6854651D03*
G01X5785620Y7294891D03*
G01X5876177Y6855596D03*
G01X5302135Y7875614D03*
G01X6872279Y6142444D03*
G01X7362293Y6270143D03*
G01X6966988Y6269561D03*
G01X7055710Y6315723D03*
G01X6675226Y6764556D03*
G01X7443604Y7387567D03*
G01X6826387Y5759332D03*
G01X6412609Y6424828D03*
G01X6751629Y6402678D03*
G01X7452444Y6748393D03*
G01X7906486Y6813152D03*
G01X7185237Y6195315D03*
G01X7183602Y5855393D03*
G01X5040553Y6855566D03*
G01X5301432Y7285504D03*
G01X7211983Y6516520D03*
G01X6872246Y5908467D03*
G01X7647001Y6136549D03*
G01X7552318Y6606826D03*
G01X6792740Y6751102D03*
G01X7323011Y7158302D03*
G01X7421701Y6898265D03*
G01X6652722Y5849295D03*
G01X6120195Y5569239D03*
G04 Via End*

G04 Track Start*
G54D31*
G01X4589163Y4873212D02*
G01X4589163Y4877578D01*
G01X4589162Y4877578D02*
G01X4592801Y4873939D01*
G01X4578976Y4877577D02*
G01X4454005Y5002549D01*
G01X4454005Y5119303D01*
G01X4811666Y5476964D01*
G01X5218382Y5476964D01*
G01X5335166Y5360179D01*
G01X4589163Y4877577D02*
G01X4578976Y4877577D01*
G01X5335166Y5360179D02*
G01X5345353Y5360179D01*
G01X4325400Y5134335D02*
G01X4325400Y5276095D01*
G01X4325284Y5129031D02*
G01X4276128Y5079876D01*
G01X4276128Y5068880D01*
G01X4325400Y5276095D02*
G01X4659087Y5609781D01*
G01X4801023Y6768603D02*
G01X4801023Y6829160D01*
G01X4793516Y6836666D01*
G01X4790432Y5972101D02*
G01X4790432Y6674335D01*
G01X4801023Y6684926D01*
G01X4801023Y6745482D01*
G01X4793516Y6752988D01*
G01X4793516Y6761097D01*
G01X4801023Y6768603D01*
G01X4793516Y6836666D02*
G01X4793516Y6867329D01*
G01X4832809Y6906621D01*
G01X4842030Y5842102D02*
G01X4842031Y5730228D01*
G01X4732884Y5621083D01*
G01X4661577Y5621083D01*
G01X4807376Y5955157D02*
G01X4790432Y5972101D01*
G54D32*
G01X4726187Y5757715D02*
G01X4613768Y5757715D01*
G01X4570110Y5801373D01*
G01X4408576Y5801373D01*
G01X5378690Y5534423D02*
G01X5626812Y5534423D01*
G01X5628267Y5532968D01*
G54D31*
G01X4838930Y6923854D02*
G01X4838930Y7029178D01*
G01X4900218Y7093043D02*
G01X4900218Y7178176D01*
G01X4838930Y7029178D02*
G01X4860031Y7050279D01*
G54D32*
G01X4889336Y4716260D02*
G01X4864775Y4691699D01*
G01X4605943Y4691701D02*
G01X4522052Y4607811D01*
G01X4346361Y4607811D01*
G01X4153175Y4800997D01*
G01X4372377Y6640411D02*
G01X4372377Y6703959D01*
G01X4405366Y6736948D01*
G01X4405366Y6749124D01*
G01X4397860Y6756630D01*
G01X5254422Y4716257D02*
G01X4889336Y4716260D01*
G01X4864775Y4691699D02*
G01X4826396Y4691699D01*
G01X4767065Y4632369D01*
G01X4722910Y4632369D01*
G01X4663577Y4691701D01*
G01X4605943Y4691701D01*
G01X4153175Y4800997D02*
G01X4138433Y4800997D01*
G01X4130494Y4808936D01*
G01X4388845Y6331493D01*
G01X4388834Y6344136D01*
G01X4388834Y6623954D01*
G01X4372377Y6640411D01*
G01X4397860Y6756630D02*
G01X4397860Y6932109D01*
G54D31*
G01X4874751Y7075216D02*
G01X4828851Y7121116D01*
G01X4828851Y7198913D01*
G01X4761240Y7266523D01*
G01X4761240Y7342256D01*
G01X4860031Y7050279D02*
G01X4879379Y7070867D01*
G01X4593923Y7552951D02*
G01X4593923Y7516354D01*
G01X4557594Y7480025D01*
G01X4558108Y7472831D02*
G01X4558108Y7426909D01*
G01X4557784Y7426586D01*
G01X4608675Y7945798D02*
G01X4608675Y7578322D01*
G01X4597882Y7567528D01*
G54D32*
G01X7270422Y5534513D02*
G01X7270883Y5534974D01*
G54D31*
G01X7581964Y5549388D02*
G01X7567549Y5534974D01*
G01X7281153Y5534974D01*
G01X7945362Y5859928D02*
G01X8165053Y6079618D01*
G01X7908505Y7555550D02*
G01X7876580Y7587475D01*
G01X7869395Y8313124D02*
G01X8240521Y8684249D01*
G01X7876580Y7587475D02*
G01X7869395Y8313124D01*
G01X8165882Y6078789D02*
G01X8165882Y7080463D01*
G01X8077786Y7330404D02*
G01X8070146Y7330404D01*
G01X8170559Y7080463D02*
G01X8249143Y7159047D01*
G01X8268304Y7199147D02*
G01X8255975Y7199147D01*
G01X8253509Y7201613D01*
G01X8234954Y7173236D02*
G01X8077786Y7330404D01*
G01X7918775Y7528925D02*
G01X7915864Y7531836D01*
G01X7895491Y7531836D01*
G01X7881666Y7394313D02*
G01X7896055Y7408703D01*
G01X7896055Y7435291D01*
G01X7918775Y7458010D01*
G01X7918775Y7528925D01*
G01X7891690Y7223541D02*
G01X7891690Y7224483D01*
G01X7870660Y7245513D01*
G01X7870660Y7309544D01*
G01X8133154Y7253699D02*
G01X8084483Y7205029D01*
G01X7910202Y7205029D02*
G01X7891690Y7223541D01*
G01X8084483Y7205029D02*
G01X7910202Y7205029D01*
G54D33*
G01X7909679Y6937179D02*
G01X7909679Y7070336D01*
G01X7717585Y7199126D02*
G01X7828912Y7087799D01*
G01X7893308Y7087799D01*
G54D32*
G01X4372249Y7015995D02*
G01X4271836Y7116408D01*
G01X4397860Y6932109D02*
G01X4372370Y6957598D01*
G01X4372249Y6957598D02*
G01X4372249Y7015995D01*
G54D33*
G01X4563131Y7119379D02*
G01X4444163Y7119379D01*
G01X4366671Y7196872D01*
G54D32*
G01X4661301Y8223242D02*
G01X4553611Y8330931D01*
G01X4454653Y8330931D01*
G01X4271836Y7116408D02*
G01X4271836Y7759815D01*
G01X4531845Y8019824D01*
G01X5256767Y8019824D01*
G01X5300251Y7976340D01*
G54D33*
G01X4623886Y6950558D02*
G01X4623886Y6378116D01*
G01X4665135Y6336866D01*
G54D32*
G01X8246981Y5774931D02*
G01X8246981Y5753436D01*
G01X8231781Y5790131D02*
G01X8246981Y5774931D01*
G01X8088699Y5790131D02*
G01X8231781Y5790131D01*
G01X8056848Y5821981D02*
G01X8088699Y5790131D01*
G01X7755930Y7571605D02*
G01X7755930Y7417847D01*
G01X7750176Y7577359D02*
G01X7755930Y7571605D01*
G01X7750176Y7621514D02*
G01X7750176Y7577359D01*
G01X7791773Y7663111D02*
G01X7750176Y7621514D01*
G01X7791773Y7898548D02*
G01X7791773Y7663111D01*
G01X7742442Y7947878D02*
G01X7791773Y7898548D01*
G01X8246981Y5753436D02*
G01X8162097Y5668551D01*
G01X7613107Y7947878D02*
G01X7742442Y7947878D01*
G01X8014834Y5821981D02*
G01X8056848Y5821981D01*
G01X7970384Y5777531D02*
G01X8014834Y5821981D01*
G01X7910033Y5777531D02*
G01X7970384Y5777531D01*
G01X7867358Y5820206D02*
G01X7910033Y5777531D01*
G01X7867358Y5880556D02*
G01X7867358Y5820206D01*
G01X7919740Y5932938D02*
G01X7867358Y5880556D01*
G01X7657690Y7257812D02*
G01X7652890Y7253012D01*
G01X7657690Y7360041D02*
G01X7657690Y7257812D01*
G01X7671046Y7373397D02*
G01X7657690Y7360041D01*
G01X7711480Y7373397D02*
G01X7671046Y7373397D01*
G01X7755930Y7417847D02*
G01X7711480Y7373397D01*
G01X7652890Y7253012D02*
G01X7652890Y7151138D01*
G01X7658539Y7552871D02*
G01X7554489Y7552871D01*
G01X7552601Y7554759D01*
G01X5836583Y6323767D02*
G01X5827024Y6333327D01*
G01X5827024Y6361676D01*
G01X5813668Y6375032D01*
G01X5888367Y6343184D02*
G01X5888367Y6350345D01*
G01X5838280Y6400432D01*
G01X6034408Y6299319D02*
G01X6051423Y6316334D01*
G01X6051423Y6361676D01*
G01X6051143Y6361955D01*
G01X6051143Y6411131D01*
G01X6101435Y6361676D02*
G01X6101435Y6356895D01*
G01X6089314Y6344773D01*
G01X5659673Y6240050D02*
G01X5309091Y6590631D01*
G01X6135543Y6240050D02*
G01X6127023Y6231529D01*
G01X6127023Y6217787D01*
G01X6113667Y6204431D01*
G01X5714792Y6204431D01*
G01X5679173Y6240050D01*
G01X5659673Y6240050D01*
G01X5309091Y6590631D02*
G01X5309091Y6983916D01*
G01X5813668Y6375032D02*
G01X5621683Y6375032D01*
G01X5563479Y6433235D01*
G01X5838280Y6400432D02*
G01X5701528Y6400432D01*
G01X5662633Y6439326D01*
G01X5937645Y6326421D02*
G01X5937645Y6388930D01*
G01X5991599Y6335175D02*
G01X5991599Y6395326D01*
G01X5968638Y6418286D01*
G01X4943177Y6455689D02*
G01X4910188Y6488678D01*
G01X4910188Y6547001D01*
G01X6232517Y6238743D02*
G01X6227023Y6233249D01*
G01X6227023Y6217787D01*
G01X6188267Y6179031D01*
G01X5680664Y6179031D01*
G01X5404006Y6455689D01*
G01X4943177Y6455689D01*
G01X4910188Y6547001D02*
G01X5173600Y6810413D01*
G01X5173600Y7181880D01*
G01X5187850Y7196130D01*
G01X5281042Y7196130D01*
G54D33*
G01X5871848Y5611072D02*
G01X5932302Y5671526D01*
G01X5808211Y5609060D02*
G01X5811485Y5611072D01*
G01X5871848Y5611072D01*
G01X5809472Y5609060D02*
G01X5811485Y5611072D01*
G54D32*
G01X6286901Y6240018D02*
G01X6277036Y6230153D01*
G01X6277036Y6217787D01*
G01X6263680Y6204431D01*
G01X6249588Y6204431D01*
G01X6198788Y6153631D01*
G01X5753825Y6153631D01*
G01X5693025Y6092830D01*
G01X5693025Y5897782D01*
G01X5679669Y5884426D01*
G01X5460781Y5884426D01*
G01X4884788Y6557522D02*
G01X5148200Y6820934D01*
G01X5148200Y7190126D01*
G01X5146226Y7192101D01*
G01X5460781Y5884426D02*
G01X5183806Y6161401D01*
G01X5183806Y6179139D01*
G01X4884788Y6478157D01*
G01X4884788Y6557522D01*
G01X6789235Y7479730D02*
G01X6941807Y7327157D01*
G01X5325053Y7479730D02*
G01X5991268Y7479730D01*
G01X6010946Y7460052D01*
G01X6290945Y7460052D02*
G01X6330545Y7460052D01*
G01X6350223Y7479730D01*
G01X6789235Y7479730D01*
G01X6010946Y7460052D02*
G01X6055343Y7460052D01*
G01X6080946Y7485655D01*
G01X6125343Y7485655D01*
G01X6150946Y7460052D01*
G01X6195343Y7460052D01*
G01X6220945Y7485655D01*
G01X6265342Y7485655D01*
G01X6290945Y7460052D01*
G01X5146226Y7192101D02*
G01X5146226Y7255708D01*
G01X5207286Y7316768D01*
G01X5786467Y7304984D02*
G01X5685719Y7405731D01*
G01X5223895Y7405731D01*
G01X5100361Y7285136D02*
G01X5057807Y7285136D01*
G01X5223895Y7405731D02*
G01X5187363Y7370068D01*
G01X5185293Y7370068D01*
G01X5100361Y7285136D01*
G01X7558408Y7266701D02*
G01X7570778Y7254331D01*
G01X5372548Y4741181D02*
G01X5447926Y4665803D01*
G01X6752688Y4665803D01*
G01X6790962Y4704077D01*
G01X6842627Y4704077D01*
G01X6868578Y4678125D01*
G01X6928888Y4678125D01*
G01X6954839Y4704077D01*
G01X7220695Y4704077D01*
G01X7588117Y5071499D01*
G01X7588117Y5178911D01*
G01X7601473Y5192267D01*
G01X7601473Y5230939D01*
G01X7763705Y5393171D01*
G01X7763705Y6263271D01*
G01X7785039Y6284605D01*
G01X7807533Y6322072D02*
G01X7809085Y6343512D01*
G01X7796522Y6356075D01*
G01X7796522Y6455241D01*
G01X7811722Y6470441D01*
G01X7811722Y6517094D01*
G01X7758088Y6570728D01*
G01X7758088Y6965019D01*
G01X7729166Y6993941D01*
G01X7729166Y7030324D01*
G01X7668046Y7091444D01*
G01X7659462Y7091444D01*
G01X7646869Y7104037D01*
G01X7614271Y7104037D01*
G01X7598103Y7120205D01*
G01X7616259Y7297566D02*
G01X7627386Y7297566D01*
G01X7631664Y7301844D01*
G01X7631664Y7372673D01*
G01X7598103Y7406233D01*
G01X7631664Y7745459D02*
G01X7457606Y7919516D01*
G01X7457606Y8014981D01*
G01X7407366Y8065221D01*
G01X7339696Y8065221D01*
G01X4744987Y4685670D02*
G01X4784445Y4685670D01*
G01X5276500Y4769558D02*
G01X5304878Y4741181D01*
G01X5372548Y4741181D01*
G01X7785039Y6284605D02*
G01X7785039Y6299578D01*
G01X7807533Y6322072D01*
G01X7598103Y7120205D02*
G01X7598103Y7135429D01*
G01X7611256Y7148582D01*
G01X7611256Y7228013D01*
G01X7606456Y7232813D01*
G01X7606456Y7287764D01*
G01X7616259Y7297566D01*
G01X4784445Y4685670D02*
G01X4868333Y4769558D01*
G01X5276500Y4769558D01*
G01X7598103Y7406233D02*
G01X7598103Y7417057D01*
G01X7711839Y7530793D01*
G01X7711839Y7574948D01*
G01X7631664Y7655124D01*
G01X7631664Y7745459D01*
G54D34*
G01X6201707Y6975131D02*
G01X6197461Y6979378D01*
G01X7375420Y7475615D02*
G01X7543007Y7475615D01*
G01X7134624Y7234818D02*
G01X7375420Y7475615D01*
G01X6524228Y7234818D02*
G01X7134624Y7234818D01*
G01X6192933Y7034053D02*
G01X6192933Y7175941D01*
G01X6252599Y7235606D02*
G01X6518184Y7235606D01*
G01X6192933Y7175941D02*
G01X6252599Y7235606D01*
G54D33*
G01X5808211Y5609060D02*
G01X5809472Y5609060D01*
G54D32*
G01X4986044Y7309056D02*
G01X4943270Y7351830D01*
G01X4986044Y7057168D02*
G01X4986044Y7309056D01*
G01X4918489Y6989613D02*
G01X4986044Y7057168D01*
G01X4918489Y6667985D02*
G01X4918489Y6989613D01*
G01X4921637Y6664837D02*
G01X4918489Y6667985D01*
G01X4921637Y6649637D02*
G01X4921637Y6664837D01*
G01X4859388Y6587388D02*
G01X4921637Y6649637D01*
G01X4859388Y6452598D02*
G01X4859388Y6587388D01*
G01X4943270Y7351830D02*
G01X4943270Y7556236D01*
G01X4943064Y7556441D01*
G01X4943064Y7764786D01*
G01X4942564Y7767924D02*
G01X5050253Y7875614D01*
G01X5302135Y7875614D01*
G01X7919740Y6627277D02*
G01X7919740Y5932938D01*
G01X7652890Y7151138D02*
G01X7790741Y7013286D01*
G01X7790741Y6756276D01*
G01X7919740Y6627277D01*
G01X6868211Y6144773D02*
G01X6966988Y6243549D01*
G01X6966988Y6269561D01*
G01X6685731Y6766125D02*
G01X6941305Y7021698D01*
G01X7065381Y7021698D01*
G01X7154473Y7186898D02*
G01X7355142Y7387567D01*
G01X7443604Y7387567D01*
G01X7065381Y7021698D02*
G01X7154473Y7110790D01*
G01X7154473Y7186898D01*
G01X5937645Y6388930D02*
G01X5925517Y6388930D01*
G01X5878799Y6435648D01*
G01X6218778Y6405406D02*
G01X6145166Y6405406D01*
G01X6101435Y6361676D01*
G01X6337080Y6449479D02*
G01X6264185Y6522374D01*
G01X6014352Y6522374D01*
G01X5995753Y6540973D01*
G01X5875520Y6540973D01*
G01X5856921Y6522374D01*
G01X5757754Y6522374D01*
G01X5647518Y6632610D01*
G01X5647518Y6752669D01*
G01X5626296Y6773891D01*
G01X5626296Y6789415D01*
G01X6337920Y6294989D02*
G01X6327023Y6305886D01*
G01X6327023Y6344064D01*
G01X6354602Y6371644D01*
G01X6354602Y6415799D01*
G01X6337080Y6433321D01*
G01X6337080Y6449479D01*
G01X5912558Y6891976D02*
G01X5876177Y6855596D01*
G01X6106785Y6891976D02*
G01X5912558Y6891976D01*
G01X6138282Y6860479D02*
G01X6106785Y6891976D01*
G01X6138282Y6795388D02*
G01X6138282Y6860479D01*
G01X6166353Y6767317D02*
G01X6138282Y6795388D01*
G01X6231445Y6767317D02*
G01X6166353Y6767317D01*
G01X6592088Y6336843D02*
G01X6592088Y6406588D01*
G01X6592131Y6406630D02*
G01X6231445Y6767317D01*
G01X6533393Y6425748D02*
G01X6285549Y6672732D01*
G01X5828638Y6672732D01*
G01X5817890Y6683480D01*
G01X5817890Y6839451D01*
G01X5802689Y6854651D01*
G01X5795563Y6854651D01*
G01X6551219Y6407922D02*
G01X6551219Y6340296D01*
G01X6545758Y6334835D01*
G01X6544321Y6334835D01*
G01X6532068Y6427828D02*
G01X6532068Y6427073D01*
G01X6533393Y6425748D01*
G01X6551219Y6407922D01*
G01X5728619Y6897469D02*
G01X5739184Y6897469D01*
G01X5779902Y6660291D02*
G01X5790650Y6649543D01*
G01X5813149Y6649543D01*
G01X5830718Y6631974D01*
G01X6287629Y6631974D01*
G01X6522584Y6397019D01*
G01X5693692Y6862542D02*
G01X5728619Y6897469D01*
G01X5739184Y6897469D02*
G01X5742263Y6894390D01*
G01X5742263Y6832574D01*
G01X5779902Y6794935D01*
G01X5779902Y6660291D01*
G01X6522584Y6397019D02*
G01X6522584Y6382825D01*
G01X6501435Y6361676D01*
G01X6501435Y6301097D01*
G01X6488209Y6287871D01*
G54D33*
G01X7906486Y6813152D02*
G01X7906486Y6932120D01*
G01X7905394Y6933211D01*
G54D32*
G01X5019905Y6287989D02*
G01X4859388Y6452598D01*
G54D35*
G01X6768526Y6187036D02*
G01X6768172Y6187036D01*
G01X6741522Y6213686D01*
G01X6741522Y6228753D01*
G54D32*
G01X7185237Y6195315D02*
G01X7185237Y5857027D01*
G01X7183602Y5855393D01*
G01X6431822Y6363664D02*
G01X6431822Y6335038D01*
G01X6437251Y6329609D01*
G01X5040553Y6935241D02*
G01X5040553Y6855566D01*
G01X5627180Y7285504D02*
G01X5301432Y7285504D01*
G01X5846761Y7065699D02*
G01X5627180Y7285504D01*
G01X5785620Y7294891D02*
G01X5786467Y7294043D01*
G01X5786467Y7294043D02*
G01X5786467Y7304984D01*
G54D34*
G01X6200147Y6818593D02*
G01X6411547Y6818593D01*
G01X6614544Y6615596D01*
G01X6186203Y6818593D02*
G01X6186203Y6946695D01*
G54D33*
G01X7109625Y6382936D02*
G01X7108152Y6381463D01*
G01X6931410Y6417872D02*
G01X6797045Y6417872D01*
G01X6786294Y6407121D01*
G01X7108152Y6381463D02*
G01X6967819Y6381463D01*
G01X6931410Y6417872D01*
G01X7619933Y6838424D02*
G01X7619933Y6711342D01*
G01X7614417Y6270143D02*
G01X7362293Y6270143D01*
G01X7540018Y7195508D02*
G01X7555263Y7180262D01*
G01X7494416Y6878808D02*
G01X7515059Y6858165D01*
G01X7600192Y6858165D01*
G01X7619933Y6838424D01*
G01X7619933Y6711342D02*
G01X7715248Y6616026D01*
G01X7715248Y6552983D01*
G01X7768882Y6499349D01*
G01X7768882Y6488186D01*
G01X7753682Y6472986D01*
G01X7753682Y6409407D01*
G01X7614417Y6270143D01*
G01X7555263Y7180262D02*
G01X7555263Y7111978D01*
G01X7494416Y7051131D01*
G01X7494416Y6878808D01*
G01X7157774Y6381463D02*
G01X7114071Y6381463D01*
G54D34*
G01X7030385Y6615596D02*
G01X7090974Y6555007D01*
G01X7173496Y6555007D01*
G01X7211983Y6516520D01*
G01X6614544Y6615596D02*
G01X7030385Y6615596D01*
G54D32*
G01X7018300Y6329905D02*
G01X7041529Y6329905D01*
G01X7055710Y6315723D01*
G01X6788135Y6288435D02*
G01X6801434Y6301735D01*
G01X6801434Y6361676D01*
G01X6814790Y6375032D01*
G01X6913666Y6375032D01*
G01X6950075Y6338623D01*
G01X7009582Y6338623D01*
G01X7018300Y6329905D01*
G01X6645102Y4952629D02*
G01X6602899Y4910426D01*
G01X5854726Y4908304D02*
G01X5704985Y4908304D01*
G01X5658986Y4862304D01*
G01X5440549Y4862304D01*
G01X5237336Y5065517D01*
G01X5237336Y5147888D01*
G01X6826348Y5015920D02*
G01X6763057Y4952629D01*
G01X6645102Y4952629D01*
G01X6602899Y4910426D02*
G01X6020510Y4910426D01*
G01X5968834Y4962102D01*
G01X5908524Y4962102D01*
G01X5854726Y4908304D01*
G01X5237336Y5147888D02*
G01X5429840Y5340393D01*
G01X5429840Y5400743D01*
G01X6826348Y5354344D02*
G01X6826348Y5015920D01*
G01X5429840Y5400743D02*
G01X5270897Y5559687D01*
G01X5270897Y5566220D01*
G01X6753722Y5720988D02*
G01X6753722Y5672856D01*
G01X6677346Y5596480D01*
G01X6677346Y5500515D01*
G01X6678762Y5501931D02*
G01X6826348Y5354344D01*
G54D35*
G01X6830694Y5763349D02*
G01X6773095Y5820948D01*
G01X6773095Y6184044D01*
G54D33*
G01X6786294Y6407121D02*
G01X6756072Y6407121D01*
G01X6751629Y6402678D01*
G54D32*
G01X6639006Y6335758D02*
G01X6640192Y6336948D01*
G01X6640192Y6454825D01*
G01X6662021Y6476654D01*
G01X6704150Y6476654D01*
G01X6639006Y6335474D02*
G01X6639006Y6335758D01*
G01X6704150Y6476654D02*
G01X6705300Y6475504D01*
G01X6872246Y5908467D02*
G01X6935433Y5971654D01*
G01X6935433Y6166670D01*
G01X6969708Y6200945D01*
G01X7163159Y6248615D02*
G01X7207315Y6248615D01*
G01X6969708Y6200945D02*
G01X7115488Y6200945D01*
G01X7163159Y6248615D01*
G01X7207315Y6248615D02*
G01X7319381Y6136549D01*
G01X7647001Y6136549D01*
G01X7557478Y6611986D02*
G01X7557476Y6761545D01*
G01X7552319Y6606827D02*
G01X7557478Y6611986D01*
G01X7557476Y6761545D02*
G01X7503696Y6815325D01*
G01X7497314Y6815325D01*
G01X6801972Y6739460D02*
G01X6904169Y6739460D01*
G01X7323011Y7158302D01*
G01X7305640Y6933511D02*
G01X7337675Y6965546D01*
G01X7337675Y7033974D01*
G01X7333674Y7234827D02*
G01X7396978Y7298131D01*
G01X6395001Y6948749D02*
G01X6373002Y6926750D01*
G01X6373002Y6924906D01*
G01X6634393Y6663516D01*
G01X7376312Y7180380D02*
G01X7333674Y7223017D01*
G01X7333674Y7234827D01*
G01X6634393Y6663516D02*
G01X7289564Y6663516D01*
G01X7305640Y6679591D01*
G01X7305640Y6933511D01*
G01X7337675Y7033974D02*
G01X7341482Y7037780D01*
G01X7341482Y7101394D01*
G01X7376312Y7136224D01*
G01X7376312Y7180380D01*
G01X6708451Y6476629D02*
G01X6724453Y6476629D01*
G01X6725410Y6477586D01*
G01X6954450Y6477069D01*
G01X6994782Y6436736D01*
G01X7227213Y6438055D01*
G01X7282526Y6493368D01*
G01X7282526Y6522210D01*
G01X7282162Y6522574D01*
G01X7282162Y6558064D01*
G01X7318396Y6594297D01*
G01X7318741Y6621129D02*
G01X7331040Y6633427D01*
G01X7331040Y6922990D01*
G01X7401712Y6993662D01*
G01X7401712Y7227220D01*
G01X7448487Y7273995D02*
G01X7541806Y7273995D01*
G01X7318396Y6594297D02*
G01X7318396Y6621129D01*
G01X7401712Y7227220D02*
G01X7448487Y7273995D01*
G01X7497314Y6815325D02*
G01X7421701Y6890938D01*
G01X7421701Y6898265D01*
G54D33*
G01X7452444Y6748393D02*
G01X7432798Y6728747D01*
G01X7427275Y6728747D01*
G01X7415740Y6717212D01*
G01X7415740Y6679273D01*
G01X7405794Y6669328D01*
G01X7405794Y6645417D01*
G01X7366907Y6606530D01*
G01X7366907Y6575824D01*
G01X7314303Y6347797D02*
G01X7292750Y6326245D01*
G01X7195611Y6326245D01*
G01X7157774Y6364081D01*
G01X7157774Y6373541D01*
G01X7325366Y6535011D02*
G01X7325366Y6475623D01*
G01X7314303Y6464560D01*
G01X7314303Y6347797D01*
G01X7366907Y6575824D02*
G01X7325366Y6535011D01*
G01X6380416Y5838310D02*
G01X6380416Y6203575D01*
G01X6208432Y5666327D02*
G01X6213632Y5671526D01*
G54D10*
G01X6385584Y6209581D02*
G01X6385585Y6245396D01*
G54D33*
G01X6213632Y5671526D02*
G01X6380416Y5838310D01*
G01X6380416Y6203575D02*
G01X6386422Y6209581D01*
G01X5932302Y5671526D02*
G01X6213632Y5671526D01*
G54D32*
G01X6723548Y6161540D02*
G01X6728136Y6156953D01*
G01X6728136Y6142735D01*
G01X6693616Y6234575D02*
G01X6696634Y6231557D01*
G01X6696634Y6215798D01*
G01X6701222Y6211211D01*
G01X6701222Y6196993D01*
G01X6723548Y6174667D01*
G01X6723548Y6161540D01*
G01X6728136Y6142735D02*
G01X6732795Y6138076D01*
G01X6732795Y5804255D02*
G01X6753741Y5783309D01*
G01X6753741Y5721933D01*
G01X6732795Y6138076D02*
G01X6732795Y5804255D01*
G01X6640554Y5832978D02*
G01X6461282Y5653706D01*
G54D34*
G01X6499707Y5490093D02*
G01X6695622Y5686007D01*
G01X6695622Y5696922D01*
G54D32*
G01X6461282Y5653706D02*
G01X6323944Y5653706D01*
G01X6261719Y5659028D02*
G01X6323944Y5659028D01*
G54D34*
G01X5991548Y5605786D02*
G01X5991548Y5564715D01*
G01X6066171Y5490093D01*
G01X6499707Y5490093D01*
G54D32*
G01X6171930Y5569239D02*
G01X6261719Y5659028D01*
G01X6149975Y5568387D02*
G01X6149975Y5569239D01*
G01X6171930Y5569239D01*
G54D33*
G01X5367208Y5917212D02*
G01X5647528Y5636892D01*
G01X5780379Y5636892D01*
G01X5808211Y5609060D01*
G01X4888608Y6100432D02*
G01X5184191Y6100431D01*
G01X5367208Y5917414D01*
G54D31*
G01X4846063Y5842563D02*
G01X4807376Y5881250D01*
G01X4807376Y5955157D01*
G54D32*
G01X6412609Y6424828D02*
G01X6412609Y6382877D01*
G01X6431822Y6363664D01*
G04 Track End*

M02*

