G04 Layer: TopSilkscreenLayer*
G04 EasyEDA Pro v2.2.47.7, 2026-04-22 18:43:47*
G04 Gerber Generator version 0.3*
G04 Scale: 100 percent, Rotated: No, Reflected: No*
G04 Dimensions in millimeters*
G04 Leading zeros omitted, absolute positions, 4 integers and 5 decimals*
G04 Generated by one-click*
G04 Object Configs: Pad,Via,Track,Text,Image,Dimension,BoardOutline,BoardCutout,CopperFilled,SolidRegion,FPCStiffener,Line,PlaneZone,ComponentProperty,ComponentSilkscreen,TearDrop*
G04 Layer Configs: 1,2,3,4,5,6,7,8,9,10,11,13,14,56*
G04 Copper Areas: 0*
%FSLAX45Y45*%
%MOMM*%
%ADD10C,0.1524*%
%ADD11C,0.254*%
%ADD12C,0.15001*%
%ADD13C,0.2*%
%ADD14C,0.15199*%
%ADD15C,0.3006*%
%ADD16C,0.3*%
G75*


G04 Text Start*
G54D10*
G01X7365533Y4662834D02*
G01X7365533Y4597810D01*
G01X7365533Y4662834D02*
G01X7393473Y4662834D01*
G01X7402617Y4659786D01*
G01X7405665Y4656738D01*
G01X7408967Y4650388D01*
G01X7408967Y4644292D01*
G01X7405665Y4638196D01*
G01X7402617Y4635148D01*
G01X7393473Y4631846D01*
G01X7365533Y4631846D02*
G01X7393473Y4631846D01*
G01X7402617Y4628798D01*
G01X7405665Y4625750D01*
G01X7408967Y4619654D01*
G01X7408967Y4610256D01*
G01X7405665Y4604160D01*
G01X7402617Y4600858D01*
G01X7393473Y4597810D01*
G01X7365533Y4597810D01*
G01X7454433Y4641244D02*
G01X7448337Y4638196D01*
G01X7442241Y4631846D01*
G01X7439193Y4622702D01*
G01X7439193Y4616352D01*
G01X7442241Y4607208D01*
G01X7448337Y4600858D01*
G01X7454433Y4597810D01*
G01X7463831Y4597810D01*
G01X7469927Y4600858D01*
G01X7476277Y4607208D01*
G01X7479325Y4616352D01*
G01X7479325Y4622702D01*
G01X7476277Y4631846D01*
G01X7469927Y4638196D01*
G01X7463831Y4641244D01*
G01X7454433Y4641244D01*
G01X7524791Y4641244D02*
G01X7518695Y4638196D01*
G01X7512599Y4631846D01*
G01X7509551Y4622702D01*
G01X7509551Y4616352D01*
G01X7512599Y4607208D01*
G01X7518695Y4600858D01*
G01X7524791Y4597810D01*
G01X7534189Y4597810D01*
G01X7540285Y4600858D01*
G01X7546635Y4607208D01*
G01X7549683Y4616352D01*
G01X7549683Y4622702D01*
G01X7546635Y4631846D01*
G01X7540285Y4638196D01*
G01X7534189Y4641244D01*
G01X7524791Y4641244D01*
G01X7589053Y4662834D02*
G01X7589053Y4610256D01*
G01X7592101Y4600858D01*
G01X7598451Y4597810D01*
G01X7604547Y4597810D01*
G01X7579909Y4641244D02*
G01X7601499Y4641244D01*
G01X4361843Y6113334D02*
G01X4358795Y6119684D01*
G01X4352445Y6125780D01*
G01X4346349Y6128828D01*
G01X4333903Y6128828D01*
G01X4327807Y6125780D01*
G01X4321457Y6119684D01*
G01X4318409Y6113334D01*
G01X4315361Y6104190D01*
G01X4315361Y6088696D01*
G01X4318409Y6079298D01*
G01X4321457Y6073202D01*
G01X4327807Y6066852D01*
G01X4333903Y6063804D01*
G01X4346349Y6063804D01*
G01X4352445Y6066852D01*
G01X4358795Y6073202D01*
G01X4361843Y6079298D01*
G01X4392069Y6116382D02*
G01X4398165Y6119684D01*
G01X4407309Y6128828D01*
G01X4407309Y6063804D01*
G01X5125535Y6118346D02*
G01X5122487Y6124696D01*
G01X5116137Y6130792D01*
G01X5110041Y6133840D01*
G01X5097595Y6133840D01*
G01X5091499Y6130792D01*
G01X5085149Y6124696D01*
G01X5082101Y6118346D01*
G01X5079053Y6109202D01*
G01X5079053Y6093708D01*
G01X5082101Y6084310D01*
G01X5085149Y6078214D01*
G01X5091499Y6071864D01*
G01X5097595Y6068816D01*
G01X5110041Y6068816D01*
G01X5116137Y6071864D01*
G01X5122487Y6078214D01*
G01X5125535Y6084310D01*
G01X5158809Y6118346D02*
G01X5158809Y6121394D01*
G01X5161857Y6127744D01*
G01X5164905Y6130792D01*
G01X5171001Y6133840D01*
G01X5183447Y6133840D01*
G01X5189797Y6130792D01*
G01X5192845Y6127744D01*
G01X5195893Y6121394D01*
G01X5195893Y6115298D01*
G01X5192845Y6109202D01*
G01X5186495Y6099804D01*
G01X5155761Y6068816D01*
G01X5198941Y6068816D01*
G01X6764700Y4977658D02*
G01X6758350Y4974610D01*
G01X6752254Y4968260D01*
G01X6749206Y4962164D01*
G01X6749206Y4949718D01*
G01X6752254Y4943622D01*
G01X6758350Y4937272D01*
G01X6764700Y4934224D01*
G01X6773844Y4931176D01*
G01X6789338Y4931176D01*
G01X6798736Y4934224D01*
G01X6804832Y4937272D01*
G01X6811182Y4943622D01*
G01X6814230Y4949718D01*
G01X6814230Y4962164D01*
G01X6811182Y4968260D01*
G01X6804832Y4974610D01*
G01X6798736Y4977658D01*
G01X6749206Y5013980D02*
G01X6749206Y5048016D01*
G01X6773844Y5029474D01*
G01X6773844Y5038618D01*
G01X6776892Y5044968D01*
G01X6780194Y5048016D01*
G01X6789338Y5051064D01*
G01X6795688Y5051064D01*
G01X6804832Y5048016D01*
G01X6811182Y5041920D01*
G01X6814230Y5032522D01*
G01X6814230Y5023124D01*
G01X6811182Y5013980D01*
G01X6807880Y5010932D01*
G01X6801784Y5007884D01*
G01X7986143Y5268594D02*
G01X7992493Y5271642D01*
G01X7998589Y5277992D01*
G01X8001637Y5284088D01*
G01X8001637Y5296534D01*
G01X7998589Y5302630D01*
G01X7992493Y5308980D01*
G01X7986143Y5312028D01*
G01X7976999Y5315076D01*
G01X7961505Y5315076D01*
G01X7952107Y5312028D01*
G01X7946011Y5308980D01*
G01X7939661Y5302630D01*
G01X7936613Y5296534D01*
G01X7936613Y5284088D01*
G01X7939661Y5277992D01*
G01X7946011Y5271642D01*
G01X7952107Y5268594D01*
G01X8001637Y5207634D02*
G01X7958457Y5238368D01*
G01X7958457Y5192140D01*
G01X8001637Y5207634D02*
G01X7936613Y5207634D01*
G01X5706546Y5969148D02*
G01X5700196Y5966100D01*
G01X5694100Y5959750D01*
G01X5691052Y5953654D01*
G01X5691052Y5941208D01*
G01X5694100Y5935112D01*
G01X5700196Y5928762D01*
G01X5706546Y5925714D01*
G01X5715690Y5922666D01*
G01X5731184Y5922666D01*
G01X5740582Y5925714D01*
G01X5746678Y5928762D01*
G01X5753028Y5935112D01*
G01X5756076Y5941208D01*
G01X5756076Y5953654D01*
G01X5753028Y5959750D01*
G01X5746678Y5966100D01*
G01X5740582Y5969148D01*
G01X5703498Y5999374D02*
G01X5700196Y6005470D01*
G01X5691052Y6014614D01*
G01X5756076Y6014614D01*
G01X5700196Y6081924D02*
G01X5694100Y6078876D01*
G01X5691052Y6069478D01*
G01X5691052Y6063382D01*
G01X5694100Y6053984D01*
G01X5703498Y6047888D01*
G01X5718738Y6044840D01*
G01X5734232Y6044840D01*
G01X5746678Y6047888D01*
G01X5753028Y6053984D01*
G01X5756076Y6063382D01*
G01X5756076Y6066430D01*
G01X5753028Y6075574D01*
G01X5746678Y6081924D01*
G01X5737534Y6084972D01*
G01X5734232Y6084972D01*
G01X5725088Y6081924D01*
G01X5718738Y6075574D01*
G01X5715690Y6066430D01*
G01X5715690Y6063382D01*
G01X5718738Y6053984D01*
G01X5725088Y6047888D01*
G01X5734232Y6044840D01*
G01X6327613Y5787860D02*
G01X6324565Y5794210D01*
G01X6318215Y5800306D01*
G01X6312119Y5803354D01*
G01X6299673Y5803354D01*
G01X6293577Y5800306D01*
G01X6287227Y5794210D01*
G01X6284179Y5787860D01*
G01X6281131Y5778716D01*
G01X6281131Y5763222D01*
G01X6284179Y5753824D01*
G01X6287227Y5747728D01*
G01X6293577Y5741378D01*
G01X6299673Y5738330D01*
G01X6312119Y5738330D01*
G01X6318215Y5741378D01*
G01X6324565Y5747728D01*
G01X6327613Y5753824D01*
G01X6357839Y5790908D02*
G01X6363935Y5794210D01*
G01X6373079Y5803354D01*
G01X6373079Y5738330D01*
G01X6446485Y5803354D02*
G01X6415497Y5738330D01*
G01X6403305Y5803354D02*
G01X6446485Y5803354D01*
G01X5097638Y4768301D02*
G01X5094590Y4774651D01*
G01X5088240Y4780747D01*
G01X5082144Y4783795D01*
G01X5069698Y4783795D01*
G01X5063602Y4780747D01*
G01X5057252Y4774651D01*
G01X5054204Y4768301D01*
G01X5051156Y4759157D01*
G01X5051156Y4743663D01*
G01X5054204Y4734265D01*
G01X5057252Y4728169D01*
G01X5063602Y4721819D01*
G01X5069698Y4718771D01*
G01X5082144Y4718771D01*
G01X5088240Y4721819D01*
G01X5094590Y4728169D01*
G01X5097638Y4734265D01*
G01X5130912Y4768301D02*
G01X5130912Y4771349D01*
G01X5133960Y4777699D01*
G01X5137008Y4780747D01*
G01X5143104Y4783795D01*
G01X5155550Y4783795D01*
G01X5161900Y4780747D01*
G01X5164948Y4777699D01*
G01X5167996Y4771349D01*
G01X5167996Y4765253D01*
G01X5164948Y4759157D01*
G01X5158598Y4749759D01*
G01X5127864Y4718771D01*
G01X5171044Y4718771D01*
G01X5219812Y4783795D02*
G01X5210414Y4780747D01*
G01X5204318Y4771349D01*
G01X5201270Y4756109D01*
G01X5201270Y4746711D01*
G01X5204318Y4731217D01*
G01X5210414Y4721819D01*
G01X5219812Y4718771D01*
G01X5225908Y4718771D01*
G01X5235306Y4721819D01*
G01X5241402Y4731217D01*
G01X5244450Y4746711D01*
G01X5244450Y4756109D01*
G01X5241402Y4771349D01*
G01X5235306Y4780747D01*
G01X5225908Y4783795D01*
G01X5219812Y4783795D01*
G01X7413149Y4864868D02*
G01X7410101Y4871218D01*
G01X7403751Y4877314D01*
G01X7397655Y4880362D01*
G01X7385209Y4880362D01*
G01X7379113Y4877314D01*
G01X7372763Y4871218D01*
G01X7369715Y4864868D01*
G01X7366667Y4855724D01*
G01X7366667Y4840230D01*
G01X7369715Y4830832D01*
G01X7372763Y4824736D01*
G01X7379113Y4818386D01*
G01X7385209Y4815338D01*
G01X7397655Y4815338D01*
G01X7403751Y4818386D01*
G01X7410101Y4824736D01*
G01X7413149Y4830832D01*
G01X7446423Y4864868D02*
G01X7446423Y4867916D01*
G01X7449471Y4874266D01*
G01X7452519Y4877314D01*
G01X7458615Y4880362D01*
G01X7471061Y4880362D01*
G01X7477411Y4877314D01*
G01X7480459Y4874266D01*
G01X7483507Y4867916D01*
G01X7483507Y4861820D01*
G01X7480459Y4855724D01*
G01X7474109Y4846326D01*
G01X7443375Y4815338D01*
G01X7486555Y4815338D01*
G01X7516781Y4867916D02*
G01X7522877Y4871218D01*
G01X7532021Y4880362D01*
G01X7532021Y4815338D01*
G01X5251484Y8209248D02*
G01X5254532Y8202898D01*
G01X5260882Y8196802D01*
G01X5266978Y8193754D01*
G01X5279424Y8193754D01*
G01X5285520Y8196802D01*
G01X5291870Y8202898D01*
G01X5294918Y8209248D01*
G01X5297966Y8218392D01*
G01X5297966Y8233886D01*
G01X5294918Y8243284D01*
G01X5291870Y8249380D01*
G01X5285520Y8255730D01*
G01X5279424Y8258778D01*
G01X5266978Y8258778D01*
G01X5260882Y8255730D01*
G01X5254532Y8249380D01*
G01X5251484Y8243284D01*
G01X5218210Y8209248D02*
G01X5218210Y8206200D01*
G01X5215162Y8199850D01*
G01X5212114Y8196802D01*
G01X5206018Y8193754D01*
G01X5193572Y8193754D01*
G01X5187222Y8196802D01*
G01X5184174Y8199850D01*
G01X5181126Y8206200D01*
G01X5181126Y8212296D01*
G01X5184174Y8218392D01*
G01X5190524Y8227790D01*
G01X5221258Y8258778D01*
G01X5178078Y8258778D01*
G01X5144804Y8209248D02*
G01X5144804Y8206200D01*
G01X5141756Y8199850D01*
G01X5138708Y8196802D01*
G01X5132612Y8193754D01*
G01X5120166Y8193754D01*
G01X5113816Y8196802D01*
G01X5110768Y8199850D01*
G01X5107720Y8206200D01*
G01X5107720Y8212296D01*
G01X5110768Y8218392D01*
G01X5117118Y8227790D01*
G01X5147852Y8258778D01*
G01X5104672Y8258778D01*
G01X5137279Y8149326D02*
G01X5134231Y8155676D01*
G01X5127881Y8161772D01*
G01X5121785Y8164820D01*
G01X5109339Y8164820D01*
G01X5103243Y8161772D01*
G01X5096893Y8155676D01*
G01X5093845Y8149326D01*
G01X5090797Y8140182D01*
G01X5090797Y8124688D01*
G01X5093845Y8115290D01*
G01X5096893Y8109194D01*
G01X5103243Y8102844D01*
G01X5109339Y8099796D01*
G01X5121785Y8099796D01*
G01X5127881Y8102844D01*
G01X5134231Y8109194D01*
G01X5137279Y8115290D01*
G01X5170553Y8149326D02*
G01X5170553Y8152374D01*
G01X5173601Y8158724D01*
G01X5176649Y8161772D01*
G01X5182745Y8164820D01*
G01X5195191Y8164820D01*
G01X5201541Y8161772D01*
G01X5204589Y8158724D01*
G01X5207637Y8152374D01*
G01X5207637Y8146278D01*
G01X5204589Y8140182D01*
G01X5198239Y8130784D01*
G01X5167505Y8099796D01*
G01X5210685Y8099796D01*
G01X5247007Y8164820D02*
G01X5281043Y8164820D01*
G01X5262501Y8140182D01*
G01X5271645Y8140182D01*
G01X5277995Y8137134D01*
G01X5281043Y8133832D01*
G01X5284091Y8124688D01*
G01X5284091Y8118338D01*
G01X5281043Y8109194D01*
G01X5274947Y8102844D01*
G01X5265549Y8099796D01*
G01X5256151Y8099796D01*
G01X5247007Y8102844D01*
G01X5243959Y8106146D01*
G01X5240911Y8112242D01*
G01X4534032Y8083976D02*
G01X4530984Y8090326D01*
G01X4524634Y8096422D01*
G01X4518538Y8099470D01*
G01X4506092Y8099470D01*
G01X4499996Y8096422D01*
G01X4493646Y8090326D01*
G01X4490598Y8083976D01*
G01X4487550Y8074832D01*
G01X4487550Y8059338D01*
G01X4490598Y8049940D01*
G01X4493646Y8043844D01*
G01X4499996Y8037494D01*
G01X4506092Y8034446D01*
G01X4518538Y8034446D01*
G01X4524634Y8037494D01*
G01X4530984Y8043844D01*
G01X4534032Y8049940D01*
G01X4564258Y8099470D02*
G01X4564258Y8034446D01*
G01X4564258Y8099470D02*
G01X4607438Y8034446D01*
G01X4607438Y8099470D02*
G01X4607438Y8034446D01*
G01X4640712Y8083976D02*
G01X4640712Y8087024D01*
G01X4643760Y8093374D01*
G01X4646808Y8096422D01*
G01X4652904Y8099470D01*
G01X4665350Y8099470D01*
G01X4671700Y8096422D01*
G01X4674748Y8093374D01*
G01X4677796Y8087024D01*
G01X4677796Y8080928D01*
G01X4674748Y8074832D01*
G01X4668398Y8065434D01*
G01X4637664Y8034446D01*
G01X4680844Y8034446D01*
G01X4068735Y4609880D02*
G01X4025225Y4561558D01*
G01X4068735Y4609880D02*
G01X4084779Y4595433D01*
G01X4089724Y4586880D01*
G01X4090175Y4578271D01*
G01X4088191Y4571512D01*
G01X4084526Y4562507D01*
G01X4074159Y4550993D01*
G01X4065417Y4546218D01*
G01X4059072Y4543728D01*
G01X4050293Y4543088D01*
G01X4041270Y4547111D01*
G01X4025225Y4561558D01*
G01X4151034Y4535778D02*
G01X4128005Y4556513D01*
G01X4107214Y4537978D01*
G01X4111519Y4538203D01*
G01X4120354Y4534350D01*
G01X4127338Y4528061D01*
G01X4132282Y4519508D01*
G01X4132564Y4510710D01*
G01X4128710Y4501875D01*
G01X4124461Y4497156D01*
G01X4116078Y4492400D01*
G01X4107298Y4491760D01*
G01X4098275Y4495784D01*
G01X4091291Y4502072D01*
G01X4086535Y4510456D01*
G01X4086479Y4514949D01*
G01X4088293Y4521519D01*
G01X8039859Y4195086D02*
G01X8081655Y4145275D01*
G01X8039859Y4195086D02*
G01X8056398Y4208964D01*
G01X8065556Y4212670D01*
G01X8074144Y4211919D01*
G01X8080561Y4209013D01*
G01X8088968Y4204131D01*
G01X8098927Y4192262D01*
G01X8102439Y4182940D01*
G01X8104022Y4176311D01*
G01X8103434Y4167528D01*
G01X8098194Y4159153D01*
G01X8081655Y4145275D01*
G01X8130571Y4259266D02*
G01X8124318Y4261977D01*
G01X8115159Y4258271D01*
G01X8110490Y4254352D01*
G01X8105249Y4245977D01*
G01X8106621Y4234859D01*
G01X8114082Y4221225D01*
G01X8124041Y4209356D01*
G01X8134376Y4201781D01*
G01X8143128Y4200835D01*
G01X8152286Y4204541D01*
G01X8154621Y4206500D01*
G01X8159667Y4214713D01*
G01X8160449Y4223659D01*
G01X8156907Y4232623D01*
G01X8154784Y4235152D01*
G01X8146571Y4240198D01*
G01X8137625Y4240981D01*
G01X8128661Y4237438D01*
G01X8126327Y4235479D01*
G01X8121086Y4227103D01*
G01X8120498Y4218320D01*
G01X8124041Y4209356D01*
G01X8570194Y9114345D02*
G01X8527535Y9065271D01*
G01X8570194Y9114345D02*
G01X8586489Y9100181D01*
G01X8591582Y9091715D01*
G01X8592183Y9083115D01*
G01X8590318Y9076322D01*
G01X8586811Y9067255D01*
G01X8576646Y9055562D01*
G01X8567988Y9050635D01*
G01X8561688Y9048034D01*
G01X8552922Y9047241D01*
G01X8543829Y9051106D01*
G01X8527535Y9065271D01*
G01X8658375Y9037691D02*
G01X8592328Y9008947D01*
G01X8625786Y9066020D02*
G01X8658375Y9037691D01*
G01X4358013Y8760363D02*
G01X4315353Y8809437D01*
G01X4358013Y8760363D02*
G01X4341719Y8746198D01*
G01X4332626Y8742333D01*
G01X4324026Y8742934D01*
G01X4317560Y8745727D01*
G01X4309069Y8750462D01*
G01X4298904Y8762155D01*
G01X4295230Y8771415D01*
G01X4293531Y8778015D01*
G01X4293966Y8786807D01*
G01X4299059Y8795273D01*
G01X4315353Y8809437D01*
G01X4290919Y8702039D02*
G01X4295821Y8710338D01*
G01X4294122Y8716939D01*
G01X4289956Y8721731D01*
G01X4283656Y8724332D01*
G01X4277056Y8722633D01*
G01X4265663Y8716768D01*
G01X4256404Y8713095D01*
G01X4247804Y8713696D01*
G01X4241504Y8716297D01*
G01X4235338Y8723390D01*
G01X4233640Y8729990D01*
G01X4233774Y8734482D01*
G01X4238867Y8742948D01*
G01X4248260Y8751113D01*
G01X4257160Y8754812D01*
G01X4261627Y8754320D01*
G01X4267927Y8751719D01*
G01X4274092Y8744626D01*
G01X4275791Y8738025D01*
G01X4275190Y8729425D01*
G01X4270264Y8720768D01*
G01X4263062Y8710469D01*
G01X4260269Y8704002D01*
G01X4261968Y8697402D01*
G01X4266134Y8692610D01*
G01X4272434Y8690008D01*
G01X4281526Y8693874D01*
G01X4290919Y8702039D01*
G01X7677271Y6178904D02*
G01X7683621Y6181952D01*
G01X7689717Y6188302D01*
G01X7692765Y6194398D01*
G01X7692765Y6206844D01*
G01X7689717Y6212940D01*
G01X7683621Y6219290D01*
G01X7677271Y6222338D01*
G01X7668127Y6225386D01*
G01X7652633Y6225386D01*
G01X7643235Y6222338D01*
G01X7637139Y6219290D01*
G01X7630789Y6212940D01*
G01X7627741Y6206844D01*
G01X7627741Y6194398D01*
G01X7630789Y6188302D01*
G01X7637139Y6181952D01*
G01X7643235Y6178904D01*
G01X7652633Y6178904D01*
G01X7652633Y6194398D02*
G01X7652633Y6178904D01*
G01X7671175Y6148678D02*
G01X7627741Y6148678D01*
G01X7652633Y6148678D02*
G01X7661777Y6145630D01*
G01X7668127Y6139534D01*
G01X7671175Y6133438D01*
G01X7671175Y6124040D01*
G01X7652633Y6093814D02*
G01X7652633Y6056730D01*
G01X7658729Y6056730D01*
G01X7665079Y6059778D01*
G01X7668127Y6063080D01*
G01X7671175Y6069176D01*
G01X7671175Y6078574D01*
G01X7668127Y6084670D01*
G01X7661777Y6090766D01*
G01X7652633Y6093814D01*
G01X7646283Y6093814D01*
G01X7637139Y6090766D01*
G01X7630789Y6084670D01*
G01X7627741Y6078574D01*
G01X7627741Y6069176D01*
G01X7630789Y6063080D01*
G01X7637139Y6056730D01*
G01X7652633Y6026504D02*
G01X7652633Y5989420D01*
G01X7658729Y5989420D01*
G01X7665079Y5992468D01*
G01X7668127Y5995770D01*
G01X7671175Y6001866D01*
G01X7671175Y6011264D01*
G01X7668127Y6017360D01*
G01X7661777Y6023456D01*
G01X7652633Y6026504D01*
G01X7646283Y6026504D01*
G01X7637139Y6023456D01*
G01X7630789Y6017360D01*
G01X7627741Y6011264D01*
G01X7627741Y6001866D01*
G01X7630789Y5995770D01*
G01X7637139Y5989420D01*
G01X7671175Y5959194D02*
G01X7627741Y5959194D01*
G01X7658729Y5959194D02*
G01X7668127Y5950050D01*
G01X7671175Y5943954D01*
G01X7671175Y5934556D01*
G01X7668127Y5928460D01*
G01X7658729Y5925158D01*
G01X7627741Y5925158D01*
G01X7655681Y5894932D02*
G01X7655681Y5839306D01*
G01X7671175Y5806032D02*
G01X7627741Y5787490D01*
G01X7671175Y5768948D02*
G01X7627741Y5787490D01*
G01X7615549Y5793840D01*
G01X7609199Y5799936D01*
G01X7606151Y5806032D01*
G01X7606151Y5809080D01*
G01X7652633Y5738722D02*
G01X7652633Y5701638D01*
G01X7658729Y5701638D01*
G01X7665079Y5704686D01*
G01X7668127Y5707988D01*
G01X7671175Y5714084D01*
G01X7671175Y5723482D01*
G01X7668127Y5729578D01*
G01X7661777Y5735674D01*
G01X7652633Y5738722D01*
G01X7646283Y5738722D01*
G01X7637139Y5735674D01*
G01X7630789Y5729578D01*
G01X7627741Y5723482D01*
G01X7627741Y5714084D01*
G01X7630789Y5707988D01*
G01X7637139Y5701638D01*
G01X7692765Y5671412D02*
G01X7627741Y5671412D01*
G01X7692765Y5641186D02*
G01X7627741Y5641186D01*
G01X7671175Y5595720D02*
G01X7668127Y5601816D01*
G01X7661777Y5607912D01*
G01X7652633Y5610960D01*
G01X7646283Y5610960D01*
G01X7637139Y5607912D01*
G01X7630789Y5601816D01*
G01X7627741Y5595720D01*
G01X7627741Y5586322D01*
G01X7630789Y5580226D01*
G01X7637139Y5573876D01*
G01X7646283Y5570828D01*
G01X7652633Y5570828D01*
G01X7661777Y5573876D01*
G01X7668127Y5580226D01*
G01X7671175Y5586322D01*
G01X7671175Y5595720D01*
G01X7671175Y5540602D02*
G01X7627741Y5528410D01*
G01X7671175Y5515964D02*
G01X7627741Y5528410D01*
G01X7671175Y5515964D02*
G01X7627741Y5503518D01*
G01X7671175Y5491072D02*
G01X7627741Y5503518D01*
G01X7692765Y5460846D02*
G01X7627741Y5460846D01*
G01X7627741Y5460846D02*
G01X7627741Y5423762D01*
G01X7652633Y5393536D02*
G01X7652633Y5356452D01*
G01X7658729Y5356452D01*
G01X7665079Y5359500D01*
G01X7668127Y5362802D01*
G01X7671175Y5368898D01*
G01X7671175Y5378296D01*
G01X7668127Y5384392D01*
G01X7661777Y5390488D01*
G01X7652633Y5393536D01*
G01X7646283Y5393536D01*
G01X7637139Y5390488D01*
G01X7630789Y5384392D01*
G01X7627741Y5378296D01*
G01X7627741Y5368898D01*
G01X7630789Y5362802D01*
G01X7637139Y5356452D01*
G01X7692765Y5289142D02*
G01X7627741Y5289142D01*
G01X7661777Y5289142D02*
G01X7668127Y5295492D01*
G01X7671175Y5301588D01*
G01X7671175Y5310986D01*
G01X7668127Y5317082D01*
G01X7661777Y5323178D01*
G01X7652633Y5326226D01*
G01X7646283Y5326226D01*
G01X7637139Y5323178D01*
G01X7630789Y5317082D01*
G01X7627741Y5310986D01*
G01X7627741Y5301588D01*
G01X7630789Y5295492D01*
G01X7637139Y5289142D01*
G01X7680319Y5258916D02*
G01X7683621Y5252820D01*
G01X7692765Y5243676D01*
G01X7627741Y5243676D01*
G01X5956977Y5004742D02*
G01X5891953Y5004742D01*
G01X5891953Y5004742D02*
G01X5891953Y4967658D01*
G01X5956977Y4937432D02*
G01X5891953Y4937432D01*
G01X5956977Y4937432D02*
G01X5956977Y4897300D01*
G01X5925989Y4937432D02*
G01X5925989Y4912794D01*
G01X5891953Y4937432D02*
G01X5891953Y4897300D01*
G01X5956977Y4867074D02*
G01X5891953Y4867074D01*
G01X5956977Y4867074D02*
G01X5956977Y4845484D01*
G01X5953929Y4836340D01*
G01X5947833Y4829990D01*
G01X5941483Y4826942D01*
G01X5932339Y4823894D01*
G01X5916845Y4823894D01*
G01X5907447Y4826942D01*
G01X5901351Y4829990D01*
G01X5895001Y4836340D01*
G01X5891953Y4845484D01*
G01X5891953Y4867074D01*
G01X5870363Y4793668D02*
G01X5870363Y4738042D01*
G01X5941483Y4661588D02*
G01X5947833Y4664636D01*
G01X5953929Y4670732D01*
G01X5956977Y4677082D01*
G01X5956977Y4689274D01*
G01X5953929Y4695624D01*
G01X5947833Y4701720D01*
G01X5941483Y4704768D01*
G01X5932339Y4707816D01*
G01X5916845Y4707816D01*
G01X5907447Y4704768D01*
G01X5901351Y4701720D01*
G01X5895001Y4695624D01*
G01X5891953Y4689274D01*
G01X5891953Y4677082D01*
G01X5895001Y4670732D01*
G01X5901351Y4664636D01*
G01X5907447Y4661588D01*
G01X5916845Y4661588D01*
G01X5916845Y4677082D02*
G01X5916845Y4661588D01*
G01X5935387Y4631362D02*
G01X5891953Y4631362D01*
G01X5916845Y4631362D02*
G01X5925989Y4628314D01*
G01X5932339Y4622218D01*
G01X5935387Y4616122D01*
G01X5935387Y4606724D01*
G01X5916845Y4576498D02*
G01X5916845Y4539414D01*
G01X5922941Y4539414D01*
G01X5929291Y4542462D01*
G01X5932339Y4545764D01*
G01X5935387Y4551860D01*
G01X5935387Y4561258D01*
G01X5932339Y4567354D01*
G01X5925989Y4573450D01*
G01X5916845Y4576498D01*
G01X5910495Y4576498D01*
G01X5901351Y4573450D01*
G01X5895001Y4567354D01*
G01X5891953Y4561258D01*
G01X5891953Y4551860D01*
G01X5895001Y4545764D01*
G01X5901351Y4539414D01*
G01X5916845Y4509188D02*
G01X5916845Y4472104D01*
G01X5922941Y4472104D01*
G01X5929291Y4475152D01*
G01X5932339Y4478454D01*
G01X5935387Y4484550D01*
G01X5935387Y4493948D01*
G01X5932339Y4500044D01*
G01X5925989Y4506140D01*
G01X5916845Y4509188D01*
G01X5910495Y4509188D01*
G01X5901351Y4506140D01*
G01X5895001Y4500044D01*
G01X5891953Y4493948D01*
G01X5891953Y4484550D01*
G01X5895001Y4478454D01*
G01X5901351Y4472104D01*
G01X5935387Y4441878D02*
G01X5891953Y4441878D01*
G01X5922941Y4441878D02*
G01X5932339Y4432734D01*
G01X5935387Y4426638D01*
G01X5935387Y4417240D01*
G01X5932339Y4411144D01*
G01X5922941Y4407842D01*
G01X5891953Y4407842D01*
G01X5944531Y4377616D02*
G01X5947833Y4371520D01*
G01X5956977Y4362376D01*
G01X5891953Y4362376D01*
G01X5953298Y5383752D02*
G01X5888274Y5383752D01*
G01X5888274Y5383752D02*
G01X5888274Y5346668D01*
G01X5953298Y5316442D02*
G01X5888274Y5316442D01*
G01X5953298Y5316442D02*
G01X5953298Y5276310D01*
G01X5922310Y5316442D02*
G01X5922310Y5291804D01*
G01X5888274Y5316442D02*
G01X5888274Y5276310D01*
G01X5953298Y5246084D02*
G01X5888274Y5246084D01*
G01X5953298Y5246084D02*
G01X5953298Y5224494D01*
G01X5950250Y5215350D01*
G01X5944154Y5209000D01*
G01X5937804Y5205952D01*
G01X5928660Y5202904D01*
G01X5913166Y5202904D01*
G01X5903768Y5205952D01*
G01X5897672Y5209000D01*
G01X5891322Y5215350D01*
G01X5888274Y5224494D01*
G01X5888274Y5246084D01*
G01X5866684Y5172678D02*
G01X5866684Y5117052D01*
G01X5953298Y5086826D02*
G01X5888274Y5086826D01*
G01X5953298Y5086826D02*
G01X5953298Y5059140D01*
G01X5950250Y5049742D01*
G01X5947202Y5046694D01*
G01X5940852Y5043646D01*
G01X5934756Y5043646D01*
G01X5928660Y5046694D01*
G01X5925612Y5049742D01*
G01X5922310Y5059140D01*
G01X5922310Y5086826D01*
G01X5922310Y5065236D02*
G01X5888274Y5043646D01*
G01X5913166Y5013420D02*
G01X5913166Y4976336D01*
G01X5919262Y4976336D01*
G01X5925612Y4979384D01*
G01X5928660Y4982686D01*
G01X5931708Y4988782D01*
G01X5931708Y4998180D01*
G01X5928660Y5004276D01*
G01X5922310Y5010372D01*
G01X5913166Y5013420D01*
G01X5906816Y5013420D01*
G01X5897672Y5010372D01*
G01X5891322Y5004276D01*
G01X5888274Y4998180D01*
G01X5888274Y4988782D01*
G01X5891322Y4982686D01*
G01X5897672Y4976336D01*
G01X5953298Y4909026D02*
G01X5888274Y4909026D01*
G01X5922310Y4909026D02*
G01X5928660Y4915376D01*
G01X5931708Y4921472D01*
G01X5931708Y4930870D01*
G01X5928660Y4936966D01*
G01X5922310Y4943062D01*
G01X5913166Y4946110D01*
G01X5906816Y4946110D01*
G01X5897672Y4943062D01*
G01X5891322Y4936966D01*
G01X5888274Y4930870D01*
G01X5888274Y4921472D01*
G01X5891322Y4915376D01*
G01X5897672Y4909026D01*
G01X5940852Y4878800D02*
G01X5944154Y4872704D01*
G01X5953298Y4863560D01*
G01X5888274Y4863560D01*
G01X6700557Y6219173D02*
G01X6635533Y6219173D01*
G01X6700557Y6219173D02*
G01X6635533Y6194281D01*
G01X6700557Y6169643D02*
G01X6635533Y6194281D01*
G01X6700557Y6169643D02*
G01X6635533Y6169643D01*
G01X6700557Y6139417D02*
G01X6635533Y6139417D01*
G01X6700557Y6139417D02*
G01X6700557Y6111731D01*
G01X6697509Y6102333D01*
G01X6694461Y6099285D01*
G01X6688111Y6096237D01*
G01X6678967Y6096237D01*
G01X6672871Y6099285D01*
G01X6669569Y6102333D01*
G01X6666521Y6111731D01*
G01X6666521Y6139417D01*
G01X6700557Y6066011D02*
G01X6654075Y6066011D01*
G01X6644931Y6062963D01*
G01X6638581Y6056867D01*
G01X6635533Y6047469D01*
G01X6635533Y6041373D01*
G01X6638581Y6031975D01*
G01X6644931Y6025879D01*
G01X6654075Y6022831D01*
G01X6700557Y6022831D01*
G01X6663473Y5992605D02*
G01X6663473Y5936979D01*
G01X6688111Y5906753D02*
G01X6691413Y5900657D01*
G01X6700557Y5891513D01*
G01X6635533Y5891513D01*
G01X4766506Y5853672D02*
G01X4760410Y5850624D01*
G01X4754060Y5844528D01*
G01X4751012Y5838178D01*
G01X4747964Y5829034D01*
G01X4747964Y5813540D01*
G01X4751012Y5804142D01*
G01X4754060Y5798046D01*
G01X4760410Y5791696D01*
G01X4766506Y5788648D01*
G01X4778952Y5788648D01*
G01X4785048Y5791696D01*
G01X4791398Y5798046D01*
G01X4794446Y5804142D01*
G01X4797494Y5813540D01*
G01X4797494Y5829034D01*
G01X4794446Y5838178D01*
G01X4791398Y5844528D01*
G01X4785048Y5850624D01*
G01X4778952Y5853672D01*
G01X4766506Y5853672D01*
G01X4775904Y5801094D02*
G01X4794446Y5782552D01*
G01X4827720Y5841226D02*
G01X4833816Y5844528D01*
G01X4842960Y5853672D01*
G01X4842960Y5788648D01*
G01X4096885Y4545743D02*
G01X4095071Y4539173D01*
G01X4095352Y4530375D01*
G01X4098032Y4523861D01*
G01X4102788Y4515477D01*
G01X4114302Y4505110D01*
G01X4123326Y4501087D01*
G01X4129895Y4499273D01*
G01X4138863Y4499743D01*
G01X4145207Y4502233D01*
G01X4153535Y4511482D01*
G01X4155349Y4518052D01*
G01X4154879Y4527020D01*
G01X4152389Y4533364D01*
G01X4147444Y4541918D01*
G01X4135930Y4552285D01*
G01X4127095Y4556139D01*
G01X4120336Y4558123D01*
G01X4111557Y4557483D01*
G01X4105213Y4554992D01*
G01X4096885Y4545743D01*
G01X4142247Y4517545D02*
G01X4168433Y4518918D01*
G01X4151399Y4583131D02*
G01X4149134Y4585171D01*
G01X4146454Y4591685D01*
G01X4146229Y4595990D01*
G01X4148043Y4602559D01*
G01X4156371Y4611808D01*
G01X4162885Y4614488D01*
G01X4167189Y4614713D01*
G01X4173948Y4612730D01*
G01X4178478Y4608651D01*
G01X4180969Y4602306D01*
G01X4183704Y4591299D01*
G01X4186167Y4547724D01*
G01X4215061Y4579813D01*
G01X8121997Y4218482D02*
G01X8128250Y4215772D01*
G01X8137001Y4214826D01*
G01X8143825Y4216572D01*
G01X8152789Y4220115D01*
G01X8164658Y4230074D01*
G01X8169898Y4238450D01*
G01X8172609Y4244704D01*
G01X8173391Y4253650D01*
G01X8171808Y4260279D01*
G01X8163808Y4269813D01*
G01X8157554Y4272524D01*
G01X8148608Y4273306D01*
G01X8141979Y4271723D01*
G01X8132821Y4268017D01*
G01X8120952Y4258057D01*
G01X8115906Y4249845D01*
G01X8113001Y4243428D01*
G01X8112413Y4234645D01*
G01X8113996Y4228016D01*
G01X8121997Y4218482D01*
G01X8156233Y4259478D02*
G01X8158518Y4285600D01*
G01X8078731Y4270045D02*
G01X8056853Y4296118D01*
G01X8087645Y4297751D01*
G01X8081767Y4304755D01*
G01X8080021Y4311579D01*
G01X8080591Y4316036D01*
G01X8085636Y4324249D01*
G01X8090501Y4328331D01*
G01X8099465Y4331873D01*
G01X8108247Y4331285D01*
G01X8116623Y4326045D01*
G01X8122664Y4318846D01*
G01X8126207Y4309882D01*
G01X8125637Y4305425D01*
G01X8122926Y4299171D01*
G01X8704797Y8357438D02*
G01X8706496Y8364038D01*
G01X8706062Y8372830D01*
G01X8703269Y8379296D01*
G01X8698368Y8387596D01*
G01X8686674Y8397760D01*
G01X8677582Y8401626D01*
G01X8670981Y8403325D01*
G01X8662023Y8402698D01*
G01X8655723Y8400097D01*
G01X8647558Y8390704D01*
G01X8645859Y8384104D01*
G01X8646485Y8375145D01*
G01X8649086Y8368846D01*
G01X8654180Y8360380D01*
G01X8665873Y8350215D01*
G01X8674774Y8346516D01*
G01X8681566Y8344650D01*
G01X8690332Y8345444D01*
G01X8696632Y8348045D01*
G01X8704797Y8357438D01*
G01X8658951Y8384839D02*
G01X8632792Y8383010D01*
G01X8644474Y8288044D02*
G01X8632049Y8339568D01*
G01X8601721Y8304679D01*
G01X8644474Y8288044D02*
G01X8595400Y8330703D01*
G01X4046685Y8154614D02*
G01X4052985Y8152013D01*
G01X4061752Y8151220D01*
G01X4068544Y8153086D01*
G01X4077444Y8156785D01*
G01X4089138Y8166950D01*
G01X4094231Y8175416D01*
G01X4096832Y8181715D01*
G01X4097458Y8190674D01*
G01X4095759Y8197274D01*
G01X4087594Y8206667D01*
G01X4081294Y8209268D01*
G01X4072336Y8209895D01*
G01X4065736Y8208196D01*
G01X4056643Y8204330D01*
G01X4044950Y8194165D01*
G01X4040048Y8185866D01*
G01X4037256Y8179400D01*
G01X4036821Y8170608D01*
G01X4038520Y8164008D01*
G01X4046685Y8154614D01*
G01X4080201Y8196201D02*
G01X4082030Y8222360D01*
G01X3982196Y8228801D02*
G01X4002526Y8205414D01*
G01X4025420Y8221277D01*
G01X4021120Y8221578D01*
G01X4012821Y8226479D01*
G01X4006655Y8233572D01*
G01X4002790Y8242664D01*
G01X4003583Y8251431D01*
G01X4008485Y8259731D01*
G01X4013277Y8263897D01*
G01X4022178Y8267595D01*
G01X4030969Y8267160D01*
G01X4039435Y8262067D01*
G01X4045601Y8254975D01*
G01X4049300Y8246074D01*
G01X4048807Y8241607D01*
G01X4046206Y8235307D01*
G01X5752911Y4989622D02*
G01X5687887Y4989622D01*
G01X5752911Y4989622D02*
G01X5752911Y4961682D01*
G01X5749863Y4952538D01*
G01X5746815Y4949490D01*
G01X5740465Y4946188D01*
G01X5734369Y4946188D01*
G01X5728273Y4949490D01*
G01X5725225Y4952538D01*
G01X5721923Y4961682D01*
G01X5721923Y4989622D01*
G01X5721923Y4968032D02*
G01X5687887Y4946188D01*
G01X5740465Y4915962D02*
G01X5743767Y4909866D01*
G01X5752911Y4900722D01*
G01X5687887Y4900722D01*
G01X4326220Y5675283D02*
G01X4326220Y5610259D01*
G01X4326220Y5675283D02*
G01X4354160Y5675283D01*
G01X4363304Y5672235D01*
G01X4366352Y5669187D01*
G01X4369654Y5662837D01*
G01X4369654Y5656741D01*
G01X4366352Y5650645D01*
G01X4363304Y5647597D01*
G01X4354160Y5644295D01*
G01X4326220Y5644295D01*
G01X4347810Y5644295D02*
G01X4369654Y5610259D01*
G01X4402928Y5659789D02*
G01X4402928Y5662837D01*
G01X4405976Y5669187D01*
G01X4409024Y5672235D01*
G01X4415120Y5675283D01*
G01X4427566Y5675283D01*
G01X4433916Y5672235D01*
G01X4436964Y5669187D01*
G01X4440012Y5662837D01*
G01X4440012Y5656741D01*
G01X4436964Y5650645D01*
G01X4430614Y5641247D01*
G01X4399880Y5610259D01*
G01X4443060Y5610259D01*
G01X5931739Y5771632D02*
G01X5866715Y5771632D01*
G01X5931739Y5771632D02*
G01X5931739Y5743692D01*
G01X5928691Y5734548D01*
G01X5925643Y5731500D01*
G01X5919293Y5728198D01*
G01X5913197Y5728198D01*
G01X5907101Y5731500D01*
G01X5904053Y5734548D01*
G01X5900751Y5743692D01*
G01X5900751Y5771632D01*
G01X5900751Y5750042D02*
G01X5866715Y5728198D01*
G01X5931739Y5691876D02*
G01X5931739Y5657840D01*
G01X5907101Y5676382D01*
G01X5907101Y5667238D01*
G01X5904053Y5660888D01*
G01X5900751Y5657840D01*
G01X5891607Y5654792D01*
G01X5885257Y5654792D01*
G01X5876113Y5657840D01*
G01X5869763Y5663936D01*
G01X5866715Y5673334D01*
G01X5866715Y5682732D01*
G01X5869763Y5691876D01*
G01X5873065Y5694924D01*
G01X5879161Y5697972D01*
G01X5745543Y5377018D02*
G01X5680519Y5377018D01*
G01X5745543Y5377018D02*
G01X5745543Y5349078D01*
G01X5742495Y5339934D01*
G01X5739447Y5336886D01*
G01X5733097Y5333584D01*
G01X5727001Y5333584D01*
G01X5720905Y5336886D01*
G01X5717857Y5339934D01*
G01X5714555Y5349078D01*
G01X5714555Y5377018D01*
G01X5714555Y5355428D02*
G01X5680519Y5333584D01*
G01X5745543Y5272624D02*
G01X5702363Y5303358D01*
G01X5702363Y5257130D01*
G01X5745543Y5272624D02*
G01X5680519Y5272624D01*
G01X4332282Y5881492D02*
G01X4332282Y5816468D01*
G01X4332282Y5881492D02*
G01X4360222Y5881492D01*
G01X4369366Y5878444D01*
G01X4372414Y5875396D01*
G01X4375716Y5869046D01*
G01X4375716Y5862950D01*
G01X4372414Y5856854D01*
G01X4369366Y5853806D01*
G01X4360222Y5850504D01*
G01X4332282Y5850504D01*
G01X4353872Y5850504D02*
G01X4375716Y5816468D01*
G01X4443026Y5881492D02*
G01X4412038Y5881492D01*
G01X4408990Y5853806D01*
G01X4412038Y5856854D01*
G01X4421182Y5859902D01*
G01X4430580Y5859902D01*
G01X4439978Y5856854D01*
G01X4446074Y5850504D01*
G01X4449122Y5841360D01*
G01X4449122Y5835010D01*
G01X4446074Y5825866D01*
G01X4439978Y5819516D01*
G01X4430580Y5816468D01*
G01X4421182Y5816468D01*
G01X4412038Y5819516D01*
G01X4408990Y5822818D01*
G01X4405942Y5828914D01*
G01X5896871Y5435407D02*
G01X5896871Y5370383D01*
G01X5896871Y5435407D02*
G01X5924811Y5435407D01*
G01X5933955Y5432359D01*
G01X5937003Y5429311D01*
G01X5940305Y5422961D01*
G01X5940305Y5416865D01*
G01X5937003Y5410769D01*
G01X5933955Y5407721D01*
G01X5924811Y5404419D01*
G01X5896871Y5404419D01*
G01X5918461Y5404419D02*
G01X5940305Y5370383D01*
G01X6007615Y5426263D02*
G01X6004567Y5432359D01*
G01X5995169Y5435407D01*
G01X5989073Y5435407D01*
G01X5979675Y5432359D01*
G01X5973579Y5422961D01*
G01X5970531Y5407721D01*
G01X5970531Y5392227D01*
G01X5973579Y5379781D01*
G01X5979675Y5373431D01*
G01X5989073Y5370383D01*
G01X5992121Y5370383D01*
G01X6001265Y5373431D01*
G01X6007615Y5379781D01*
G01X6010663Y5388925D01*
G01X6010663Y5392227D01*
G01X6007615Y5401371D01*
G01X6001265Y5407721D01*
G01X5992121Y5410769D01*
G01X5989073Y5410769D01*
G01X5979675Y5407721D01*
G01X5973579Y5401371D01*
G01X5970531Y5392227D01*
G01X6723715Y5109551D02*
G01X6723715Y5174575D01*
G01X6723715Y5109551D02*
G01X6695775Y5109551D01*
G01X6686631Y5112599D01*
G01X6683583Y5115647D01*
G01X6680281Y5121997D01*
G01X6680281Y5128093D01*
G01X6683583Y5134189D01*
G01X6686631Y5137237D01*
G01X6695775Y5140539D01*
G01X6723715Y5140539D01*
G01X6702125Y5140539D02*
G01X6680281Y5174575D01*
G01X6606875Y5109551D02*
G01X6637863Y5174575D01*
G01X6650055Y5109551D02*
G01X6606875Y5109551D01*
G01X4546768Y4471909D02*
G01X4590277Y4520232D01*
G01X4546768Y4471909D02*
G01X4526004Y4490605D01*
G01X4521249Y4498988D01*
G01X4521023Y4503293D01*
G01X4522818Y4510222D01*
G01X4526897Y4514752D01*
G01X4533430Y4517072D01*
G01X4537735Y4517298D01*
G01X4546739Y4513633D01*
G01X4567503Y4494938D01*
G01X4551458Y4509384D02*
G01X4558000Y4549295D01*
G01X4480702Y4531395D02*
G01X4489537Y4527542D01*
G01X4495881Y4530032D01*
G01X4500130Y4534751D01*
G01X4501944Y4541321D01*
G01X4499454Y4547665D01*
G01X4492244Y4558258D01*
G01X4487469Y4567001D01*
G01X4487018Y4575610D01*
G01X4488832Y4582180D01*
G01X4495120Y4589164D01*
G01X4501465Y4591654D01*
G01X4505939Y4592069D01*
G01X4514963Y4588045D01*
G01X4524212Y4579717D01*
G01X4528968Y4571334D01*
G01X4529023Y4566840D01*
G01X4527209Y4560271D01*
G01X4520921Y4553286D01*
G01X4514577Y4550796D01*
G01X4505968Y4550345D01*
G01X4496774Y4554179D01*
G01X4485674Y4560072D01*
G01X4478916Y4562056D01*
G01X4472572Y4559565D01*
G01X4468323Y4554846D01*
G01X4466509Y4548277D01*
G01X4471453Y4539723D01*
G01X4480702Y4531395D01*
G01X8248623Y4634344D02*
G01X8206827Y4684156D01*
G01X8248623Y4634344D02*
G01X8227220Y4616385D01*
G01X8218256Y4612842D01*
G01X8213962Y4613218D01*
G01X8207351Y4615960D01*
G01X8203432Y4620629D01*
G01X8202043Y4627422D01*
G01X8202419Y4631716D01*
G01X8207301Y4640123D01*
G01X8228705Y4658082D01*
G01X8212166Y4644205D02*
G01X8173554Y4656237D01*
G01X8147576Y4577739D02*
G01X8143870Y4586898D01*
G01X8144816Y4595649D01*
G01X8149861Y4603862D01*
G01X8152196Y4605821D01*
G01X8161355Y4609527D01*
G01X8169943Y4608776D01*
G01X8178319Y4603535D01*
G01X8180278Y4601201D01*
G01X8183984Y4592042D01*
G01X8183233Y4583454D01*
G01X8177992Y4575078D01*
G01X8175658Y4573119D01*
G01X8166694Y4569576D01*
G01X8157911Y4570164D01*
G01X8147576Y4577739D01*
G01X8137616Y4589608D01*
G01X8129992Y4603436D01*
G01X8128815Y4614717D01*
G01X8133861Y4622930D01*
G01X8138725Y4627012D01*
G01X8147689Y4630554D01*
G01X8154106Y4627649D01*
G01X8260921Y8420688D02*
G01X8218261Y8371614D01*
G01X8260921Y8420688D02*
G01X8282008Y8402358D01*
G01X8286909Y8394058D01*
G01X8287210Y8389758D01*
G01X8285536Y8382800D01*
G01X8281536Y8378199D01*
G01X8275045Y8375765D01*
G01X8270745Y8375464D01*
G01X8261678Y8378971D01*
G01X8240591Y8397301D01*
G01X8256885Y8383137D02*
G01X8251042Y8343119D01*
G01X8308348Y8362970D02*
G01X8315115Y8361462D01*
G01X8328015Y8362364D01*
G01X8285355Y8313290D01*
G01X8364820Y8330370D02*
G01X8355728Y8334235D01*
G01X8344962Y8331142D01*
G01X8332663Y8321640D01*
G01X8326497Y8314547D01*
G01X8318633Y8300854D01*
G01X8317068Y8289762D01*
G01X8322161Y8281296D01*
G01X8326762Y8277296D01*
G01X8335854Y8273431D01*
G01X8346620Y8276524D01*
G01X8359086Y8286218D01*
G01X8365251Y8293311D01*
G01X8372949Y8306812D01*
G01X8374514Y8317904D01*
G01X8369421Y8326370D01*
G01X8364820Y8330370D01*
G01X4515072Y8160401D02*
G01X4472413Y8209475D01*
G01X4515072Y8160401D02*
G01X4493986Y8142070D01*
G01X4485085Y8138372D01*
G01X4480785Y8138672D01*
G01X4474127Y8141299D01*
G01X4470128Y8145899D01*
G01X4468620Y8152666D01*
G01X4468921Y8156966D01*
G01X4473656Y8165457D01*
G01X4494742Y8183788D01*
G01X4478448Y8169623D02*
G01X4439633Y8180980D01*
G01X4451315Y8121469D02*
G01X4448881Y8114977D01*
G01X4447979Y8102077D01*
G01X4405319Y8151151D01*
G01X4417001Y8091640D02*
G01X4414567Y8085149D01*
G01X4413665Y8072249D01*
G01X4371005Y8121323D01*
G01X6105013Y5876553D02*
G01X6039989Y5876553D01*
G01X6105013Y5876553D02*
G01X6105013Y5848613D01*
G01X6101965Y5839469D01*
G01X6098917Y5836421D01*
G01X6092567Y5833119D01*
G01X6086471Y5833119D01*
G01X6080375Y5836421D01*
G01X6077327Y5839469D01*
G01X6074025Y5848613D01*
G01X6074025Y5876553D01*
G01X6074025Y5854963D02*
G01X6039989Y5833119D01*
G01X6092567Y5802893D02*
G01X6095869Y5796797D01*
G01X6105013Y5787653D01*
G01X6039989Y5787653D01*
G01X6089519Y5754379D02*
G01X6092567Y5754379D01*
G01X6098917Y5751331D01*
G01X6101965Y5748283D01*
G01X6105013Y5742187D01*
G01X6105013Y5729741D01*
G01X6101965Y5723391D01*
G01X6098917Y5720343D01*
G01X6092567Y5717295D01*
G01X6086471Y5717295D01*
G01X6080375Y5720343D01*
G01X6070977Y5726693D01*
G01X6039989Y5757427D01*
G01X6039989Y5714247D01*
G01X6862837Y6206998D02*
G01X6797813Y6206998D01*
G01X6862837Y6206998D02*
G01X6862837Y6179058D01*
G01X6859789Y6169914D01*
G01X6856741Y6166866D01*
G01X6850391Y6163564D01*
G01X6844295Y6163564D01*
G01X6838199Y6166866D01*
G01X6835151Y6169914D01*
G01X6831849Y6179058D01*
G01X6831849Y6206998D01*
G01X6831849Y6185408D02*
G01X6797813Y6163564D01*
G01X6850391Y6133338D02*
G01X6853693Y6127242D01*
G01X6862837Y6118098D01*
G01X6797813Y6118098D01*
G01X6862837Y6081776D02*
G01X6862837Y6047740D01*
G01X6838199Y6066282D01*
G01X6838199Y6057138D01*
G01X6835151Y6050788D01*
G01X6831849Y6047740D01*
G01X6822705Y6044692D01*
G01X6816355Y6044692D01*
G01X6807211Y6047740D01*
G01X6800861Y6053836D01*
G01X6797813Y6063234D01*
G01X6797813Y6072632D01*
G01X6800861Y6081776D01*
G01X6804163Y6084824D01*
G01X6810259Y6087872D01*
G01X7565269Y5514197D02*
G01X7565269Y5579221D01*
G01X7565269Y5514197D02*
G01X7537329Y5514197D01*
G01X7528185Y5517245D01*
G01X7525137Y5520293D01*
G01X7521835Y5526643D01*
G01X7521835Y5532739D01*
G01X7525137Y5538835D01*
G01X7528185Y5541883D01*
G01X7537329Y5545185D01*
G01X7565269Y5545185D01*
G01X7543679Y5545185D02*
G01X7521835Y5579221D01*
G01X7488561Y5529691D02*
G01X7488561Y5526643D01*
G01X7485513Y5520293D01*
G01X7482465Y5517245D01*
G01X7476369Y5514197D01*
G01X7463923Y5514197D01*
G01X7457573Y5517245D01*
G01X7454525Y5520293D01*
G01X7451477Y5526643D01*
G01X7451477Y5532739D01*
G01X7454525Y5538835D01*
G01X7460875Y5548233D01*
G01X7491609Y5579221D01*
G01X7448429Y5579221D01*
G01X7418203Y5526643D02*
G01X7412107Y5523341D01*
G01X7402963Y5514197D01*
G01X7402963Y5579221D01*
G01X5007862Y4635867D02*
G01X5007862Y4570843D01*
G01X5007862Y4635867D02*
G01X5035802Y4635867D01*
G01X5044946Y4632819D01*
G01X5047994Y4629771D01*
G01X5051296Y4623421D01*
G01X5051296Y4617325D01*
G01X5047994Y4611229D01*
G01X5044946Y4608181D01*
G01X5035802Y4604879D01*
G01X5007862Y4604879D01*
G01X5029452Y4604879D02*
G01X5051296Y4570843D01*
G01X5081522Y4595735D02*
G01X5118606Y4595735D01*
G01X5118606Y4601831D01*
G01X5115558Y4608181D01*
G01X5112256Y4611229D01*
G01X5106160Y4614277D01*
G01X5096762Y4614277D01*
G01X5090666Y4611229D01*
G01X5084570Y4604879D01*
G01X5081522Y4595735D01*
G01X5081522Y4589385D01*
G01X5084570Y4580241D01*
G01X5090666Y4573891D01*
G01X5096762Y4570843D01*
G01X5106160Y4570843D01*
G01X5112256Y4573891D01*
G01X5118606Y4580241D01*
G01X5182868Y4604879D02*
G01X5179566Y4611229D01*
G01X5170422Y4614277D01*
G01X5161024Y4614277D01*
G01X5151880Y4611229D01*
G01X5148832Y4604879D01*
G01X5151880Y4598783D01*
G01X5157976Y4595735D01*
G01X5173470Y4592687D01*
G01X5179566Y4589385D01*
G01X5182868Y4583289D01*
G01X5182868Y4580241D01*
G01X5179566Y4573891D01*
G01X5170422Y4570843D01*
G01X5161024Y4570843D01*
G01X5151880Y4573891D01*
G01X5148832Y4580241D01*
G01X5213094Y4595735D02*
G01X5250178Y4595735D01*
G01X5250178Y4601831D01*
G01X5247130Y4608181D01*
G01X5243828Y4611229D01*
G01X5237732Y4614277D01*
G01X5228334Y4614277D01*
G01X5222238Y4611229D01*
G01X5216142Y4604879D01*
G01X5213094Y4595735D01*
G01X5213094Y4589385D01*
G01X5216142Y4580241D01*
G01X5222238Y4573891D01*
G01X5228334Y4570843D01*
G01X5237732Y4570843D01*
G01X5243828Y4573891D01*
G01X5250178Y4580241D01*
G01X5289548Y4635867D02*
G01X5289548Y4583289D01*
G01X5292596Y4573891D01*
G01X5298946Y4570843D01*
G01X5305042Y4570843D01*
G01X5280404Y4614277D02*
G01X5301994Y4614277D01*
G01X4780296Y7274782D02*
G01X4785210Y7282086D01*
G01X4786640Y7291618D01*
G01X4784500Y7303878D01*
G01X4779882Y7312612D01*
G01X4772829Y7317570D01*
G01X4766573Y7316478D01*
G01X4761092Y7312427D01*
G01X4758614Y7308900D01*
G01X4756703Y7302121D01*
G01X4753635Y7282763D01*
G01X4751681Y7276234D01*
G01X4749202Y7272707D01*
G01X4743514Y7268363D01*
G01X4734506Y7266791D01*
G01X4727159Y7271954D01*
G01X4722585Y7280438D01*
G01X4720445Y7292699D01*
G01X4721832Y7302481D01*
G01X4727039Y7309578D01*
G01X4794501Y7246579D02*
G01X4733065Y7220386D01*
G01X4799785Y7216302D02*
G01X4733065Y7220386D01*
G01X4799785Y7216302D02*
G01X4738393Y7189859D01*
G01X4805113Y7185776D02*
G01X4738393Y7189859D01*
G01X4795570Y7150333D02*
G01X4798573Y7150857D01*
G01X4805352Y7148946D01*
G01X4808879Y7146468D01*
G01X4812930Y7140987D01*
G01X4815069Y7128726D01*
G01X4813159Y7121946D01*
G01X4810680Y7118420D01*
G01X4804949Y7114325D01*
G01X4798943Y7113277D01*
G01X4792414Y7115232D01*
G01X4782064Y7119872D01*
G01X4746254Y7144820D01*
G01X4753678Y7102283D01*
G01X7029544Y4887043D02*
G01X7076026Y4887043D01*
G01X7085170Y4890091D01*
G01X7091520Y4896441D01*
G01X7094568Y4905585D01*
G01X7094568Y4911935D01*
G01X7091520Y4921079D01*
G01X7085170Y4927175D01*
G01X7076026Y4930477D01*
G01X7029544Y4930477D01*
G01X7029544Y4966799D02*
G01X7029544Y5000835D01*
G01X7054182Y4982293D01*
G01X7054182Y4991437D01*
G01X7057230Y4997787D01*
G01X7060532Y5000835D01*
G01X7069676Y5003883D01*
G01X7076026Y5003883D01*
G01X7085170Y5000835D01*
G01X7091520Y4994739D01*
G01X7094568Y4985341D01*
G01X7094568Y4975943D01*
G01X7091520Y4966799D01*
G01X7088218Y4963751D01*
G01X7082122Y4960703D01*
G01X5896045Y5056499D02*
G01X5896045Y5010017D01*
G01X5899093Y5000873D01*
G01X5905443Y4994523D01*
G01X5914587Y4991475D01*
G01X5920937Y4991475D01*
G01X5930081Y4994523D01*
G01X5936177Y5000873D01*
G01X5939479Y5010017D01*
G01X5939479Y5056499D01*
G01X6012885Y5047355D02*
G01X6006789Y5053451D01*
G01X5997391Y5056499D01*
G01X5984945Y5056499D01*
G01X5975801Y5053451D01*
G01X5969705Y5047355D01*
G01X5969705Y5041005D01*
G01X5972753Y5034909D01*
G01X5975801Y5031861D01*
G01X5981897Y5028813D01*
G01X6000439Y5022463D01*
G01X6006789Y5019415D01*
G01X6009837Y5016367D01*
G01X6012885Y5010017D01*
G01X6012885Y5000873D01*
G01X6006789Y4994523D01*
G01X5997391Y4991475D01*
G01X5984945Y4991475D01*
G01X5975801Y4994523D01*
G01X5969705Y5000873D01*
G01X6043111Y5056499D02*
G01X6043111Y4991475D01*
G01X6043111Y5056499D02*
G01X6070797Y5056499D01*
G01X6080195Y5053451D01*
G01X6083243Y5050403D01*
G01X6086291Y5044053D01*
G01X6086291Y5037957D01*
G01X6083243Y5031861D01*
G01X6080195Y5028813D01*
G01X6070797Y5025511D01*
G01X6043111Y5025511D02*
G01X6070797Y5025511D01*
G01X6080195Y5022463D01*
G01X6083243Y5019415D01*
G01X6086291Y5013319D01*
G01X6086291Y5003921D01*
G01X6083243Y4997825D01*
G01X6080195Y4994523D01*
G01X6070797Y4991475D01*
G01X6043111Y4991475D01*
G01X6116517Y5044053D02*
G01X6122613Y5047355D01*
G01X6131757Y5056499D01*
G01X6131757Y4991475D01*
G01X5522360Y5394074D02*
G01X5475878Y5394074D01*
G01X5466734Y5391026D01*
G01X5460384Y5384676D01*
G01X5457336Y5375532D01*
G01X5457336Y5369182D01*
G01X5460384Y5360038D01*
G01X5466734Y5353942D01*
G01X5475878Y5350640D01*
G01X5522360Y5350640D01*
G01X5509914Y5320414D02*
G01X5513216Y5314318D01*
G01X5522360Y5305174D01*
G01X5457336Y5305174D01*
G01X6132446Y5657371D02*
G01X6132446Y5592347D01*
G01X6132446Y5657371D02*
G01X6154036Y5657371D01*
G01X6163434Y5654323D01*
G01X6169530Y5648227D01*
G01X6172578Y5641877D01*
G01X6175880Y5632733D01*
G01X6175880Y5617239D01*
G01X6172578Y5607841D01*
G01X6169530Y5601745D01*
G01X6163434Y5595395D01*
G01X6154036Y5592347D01*
G01X6132446Y5592347D01*
G01X6209154Y5641877D02*
G01X6209154Y5644925D01*
G01X6212202Y5651275D01*
G01X6215250Y5654323D01*
G01X6221346Y5657371D01*
G01X6233792Y5657371D01*
G01X6240142Y5654323D01*
G01X6243190Y5651275D01*
G01X6246238Y5644925D01*
G01X6246238Y5638829D01*
G01X6243190Y5632733D01*
G01X6236840Y5623335D01*
G01X6206106Y5592347D01*
G01X6249286Y5592347D01*
G01X5660037Y5763748D02*
G01X5613555Y5763748D01*
G01X5604411Y5760700D01*
G01X5598061Y5754350D01*
G01X5595013Y5745206D01*
G01X5595013Y5738856D01*
G01X5598061Y5729712D01*
G01X5604411Y5723616D01*
G01X5613555Y5720314D01*
G01X5660037Y5720314D01*
G01X5644543Y5687040D02*
G01X5647591Y5687040D01*
G01X5653941Y5683992D01*
G01X5656989Y5680944D01*
G01X5660037Y5674848D01*
G01X5660037Y5662402D01*
G01X5656989Y5656052D01*
G01X5653941Y5653004D01*
G01X5647591Y5649956D01*
G01X5641495Y5649956D01*
G01X5635399Y5653004D01*
G01X5626001Y5659354D01*
G01X5595013Y5690088D01*
G01X5595013Y5646908D01*
G01X5986219Y8265217D02*
G01X5986219Y8218735D01*
G01X5989267Y8209591D01*
G01X5995617Y8203241D01*
G01X6004761Y8200193D01*
G01X6011111Y8200193D01*
G01X6020255Y8203241D01*
G01X6026351Y8209591D01*
G01X6029653Y8218735D01*
G01X6029653Y8265217D01*
G01X6100011Y8243627D02*
G01X6096963Y8234229D01*
G01X6090613Y8228133D01*
G01X6081469Y8225085D01*
G01X6078421Y8225085D01*
G01X6069023Y8228133D01*
G01X6062927Y8234229D01*
G01X6059879Y8243627D01*
G01X6059879Y8246675D01*
G01X6062927Y8256073D01*
G01X6069023Y8262169D01*
G01X6078421Y8265217D01*
G01X6081469Y8265217D01*
G01X6090613Y8262169D01*
G01X6096963Y8256073D01*
G01X6100011Y8243627D01*
G01X6100011Y8228133D01*
G01X6096963Y8212639D01*
G01X6090613Y8203241D01*
G01X6081469Y8200193D01*
G01X6075119Y8200193D01*
G01X6065975Y8203241D01*
G01X6062927Y8209591D01*
G04 Text End*

G04 PolygonModel Start*
G01X7666338Y4227932D02*
G01X7261096Y4227932D01*
G01X7261096Y4227932D02*
G01X7261096Y4293730D01*
G01X7666338Y4536171D02*
G01X7261096Y4536171D01*
G01X7261096Y4536171D02*
G01X7261096Y4470372D01*
G36*
G01X7658718Y4220312D02*
G01X7658718Y4298810D01*
G01X7689198Y4298810D01*
G01X7689198Y4220312D01*
G01X7658718Y4220312D01*
G37*
G36*
G01X7658718Y4543791D02*
G01X7658718Y4465292D01*
G01X7689198Y4465292D01*
G01X7689198Y4543791D01*
G01X7658718Y4543791D01*
G37*
G01X4692840Y6014274D02*
G01X4551840Y6014274D01*
G01X4551840Y5833553D02*
G01X4692840Y5833553D01*
G01X4708080Y5848793D02*
G01X4708080Y5999034D01*
G01X4330601Y6014274D02*
G01X4471601Y6014274D01*
G01X4471601Y5833553D02*
G01X4330601Y5833553D01*
G01X4315361Y5848793D02*
G01X4315361Y5999034D01*
G01X4692840Y5833553D02*
G03X4708080Y5848793I0J15240D01*
G01X4708080Y5999034D02*
G03X4692840Y6014274I-15240J0D01*
G01X4330601Y5833553D02*
G02X4315361Y5848793I0J15240D01*
G01X4315361Y5999034D02*
G02X4330601Y6014274I15240J0D01*
G54D11*
G01X5363685Y5931476D02*
G01X5363685Y5851474D01*
G01X5252710Y5962462D02*
G01X5332707Y5962462D01*
G01X5252710Y5820496D02*
G01X5332707Y5820496D01*
G01X5195121Y5963043D02*
G01X5115121Y5963043D01*
G01X5084138Y5932060D02*
G01X5084138Y5852063D01*
G01X5195121Y5821083D02*
G01X5115121Y5821083D01*
G01X5084133Y5932060D02*
G02X5115116Y5963043I30983J0D01*
G01X5115116Y5821078D02*
G02X5084133Y5852063I0J30983D01*
G01X5332702Y5962462D02*
G02X5363685Y5931476I0J-30983D01*
G01X5363685Y5851479D02*
G02X5332702Y5820496I-30983J0D01*
G54D10*
G01X6863760Y5308656D02*
G01X6863760Y5167655D01*
G01X7044481Y5167655D02*
G01X7044481Y5308656D01*
G01X7029241Y5323896D02*
G01X6879000Y5323896D01*
G01X6863760Y4946416D02*
G01X6863760Y5087417D01*
G01X7044481Y5087417D02*
G01X7044481Y4946416D01*
G01X7029241Y4931176D02*
G01X6879000Y4931176D01*
G01X7044481Y5308656D02*
G03X7029241Y5323896I-15240J0D01*
G01X6879000Y5323896D02*
G03X6863760Y5308656I0J-15240D01*
G01X7044481Y4946416D02*
G02X7029241Y4931176I-15240J0D01*
G01X6879000Y4931176D02*
G02X6863760Y4946416I0J15240D01*
G01X7887083Y4937596D02*
G01X7887083Y5078597D01*
G01X7706362Y5078597D02*
G01X7706362Y4937596D01*
G01X7721602Y4922356D02*
G01X7871843Y4922356D01*
G01X7887083Y5299836D02*
G01X7887083Y5158836D01*
G01X7706362Y5158836D02*
G01X7706362Y5299836D01*
G01X7721602Y5315076D02*
G01X7871843Y5315076D01*
G01X7706362Y4937596D02*
G03X7721602Y4922356I15240J0D01*
G01X7871843Y4922356D02*
G03X7887083Y4937596I0J15240D01*
G01X7706362Y5299836D02*
G02X7721602Y5315076I15240J0D01*
G01X7871843Y5315076D02*
G02X7887083Y5299836I0J-15240D01*
G54D11*
G01X5893416Y6207298D02*
G01X5973418Y6207298D01*
G01X5862430Y6096323D02*
G01X5862430Y6176320D01*
G01X6004396Y6096323D02*
G01X6004396Y6176320D01*
G01X5861849Y6038733D02*
G01X5861849Y5958734D01*
G01X5892832Y5927751D02*
G01X5972829Y5927751D01*
G01X6003809Y6038733D02*
G01X6003809Y5958734D01*
G01X5892832Y5927746D02*
G02X5861849Y5958728I0J30983D01*
G01X6003815Y5958728D02*
G02X5972829Y5927746I-30983J0D01*
G01X5862430Y6176315D02*
G02X5893416Y6207298I30983J0D01*
G01X5973413Y6207298D02*
G02X6004396Y6176315I0J-30983D01*
G54D10*
G01X6499632Y5688800D02*
G01X6420623Y5688800D01*
G01X6420623Y5589080D02*
G01X6499632Y5589080D01*
G01X6514872Y5604320D02*
G01X6514872Y5673560D01*
G01X6296371Y5688800D02*
G01X6375381Y5688800D01*
G01X6375381Y5589080D02*
G01X6296371Y5589080D01*
G01X6281131Y5604320D02*
G01X6281131Y5673560D01*
G01X6499632Y5589080D02*
G03X6514872Y5604320I0J15240D01*
G01X6514872Y5673560D02*
G03X6499632Y5688800I-15240J0D01*
G01X6296371Y5589080D02*
G02X6281131Y5604320I0J15240D01*
G01X6281131Y5673560D02*
G02X6296371Y5688800I15240J0D01*
G01X5051256Y4564270D02*
G01X5130265Y4564270D01*
G01X5130265Y4663990D02*
G01X5051256Y4663990D01*
G01X5036016Y4648750D02*
G01X5036016Y4579510D01*
G01X5254517Y4564270D02*
G01X5175508Y4564270D01*
G01X5175508Y4663990D02*
G01X5254517Y4663990D01*
G01X5269757Y4648750D02*
G01X5269757Y4579510D01*
G01X5051256Y4663990D02*
G03X5036016Y4648750I0J-15240D01*
G01X5036016Y4579510D02*
G03X5051256Y4564270I15240J0D01*
G01X5254517Y4663990D02*
G02X5269757Y4648750I0J-15240D01*
G01X5269757Y4579510D02*
G02X5254517Y4564270I-15240J0D01*
G01X7351519Y4673453D02*
G01X7430528Y4673453D01*
G01X7430528Y4773173D02*
G01X7351519Y4773173D01*
G01X7336279Y4757933D02*
G01X7336279Y4688693D01*
G01X7554780Y4673453D02*
G01X7475771Y4673453D01*
G01X7475771Y4773173D02*
G01X7554780Y4773173D01*
G01X7570020Y4757933D02*
G01X7570020Y4688693D01*
G01X7351519Y4773173D02*
G03X7336279Y4757933I0J-15240D01*
G01X7336279Y4688693D02*
G03X7351519Y4673453I15240J0D01*
G01X7554780Y4773173D02*
G02X7570020Y4757933I0J-15240D01*
G01X7570020Y4688693D02*
G02X7554780Y4673453I-15240J0D01*
G01X5296726Y8149720D02*
G01X5217717Y8149720D01*
G01X5217717Y8050000D02*
G01X5296726Y8050000D01*
G01X5311966Y8065240D02*
G01X5311966Y8134480D01*
G01X5093465Y8149720D02*
G01X5172474Y8149720D01*
G01X5172474Y8050000D02*
G01X5093465Y8050000D01*
G01X5078225Y8065240D02*
G01X5078225Y8134480D01*
G01X5296726Y8050000D02*
G03X5311966Y8065240I0J15240D01*
G01X5311966Y8134480D02*
G03X5296726Y8149720I-15240J0D01*
G01X5093465Y8050000D02*
G02X5078225Y8065240I0J15240D01*
G01X5078225Y8134480D02*
G02X5093465Y8149720I15240J0D01*
G01X5291667Y8311090D02*
G01X5212658Y8311090D01*
G01X5212658Y8211369D02*
G01X5291667Y8211369D01*
G01X5306907Y8226609D02*
G01X5306907Y8295850D01*
G01X5088406Y8311090D02*
G01X5167415Y8311090D01*
G01X5167415Y8211369D02*
G01X5088406Y8211369D01*
G01X5073166Y8226609D02*
G01X5073166Y8295850D01*
G01X5291667Y8211369D02*
G03X5306907Y8226609I0J15240D01*
G01X5306907Y8295850D02*
G03X5291667Y8311090I-15240J0D01*
G01X5088406Y8211369D02*
G02X5073166Y8226609I0J15240D01*
G01X5073166Y8295850D02*
G02X5088406Y8311090I15240J0D01*
G54D11*
G01X4519942Y7397598D02*
G01X4519942Y7480923D01*
G01X4519942Y7787151D02*
G01X4519942Y7867498D01*
G01X4519942Y7397598D02*
G01X5250712Y7397598D01*
G01X5250712Y7470921D02*
G01X5250712Y7480923D01*
G01X5250712Y7787151D02*
G01X5250712Y7867498D01*
G01X5250712Y7867498D02*
G01X5015013Y7867498D01*
G01X4519942Y7867498D02*
G01X4766804Y7867498D01*
G01X5250712Y7470921D02*
G01X5250712Y7397598D01*
G54D10*
G01X6475583Y5293007D02*
G01X6475583Y5470848D01*
G01X6167745Y5293007D02*
G01X6167745Y5470848D01*
G01X4052201Y4470278D02*
G01X4453672Y4108792D01*
G01X3869702Y4267592D02*
G01X4271173Y3906106D01*
G01X4153432Y4379129D02*
G01X3970933Y4176443D01*
G01X4453672Y4108792D02*
G01X4430219Y4082745D01*
G01X4271173Y3906106D02*
G01X4294626Y3932153D01*
G36*
G01X4062960Y4470843D02*
G01X4031010Y4435359D01*
G01X3997033Y4465951D01*
G01X4028984Y4501436D01*
G01X4062960Y4470843D01*
G37*
G36*
G01X3870264Y4256833D02*
G01X3902215Y4292317D01*
G01X3868238Y4322910D01*
G01X3836287Y4287425D01*
G01X3870264Y4256833D01*
G37*
G01X8175801Y4159284D02*
G01X8589643Y4506539D01*
G01X8351115Y3950353D02*
G01X8764957Y4297608D01*
G01X8280152Y4246845D02*
G01X8455466Y4037914D01*
G01X8589643Y4506539D02*
G01X8612173Y4479690D01*
G01X8764957Y4297608D02*
G01X8742428Y4324457D01*
G36*
G01X8176739Y4170018D02*
G01X8207431Y4133440D01*
G01X8172408Y4104051D01*
G01X8141715Y4140630D01*
G01X8176739Y4170018D01*
G37*
G36*
G01X8361849Y3949412D02*
G01X8331156Y3985991D01*
G01X8296132Y3956602D01*
G01X8326825Y3920024D01*
G01X8361849Y3949412D01*
G37*
G01X8556099Y8974475D02*
G01X8963818Y8620051D01*
G01X8377166Y8768636D02*
G01X8784884Y8414211D01*
G01X8658906Y8885107D02*
G01X8479972Y8679267D01*
G01X8963818Y8620051D02*
G01X8940824Y8593599D01*
G01X8784884Y8414211D02*
G01X8807879Y8440663D01*
G36*
G01X8566848Y8975229D02*
G01X8535521Y8939192D01*
G01X8501016Y8969187D01*
G01X8532342Y9005224D01*
G01X8566848Y8975229D01*
G37*
G36*
G01X8377916Y8757887D02*
G01X8409242Y8793924D01*
G01X8374737Y8823919D01*
G01X8343410Y8787882D01*
G01X8377916Y8757887D01*
G37*
G01X4221466Y8793787D02*
G01X3813748Y8439362D01*
G01X4042533Y8999626D02*
G01X3634814Y8645202D01*
G01X4118660Y8704418D02*
G01X3939726Y8910258D01*
G01X3813748Y8439362D02*
G01X3790753Y8465815D01*
G01X3634814Y8645202D02*
G01X3657809Y8618750D01*
G36*
G01X4220717Y8783038D02*
G01X4189390Y8819075D01*
G01X4223895Y8849070D01*
G01X4255222Y8813033D01*
G01X4220717Y8783038D01*
G37*
G36*
G01X4031785Y9000380D02*
G01X4063111Y8964343D01*
G01X4097616Y8994338D01*
G01X4066290Y9030375D01*
G01X4031785Y9000380D01*
G37*
G54D11*
G01X7521658Y5977929D02*
G01X7481658Y6017929D01*
G01X7481658Y6017929D02*
G01X7471658Y6027929D01*
G01X7471658Y6027929D02*
G01X7461632Y6017929D01*
G01X7461632Y6017929D02*
G01X7421632Y5977929D01*
G01X7521658Y5977929D02*
G01X7421632Y5977929D01*
G01X7369931Y5953606D02*
G01X7369931Y5798666D01*
G01X7369931Y5798666D02*
G01X7573131Y5798666D01*
G01X7573131Y5798666D02*
G01X7573131Y5953606D01*
G01X7367391Y6032346D02*
G01X7367391Y6179666D01*
G01X7367391Y6179666D02*
G01X7408031Y6220306D01*
G01X7408031Y6220306D02*
G01X7535031Y6220306D01*
G01X7535031Y6220306D02*
G01X7573131Y6182206D01*
G01X7573131Y6182206D02*
G01X7573131Y6029806D01*
G54D12*
G01X5734532Y4833858D02*
G01X5734532Y4834854D01*
G01X5734532Y4834854D02*
G01X5767536Y4867859D01*
G01X5802535Y4833858D02*
G01X5801537Y4833858D01*
G01X5801537Y4833858D02*
G01X5767536Y4867859D01*
G01X5802535Y4833858D02*
G01X5734532Y4833858D01*
G01X5842543Y4831854D02*
G01X5842543Y4716853D01*
G01X5692530Y4831854D02*
G01X5692530Y4716853D01*
G01X5842532Y4716853D02*
G01X5694539Y4716853D01*
G01X5692299Y4869855D02*
G01X5692299Y4974866D01*
G01X5732307Y5004861D02*
G01X5722304Y5004861D01*
G01X5722304Y5004861D02*
G01X5692299Y4974866D01*
G01X5802301Y5004861D02*
G01X5732307Y5004861D01*
G01X5802301Y5004861D02*
G01X5812317Y5004861D01*
G01X5812317Y5004861D02*
G01X5842311Y4974866D01*
G01X5842311Y4869855D02*
G01X5842311Y4974866D01*
G01X5767536Y4833858D02*
G01X5767536Y4867859D01*
G01X5730852Y5212868D02*
G01X5730852Y5213864D01*
G01X5730852Y5213864D02*
G01X5763857Y5246869D01*
G01X5798856Y5212868D02*
G01X5797857Y5212868D01*
G01X5797857Y5212868D02*
G01X5763857Y5246869D01*
G01X5798856Y5212868D02*
G01X5730852Y5212868D01*
G01X5838863Y5210864D02*
G01X5838863Y5095863D01*
G01X5688851Y5210864D02*
G01X5688851Y5095863D01*
G01X5838853Y5095863D02*
G01X5690860Y5095863D01*
G01X5688620Y5248865D02*
G01X5688620Y5353877D01*
G01X5728627Y5383871D02*
G01X5718625Y5383871D01*
G01X5718625Y5383871D02*
G01X5688620Y5353877D01*
G01X5798622Y5383871D02*
G01X5728627Y5383871D01*
G01X5798622Y5383871D02*
G01X5808637Y5383871D01*
G01X5808637Y5383871D02*
G01X5838632Y5353877D01*
G01X5838632Y5248865D02*
G01X5838632Y5353877D01*
G01X5763857Y5212868D02*
G01X5763857Y5246869D01*
G54D13*
G01X6178364Y5770287D02*
G01X6138353Y5770287D01*
G01X6138353Y5770287D02*
G01X6138353Y5810289D01*
G01X6138353Y6160304D02*
G01X6138353Y6200301D01*
G01X6138353Y6200301D02*
G01X6178364Y6200301D01*
G01X6528370Y6200301D02*
G01X6568381Y6200301D01*
G01X6568381Y6200301D02*
G01X6568381Y6160304D01*
G01X6528370Y5770287D02*
G01X6568381Y5770287D01*
G01X6568381Y5770287D02*
G01X6568381Y5810289D01*
G36*
G01X6099491Y6126245D02*
G03X6099364Y6177044I-127J25400D01*
G03X6099237Y6126245I0J-25400D01*
G01X6099491Y6126245D01*
G37*
G54D11*
G01X4840345Y5734038D02*
G01X5020348Y5734038D01*
G01X4840345Y5424036D02*
G01X5020348Y5424036D01*
G54D10*
G01X4321837Y4624378D02*
G01X4224651Y4516442D01*
G01X4224651Y4516442D02*
G01X4301315Y4447413D01*
G01X4548676Y4420132D02*
G01X4451490Y4312196D01*
G01X4451490Y4312196D02*
G01X4374825Y4381224D01*
G01X4401414Y4552727D02*
G01X4469099Y4491783D01*
G01X8075433Y4452188D02*
G01X8168793Y4340926D01*
G01X8168793Y4340926D02*
G01X8247820Y4407238D01*
G01X8309262Y4648394D02*
G01X8402622Y4537132D01*
G01X8402622Y4537132D02*
G01X8323595Y4470821D01*
G01X8157462Y4521019D02*
G01X8227233Y4579564D01*
G01X8481253Y8274888D02*
G01X8576540Y8384504D01*
G01X8576540Y8384504D02*
G01X8498683Y8452184D01*
G01X8250884Y8475145D02*
G01X8346171Y8584761D01*
G01X8346171Y8584761D02*
G01X8424029Y8517080D01*
G01X8400438Y8345140D02*
G01X8331699Y8404893D01*
G01X3996050Y8387472D02*
G01X4091338Y8277856D01*
G01X4091338Y8277856D02*
G01X4169195Y8345537D01*
G01X4226419Y8587729D02*
G01X4321707Y8478113D01*
G01X4321707Y8478113D02*
G01X4243849Y8410433D01*
G01X4076866Y8457724D02*
G01X4145604Y8517477D01*
G01X5506236Y4808493D02*
G01X5506236Y4712605D01*
G01X5506236Y4712605D02*
G01X5638357Y4712605D01*
G01X5638357Y4712605D02*
G01X5638357Y4808493D01*
G01X5506236Y4893735D02*
G01X5506236Y4989622D01*
G01X5506236Y4989622D02*
G01X5638357Y4989622D01*
G01X5638357Y4989622D02*
G01X5638357Y4893735D01*
G01X4507350Y5428609D02*
G01X4603238Y5428609D01*
G01X4603238Y5428609D02*
G01X4603238Y5560729D01*
G01X4603238Y5560729D02*
G01X4507350Y5560729D01*
G01X4422108Y5428609D02*
G01X4326220Y5428609D01*
G01X4326220Y5428609D02*
G01X4326220Y5560729D01*
G01X4326220Y5560729D02*
G01X4422108Y5560729D01*
G01X5685065Y5590502D02*
G01X5685065Y5494614D01*
G01X5685065Y5494614D02*
G01X5817185Y5494614D01*
G01X5817185Y5494614D02*
G01X5817185Y5590502D01*
G01X5685065Y5675744D02*
G01X5685065Y5771632D01*
G01X5685065Y5771632D02*
G01X5817185Y5771632D01*
G01X5817185Y5771632D02*
G01X5817185Y5675744D01*
G01X5498869Y5195888D02*
G01X5498869Y5100001D01*
G01X5498869Y5100001D02*
G01X5630989Y5100001D01*
G01X5630989Y5100001D02*
G01X5630989Y5195888D01*
G01X5498869Y5281131D02*
G01X5498869Y5377018D01*
G01X5498869Y5377018D02*
G01X5630989Y5377018D01*
G01X5630989Y5377018D02*
G01X5630989Y5281131D01*
G01X4513412Y5634817D02*
G01X4609300Y5634817D01*
G01X4609300Y5634817D02*
G01X4609300Y5766938D01*
G01X4609300Y5766938D02*
G01X4513412Y5766938D01*
G01X4428170Y5634817D02*
G01X4332282Y5634817D01*
G01X4332282Y5634817D02*
G01X4332282Y5766938D01*
G01X4332282Y5766938D02*
G01X4428170Y5766938D01*
G01X5968675Y5221133D02*
G01X5896871Y5221133D01*
G01X5896871Y5221133D02*
G01X5896871Y5320853D01*
G01X5896871Y5320853D02*
G01X5968675Y5320853D01*
G01X6013917Y5221133D02*
G01X6085720Y5221133D01*
G01X6085720Y5221133D02*
G01X6085720Y5320853D01*
G01X6085720Y5320853D02*
G01X6013917Y5320853D01*
G01X6651912Y5323825D02*
G01X6723715Y5323825D01*
G01X6723715Y5323825D02*
G01X6723715Y5224105D01*
G01X6723715Y5224105D02*
G01X6651912Y5224105D01*
G01X6606669Y5323825D02*
G01X6534866Y5323825D01*
G01X6534866Y5323825D02*
G01X6534866Y5224105D01*
G01X6534866Y5224105D02*
G01X6606669Y5224105D01*
G01X4636785Y4679192D02*
G01X4690145Y4631146D01*
G01X4690145Y4631146D02*
G01X4623419Y4557039D01*
G01X4623419Y4557039D02*
G01X4570059Y4605085D01*
G01X4603163Y4709465D02*
G01X4549803Y4757511D01*
G01X4549803Y4757511D02*
G01X4483077Y4683404D01*
G01X4483077Y4683404D02*
G01X4536438Y4635358D01*
G01X8055886Y4752334D02*
G01X8110891Y4798488D01*
G01X8110891Y4798488D02*
G01X8174990Y4722098D01*
G01X8174990Y4722098D02*
G01X8119985Y4675943D01*
G01X8021228Y4723252D02*
G01X7966224Y4677098D01*
G01X7966224Y4677098D02*
G01X8030323Y4600708D01*
G01X8030323Y4600708D02*
G01X8085327Y4646862D01*
G01X8174535Y8211866D02*
G01X8120345Y8258973D01*
G01X8120345Y8258973D02*
G01X8185767Y8334233D01*
G01X8185767Y8334233D02*
G01X8239958Y8287126D01*
G01X8208680Y8182184D02*
G01X8262871Y8135077D01*
G01X8262871Y8135077D02*
G01X8328293Y8210337D01*
G01X8328293Y8210337D02*
G01X8274103Y8257444D01*
G01X4320305Y8275008D02*
G01X4374496Y8322116D01*
G01X4374496Y8322116D02*
G01X4439918Y8246856D01*
G01X4439918Y8246856D02*
G01X4385728Y8199748D01*
G01X4286160Y8245327D02*
G01X4231970Y8198219D01*
G01X4231970Y8198219D02*
G01X4297392Y8122959D01*
G01X4297392Y8122959D02*
G01X4351583Y8170067D01*
G01X5890738Y5804750D02*
G01X5890738Y5876553D01*
G01X5890738Y5876553D02*
G01X5990459Y5876553D01*
G01X5990459Y5876553D02*
G01X5990459Y5804750D01*
G01X5890738Y5759507D02*
G01X5890738Y5687704D01*
G01X5890738Y5687704D02*
G01X5990459Y5687704D01*
G01X5990459Y5687704D02*
G01X5990459Y5759507D01*
G01X6648562Y6135195D02*
G01X6648562Y6206998D01*
G01X6648562Y6206998D02*
G01X6748283Y6206998D01*
G01X6748283Y6206998D02*
G01X6748283Y6135195D01*
G01X6648562Y6089953D02*
G01X6648562Y6018149D01*
G01X6648562Y6018149D02*
G01X6748283Y6018149D01*
G01X6748283Y6018149D02*
G01X6748283Y6089953D01*
G01X7493466Y5728471D02*
G01X7565269Y5728471D01*
G01X7565269Y5728471D02*
G01X7565269Y5628751D01*
G01X7565269Y5628751D02*
G01X7493466Y5628751D01*
G01X7448223Y5728471D02*
G01X7376420Y5728471D01*
G01X7376420Y5728471D02*
G01X7376420Y5628751D01*
G01X7376420Y5628751D02*
G01X7448223Y5628751D01*
G01X5342410Y4211224D02*
G01X4937169Y4211224D01*
G01X4937169Y4211224D02*
G01X4937169Y4277023D01*
G01X5342410Y4519463D02*
G01X4937169Y4519463D01*
G01X4937169Y4519463D02*
G01X4937169Y4453664D01*
G36*
G01X5334790Y4203604D02*
G01X5334790Y4282103D01*
G01X5365270Y4282103D01*
G01X5365270Y4203604D01*
G01X5334790Y4203604D01*
G37*
G36*
G01X5334790Y4527083D02*
G01X5334790Y4448584D01*
G01X5365270Y4448584D01*
G01X5365270Y4527083D01*
G01X5334790Y4527083D01*
G37*
G54D11*
G01X4188815Y6781821D02*
G01X4336581Y6807611D01*
G01X4211167Y6653750D02*
G01X4188815Y6781821D01*
G01X4604133Y6844977D02*
G01X4575184Y7010844D01*
G01X4629922Y6697211D02*
G01X4626762Y6715317D01*
G01X4391598Y6492376D02*
G01X4281564Y7122845D01*
G01X4367328Y7147967D02*
G01X4458332Y7163850D01*
G01X4480802Y6497791D02*
G01X4571806Y6513674D01*
G01X4358933Y6679539D02*
G01X4211167Y6653750D01*
G01X5269600Y5323970D02*
G01X5269600Y4813964D01*
G01X5269600Y4813989D02*
G01X4859593Y4813989D01*
G01X4859593Y4813989D02*
G01X4859593Y5323996D01*
G01X5144606Y5323970D02*
G01X5269600Y5323970D01*
G01X4984586Y5323970D02*
G01X4859593Y5323970D01*
G01X5144606Y5318967D02*
G02X4984586Y5318967I-80010J37529D01*
G54D10*
G01X5295673Y5420611D02*
G01X5473513Y5420611D01*
G01X5295673Y5728449D02*
G01X5473513Y5728449D01*
G54D14*
G01X7273432Y5256298D02*
G01X7331105Y5256298D01*
G01X7180006Y4996060D02*
G01X7144098Y4996060D01*
G01X7609340Y4996060D02*
G01X7573432Y4996060D01*
G01X7573432Y5256298D02*
G01X7609340Y5256298D01*
G01X7422332Y5256298D02*
G01X7480005Y5256298D01*
G01X7144098Y5256298D02*
G01X7180006Y5256298D01*
G54D10*
G01X7144098Y5256298D02*
G01X7144098Y4996060D01*
G01X7609340Y5256298D02*
G01X7609340Y4996060D01*
G54D11*
G01X7051566Y8493718D02*
G01X7051566Y8982178D01*
G01X7051566Y8982178D02*
G01X6828046Y8982178D01*
G01X6848366Y8493718D02*
G01X6848366Y8982178D01*
G01X6848366Y8982178D02*
G01X6563149Y8982178D01*
G01X6563149Y8982178D02*
G01X6563149Y8766278D01*
G01X6563149Y8766278D02*
G01X6309149Y8766278D01*
G01X6309149Y8766278D02*
G01X6309149Y8982178D01*
G01X6309149Y8982178D02*
G01X6055149Y8982178D01*
G01X6055149Y8982178D02*
G01X6055149Y8766278D01*
G01X6055149Y8766278D02*
G01X5826549Y8766278D01*
G01X5826549Y8766278D02*
G01X5826549Y8982178D01*
G01X5826549Y8982178D02*
G01X5597949Y8982178D01*
G01X5597949Y8982178D02*
G01X5597949Y8613878D01*
G01X5421849Y8493718D02*
G01X7223549Y8493718D01*
G01X7223549Y8415793D02*
G01X7223549Y9096478D01*
G01X7088465Y6543778D02*
G01X7223549Y6543778D01*
G01X7223549Y6543778D02*
G01X7223549Y6628563D01*
G01X5421849Y6628563D02*
G01X5421849Y6543778D01*
G01X5421849Y6543778D02*
G01X5555234Y6543778D01*
G01X5421849Y9097679D02*
G01X5421849Y8415793D01*
G01X7221850Y9097679D02*
G01X5421849Y9097679D01*
G01X6815683Y4531263D02*
G01X6815683Y4707356D01*
G01X5925685Y4307372D02*
G01X5925685Y4155566D01*
G01X5925685Y4155566D02*
G01X6815683Y4155566D01*
G01X6815683Y4155566D02*
G01X6815683Y4307372D01*
G01X5925685Y4707356D02*
G01X5925685Y4531263D01*

G04 Circle Start*
G01X7373715Y4382054D02*
G03X7553714Y4382054I90000J0D01*
G03X7373715Y4382054I-90000J0D01*
G01X4705766Y7927544D02*
G03X4734061Y7927544I14148J0D01*
G03X4705766Y7927544I-14148J0D01*
G54D16*
G01X6139826Y5251778D02*
G03X6169848Y5251778I15011J0D01*
G03X6139826Y5251778I-15011J0D01*
G54D11*
G01X5057345Y5413947D02*
G03X5082745Y5413947I12700J0D01*
G03X5057345Y5413947I-12700J0D01*
G01X5049787Y4365346D02*
G03X5229787Y4365346I90000J0D01*
G03X5049787Y4365346I-90000J0D01*
G01X4797566Y5371976D02*
G03X4831602Y5371976I17018J0D01*
G03X4797566Y5371976I-17018J0D01*
G54D16*
G01X5239432Y5741357D02*
G03X5269455Y5741357I15011J0D01*
G03X5239432Y5741357I-15011J0D01*
G54D11*
G01X5240292Y8410670D02*
G03X5320607Y8410670I40157J0D01*
G03X5240292Y8410670I-40157J0D01*
G04 Circle End*

M02*

