G04 Layer: BottomPasteMaskLayer*
G04 EasyEDA Pro v2.2.47.7, 2026-04-22 18:43:47*
G04 Gerber Generator version 0.3*
G04 Scale: 100 percent, Rotated: No, Reflected: No*
G04 Dimensions in millimeters*
G04 Leading zeros omitted, absolute positions, 4 integers and 5 decimals*
G04 Generated by one-click*
G04 Object Configs: Pad,Via,Track,Text,Image,Dimension,BoardOutline,BoardCutout,CopperFilled,SolidRegion,FPCStiffener,Line,PlaneZone,ComponentProperty,ComponentSilkscreen,TearDrop*
G04 Layer Configs: 1,2,3,4,5,6,7,8,9,10,11,13,14,56*
G04 Copper Areas: 0*
%FSLAX45Y45*%
%MOMM*%
%ADD10R,0.7X1.6*%
%ADD11R,1.2X1.5*%
%ADD12R,1.2X2.2*%
%ADD13R,1.6X1.5*%
%ADD14R,0.6X1.1*%
%ADD15R,0.3079X1.25001*%
%ADD16R,0.3X1.25001*%
%ADD17R,2.0X2.49999*%
G75*


G04 PolygonModel Start*
G36*
G01X4884324Y7253020D02*
G01X4929325Y7253020D01*
G01X4934324Y7260018D01*
G01X4934324Y7308019D01*
G01X4929325Y7313020D01*
G01X4884324Y7313020D01*
G01X4879325Y7308019D01*
G01X4879325Y7260018D01*
G01X4884324Y7253020D01*
G37*
G36*
G01X4884324Y7157019D02*
G01X4929325Y7157019D01*
G01X4934324Y7162020D01*
G01X4934324Y7210018D01*
G01X4929325Y7217018D01*
G01X4884324Y7217018D01*
G01X4879325Y7210018D01*
G01X4879325Y7162020D01*
G01X4884324Y7157019D01*
G37*
G36*
G01X4678053Y7590039D02*
G01X4678053Y7545037D01*
G01X4685051Y7540039D01*
G01X4733051Y7540039D01*
G01X4738053Y7545037D01*
G01X4738053Y7590039D01*
G01X4733051Y7595037D01*
G01X4685051Y7595037D01*
G01X4678053Y7590039D01*
G37*
G36*
G01X4582051Y7590039D02*
G01X4582051Y7545037D01*
G01X4587052Y7540039D01*
G01X4635051Y7540039D01*
G01X4642051Y7545037D01*
G01X4642051Y7590039D01*
G01X4635051Y7595037D01*
G01X4587052Y7595037D01*
G01X4582051Y7590039D01*
G37*
G36*
G01X4334813Y7281334D02*
G01X4379814Y7281334D01*
G01X4384812Y7288331D01*
G01X4384812Y7336332D01*
G01X4379814Y7341333D01*
G01X4334813Y7341333D01*
G01X4329814Y7336332D01*
G01X4329814Y7288331D01*
G01X4334813Y7281334D01*
G37*
G36*
G01X4334813Y7185332D02*
G01X4379814Y7185332D01*
G01X4384812Y7190333D01*
G01X4384812Y7238331D01*
G01X4379814Y7245332D01*
G01X4334813Y7245332D01*
G01X4329814Y7238331D01*
G01X4329814Y7190333D01*
G01X4334813Y7185332D01*
G37*
G36*
G01X4675599Y6989757D02*
G01X4675599Y6944756D01*
G01X4682596Y6939757D01*
G01X4730597Y6939757D01*
G01X4735599Y6944756D01*
G01X4735599Y6989757D01*
G01X4730597Y6994756D01*
G01X4682596Y6994756D01*
G01X4675599Y6989757D01*
G37*
G36*
G01X4579597Y6989757D02*
G01X4579597Y6944756D01*
G01X4584598Y6939757D01*
G01X4632597Y6939757D01*
G01X4639597Y6944756D01*
G01X4639597Y6989757D01*
G01X4632597Y6994756D01*
G01X4584598Y6994756D01*
G01X4579597Y6989757D01*
G37*
G36*
G01X7986022Y7575554D02*
G01X7986022Y7530553D01*
G01X7993019Y7525554D01*
G01X8041020Y7525554D01*
G01X8046022Y7530553D01*
G01X8046022Y7575554D01*
G01X8041020Y7580553D01*
G01X7993019Y7580553D01*
G01X7986022Y7575554D01*
G37*
G36*
G01X7890020Y7575554D02*
G01X7890020Y7530553D01*
G01X7895021Y7525554D01*
G01X7943020Y7525554D01*
G01X7950020Y7530553D01*
G01X7950020Y7575554D01*
G01X7943020Y7580553D01*
G01X7895021Y7580553D01*
G01X7890020Y7575554D01*
G37*
G36*
G01X8244259Y7274587D02*
G01X8289260Y7274587D01*
G01X8294259Y7281585D01*
G01X8294259Y7329586D01*
G01X8289260Y7334587D01*
G01X8244259Y7334587D01*
G01X8239260Y7329586D01*
G01X8239260Y7281585D01*
G01X8244259Y7274587D01*
G37*
G36*
G01X8244259Y7178585D02*
G01X8289260Y7178585D01*
G01X8294259Y7183586D01*
G01X8294259Y7231585D01*
G01X8289260Y7238585D01*
G01X8244259Y7238585D01*
G01X8239260Y7231585D01*
G01X8239260Y7183586D01*
G01X8244259Y7178585D01*
G37*
G36*
G01X7986022Y6965432D02*
G01X7986022Y6920431D01*
G01X7993019Y6915432D01*
G01X8041020Y6915432D01*
G01X8046022Y6920431D01*
G01X8046022Y6965432D01*
G01X8041020Y6970431D01*
G01X7993019Y6970431D01*
G01X7986022Y6965432D01*
G37*
G36*
G01X7890020Y6965432D02*
G01X7890020Y6920431D01*
G01X7895021Y6915432D01*
G01X7943020Y6915432D01*
G01X7950020Y6920431D01*
G01X7950020Y6965432D01*
G01X7943020Y6970431D01*
G01X7895021Y6970431D01*
G01X7890020Y6965432D01*
G37*
G36*
G01X7684988Y7274587D02*
G01X7729989Y7274587D01*
G01X7734988Y7281585D01*
G01X7734988Y7329586D01*
G01X7729989Y7334587D01*
G01X7684988Y7334587D01*
G01X7679989Y7329586D01*
G01X7679989Y7281585D01*
G01X7684988Y7274587D01*
G37*
G36*
G01X7684988Y7178585D02*
G01X7729989Y7178585D01*
G01X7734988Y7183586D01*
G01X7734988Y7231585D01*
G01X7729989Y7238585D01*
G01X7684988Y7238585D01*
G01X7679989Y7231585D01*
G01X7679989Y7183586D01*
G01X7684988Y7178585D01*
G37*
G36*
G01X5014142Y7534900D02*
G01X5060141Y7534900D01*
G01X5064142Y7538900D01*
G01X5064142Y7588964D01*
G01X5060141Y7592964D01*
G01X5014142Y7592964D01*
G01X5010141Y7588964D01*
G01X5010141Y7538900D01*
G01X5014142Y7534900D01*
G37*
G36*
G01X5014142Y7507900D02*
G01X5060141Y7507900D01*
G01X5064142Y7503899D01*
G01X5064142Y7453836D01*
G01X5060141Y7449835D01*
G01X5014142Y7449835D01*
G01X5010141Y7453836D01*
G01X5010141Y7503899D01*
G01X5014142Y7507900D01*
G37*
G36*
G01X7533656Y7531108D02*
G01X7579656Y7531108D01*
G01X7583656Y7535108D01*
G01X7583656Y7585172D01*
G01X7579656Y7589172D01*
G01X7533656Y7589172D01*
G01X7529656Y7585172D01*
G01X7529656Y7535108D01*
G01X7533656Y7531108D01*
G37*
G36*
G01X7533656Y7504108D02*
G01X7579656Y7504108D01*
G01X7583656Y7500107D01*
G01X7583656Y7450044D01*
G01X7579656Y7446043D01*
G01X7533656Y7446043D01*
G01X7529656Y7450044D01*
G01X7529656Y7500107D01*
G01X7533656Y7504108D01*
G37*
G36*
G01X7533656Y6978469D02*
G01X7579656Y6978469D01*
G01X7583656Y6982470D01*
G01X7583656Y7032533D01*
G01X7579656Y7036534D01*
G01X7533656Y7036534D01*
G01X7529656Y7032533D01*
G01X7529656Y6982470D01*
G01X7533656Y6978469D01*
G37*
G36*
G01X7533656Y6951469D02*
G01X7579656Y6951469D01*
G01X7583656Y6947469D01*
G01X7583656Y6897405D01*
G01X7579656Y6893405D01*
G01X7533656Y6893405D01*
G01X7529656Y6897405D01*
G01X7529656Y6947469D01*
G01X7533656Y6951469D01*
G37*
G36*
G01X5019053Y7010586D02*
G01X5065053Y7010586D01*
G01X5069053Y7014586D01*
G01X5069053Y7064650D01*
G01X5065053Y7068650D01*
G01X5019053Y7068650D01*
G01X5015053Y7064650D01*
G01X5015053Y7014586D01*
G01X5019053Y7010586D01*
G37*
G36*
G01X5019053Y6983586D02*
G01X5065053Y6983586D01*
G01X5069053Y6979585D01*
G01X5069053Y6929522D01*
G01X5065053Y6925521D01*
G01X5019053Y6925521D01*
G01X5015053Y6929522D01*
G01X5015053Y6979585D01*
G01X5019053Y6983586D01*
G37*
G36*
G01X7533656Y7245079D02*
G01X7579656Y7245079D01*
G01X7583656Y7249080D01*
G01X7583656Y7299143D01*
G01X7579656Y7303144D01*
G01X7533656Y7303144D01*
G01X7529656Y7299143D01*
G01X7529656Y7249080D01*
G01X7533656Y7245079D01*
G37*
G36*
G01X7533656Y7218079D02*
G01X7579656Y7218079D01*
G01X7583656Y7214079D01*
G01X7583656Y7164015D01*
G01X7579656Y7160015D01*
G01X7533656Y7160015D01*
G01X7529656Y7164015D01*
G01X7529656Y7214079D01*
G01X7533656Y7218079D01*
G37*
G36*
G01X5019053Y7249635D02*
G01X5065053Y7249635D01*
G01X5069053Y7253635D01*
G01X5069053Y7303699D01*
G01X5065053Y7307699D01*
G01X5019053Y7307699D01*
G01X5015053Y7303699D01*
G01X5015053Y7253635D01*
G01X5019053Y7249635D01*
G37*
G36*
G01X5019053Y7222635D02*
G01X5065053Y7222635D01*
G01X5069053Y7218634D01*
G01X5069053Y7168571D01*
G01X5065053Y7164570D01*
G01X5019053Y7164570D01*
G01X5015053Y7168571D01*
G01X5015053Y7218634D01*
G01X5019053Y7222635D01*
G37*

G04 Pad Start*
G54D10*
G01X5745942Y7019499D03*
G01X5855924Y7019499D03*
G01X5965932Y7019499D03*
G01X6075939Y7019499D03*
G01X6185921Y7019499D03*
G01X6295928Y7019499D03*
G01X6405936Y7019499D03*
G01X6515943Y7019499D03*
G01X5635935Y7019499D03*
G54D11*
G01X5515920Y7119498D03*
G54D12*
G01X5515920Y8079491D03*
G01X7065929Y8079491D03*
G54D13*
G01X6975937Y7119498D03*
G54D14*
G01X7881859Y7099229D03*
G01X8071851Y7099229D03*
G01X8071851Y7359249D03*
G01X7976855Y7359249D03*
G01X7881859Y7359249D03*
G01X4558059Y7122871D03*
G01X4748051Y7122871D03*
G01X4748051Y7382890D03*
G01X4653055Y7382890D03*
G01X4558059Y7382890D03*
G54D16*
G01X6889221Y6289731D03*
G01X6839234Y6289731D03*
G01X6789222Y6289731D03*
G01X6739234Y6289731D03*
G01X6689222Y6289731D03*
G01X6639235Y6289731D03*
G01X6589222Y6289731D03*
G01X6539235Y6289731D03*
G01X6489222Y6289731D03*
G01X6439235Y6289731D03*
G01X6389222Y6289731D03*
G01X6339235Y6289731D03*
G01X6289223Y6289731D03*
G01X6239235Y6289731D03*
G01X6189223Y6289731D03*
G01X6139236Y6289731D03*
G01X6089223Y6289731D03*
G01X6039236Y6289731D03*
G01X5989223Y6289731D03*
G01X5939236Y6289731D03*
G01X5889223Y6289731D03*
G01X5839236Y6289731D03*
G01X5789224Y6289731D03*
G01X5739236Y6289731D03*
G54D17*
G01X7058233Y6032226D03*
G01X5570225Y6032226D03*
G04 Pad End*

M02*

