G04 Layer: TopSolderMaskLayer*
G04 EasyEDA Pro v2.2.47.7, 2026-04-22 18:43:47*
G04 Gerber Generator version 0.3*
G04 Scale: 100 percent, Rotated: No, Reflected: No*
G04 Dimensions in millimeters*
G04 Leading zeros omitted, absolute positions, 4 integers and 5 decimals*
G04 Generated by one-click*
G04 Object Configs: Pad,Via,Track,Text,Image,Dimension,BoardOutline,BoardCutout,CopperFilled,SolidRegion,FPCStiffener,Line,PlaneZone,ComponentProperty,ComponentSilkscreen,TearDrop*
G04 Layer Configs: 1,2,3,4,5,6,7,8,9,10,11,13,14,56*
G04 Copper Areas: 0*
%FSLAX45Y45*%
%MOMM*%
%AMRoundRect*1,1,$1,$2,$3*1,1,$1,$4,$5*1,1,$1,0-$2,0-$3*1,1,$1,0-$4,0-$5*20,1,$1,$2,$3,$4,$5,0*20,1,$1,$4,$5,0-$2,0-$3,0*20,1,$1,0-$2,0-$3,0-$4,0-$5,0*20,1,$1,0-$4,0-$5,$2,$3,0*4,1,4,$2,$3,$4,$5,0-$2,0-$3,0-$4,0-$5,$2,$3,0*%
%ADD10RoundRect,0.09475X-0.61863X0.68362X0.61863X0.68362*%
%ADD11RoundRect,0.09495X-0.70833X0.67833X0.70833X0.67833*%
%ADD12RoundRect,0.09131X-0.40514X0.45514X0.40514X0.45514*%
%ADD13RoundRect,0.09495X-0.67833X-0.70833X-0.67833X0.70833*%
%ADD14RoundRect,0.09131X-0.45514X-0.40514X-0.45514X0.40514*%
%ADD15RoundRect,0.08771X-0.40199X0.27695X0.40199X0.27695*%
%ADD16RoundRect,0.08875X-0.30643X0.75642X0.30643X0.75642*%
%ADD17RoundRect,0.09669X-0.95245X1.30245X0.95245X1.30245*%
%ADD18RoundRect,0.0921X-0.27302X0.54302X0.27302X0.54302*%
%ADD19RoundRect,0.08756X-0.27302X0.54302X0.27302X0.54302*%
%ADD20RoundRect,0.09594X0.21859X-1.2906X-1.30637X0.08249*%
%ADD21RoundRect,0.09594X-1.30846X-0.03684X0.26349X1.28218*%
%ADD22RoundRect,0.09594X0.24108X-1.28658X-1.30762X0.05967*%
%ADD23RoundRect,0.09594X-1.30762X-0.05967X0.24108X1.28658*%
%ADD24RoundRect,0.09336X-0.70409X-0.50432X-0.70409X0.50432*%
%ADD25C,1.9016*%
%ADD26RoundRect,0.09645X-0.0668X-1.27468X-1.27468X0.0668*%
%ADD27RoundRect,0.09645X-1.27332X-0.08904X-0.08904X1.27332*%
%ADD28RoundRect,0.09645X-0.08904X-1.27332X-1.27332X0.08904*%
%ADD29RoundRect,0.09164X-0.40518X0.40518X0.40518X0.40518*%
%ADD30O,0.90002X0.38003*%
%ADD31O,0.38003X0.90002*%
%ADD32RoundRect,0.09658X-1.35172X-1.35172X-1.35172X1.35172*%
%ADD33RoundRect,0.08906X-0.55647X0.30647X0.55647X0.30647*%
%ADD34RoundRect,0.09017X-0.68638X-0.2307X0.15769X0.70673*%
%ADD35RoundRect,0.09017X0.13293X-0.71181X-0.67791X0.25451*%
%ADD36RoundRect,0.09017X-0.68225X-0.24264X0.14533X0.70938*%
%ADD37RoundRect,0.09017X0.14533X-0.70938X-0.68225X0.24264*%
%ADD38RoundRect,0.09138X-0.43711X-0.40835X-0.43711X0.40835*%
%ADD39RoundRect,0.09138X-0.40835X0.43711X0.40835X0.43711*%
%ADD40RoundRect,0.08771X-0.28977X0.27695X0.28977X0.27695*%
%ADD41RoundRect,0.08771X0.03003X-0.39971X-0.40066X-0.01192*%
%ADD42RoundRect,0.08771X-0.4X0.02589X0.04396X0.39842*%
%ADD43RoundRect,0.08771X0.037X-0.39912X-0.40039X-0.01891*%
%ADD44RoundRect,0.08771X-0.40039X0.01891X0.037X0.39912*%
%ADD45RoundRect,0.08771X-0.27695X-0.28977X-0.27695X0.28977*%
%ADD46RoundRect,0.09224X-0.91154X-0.62064X-1.06789X0.27517*%
%ADD47RoundRect,0.09249X-0.36722X-0.62703X-0.5579X0.46557*%
%ADD48RoundRect,0.08875X-0.60642X-0.30643X-0.60642X0.30643*%
%ADD49RoundRect,0.09763X-1.20198X-1.65198X-1.20198X1.65198*%
%ADD50RoundRect,0.08756X-0.54302X-0.27302X-0.54302X0.27302*%
%ADD51RoundRect,0.08832X-0.29364X-0.75664X-0.29364X0.75664*%
%ADD52O,1.86159X3.60159*%
%ADD53RoundRect,0.08832X-0.29364X-1.11139X-0.29364X1.11139*%
%ADD54RoundRect,0.09093X-0.75455X0.45455X0.75455X0.45455*%
%ADD55RoundRect,0.09093X-0.45455X-0.75455X-0.45455X0.75455*%
%ADD56RoundRect,0.09224X-0.45468X-0.45468X-0.45468X0.45468*%
%ADD57RoundRect,0.08875X-0.30643X0.58143X0.30643X0.58143*%
%ADD58RoundRect,0.08109X-0.16026X0.58526X0.16026X0.58526*%
%ADD59O,1.1016X1.9016*%
%ADD60O,1.1016X2.2016*%
G75*


G04 Pad Start*
G54D10*
G01X7245226Y4382051D03*
G01X7682208Y4382051D03*
G54D11*
G01X4611720Y5923914D03*
G01X4411721Y5923914D03*
G54D12*
G01X5294686Y5891499D03*
G01X5154681Y5891499D03*
G54D13*
G01X6954121Y5230533D03*
G01X6954121Y5024539D03*
G01X7796722Y5015719D03*
G01X7796722Y5221713D03*
G54D14*
G01X5933393Y6138299D03*
G01X5933393Y5998294D03*
G54D15*
G01X6452510Y5638940D03*
G01X6343494Y5638940D03*
G01X5098378Y4614130D03*
G01X5207395Y4614130D03*
G01X7398641Y4723313D03*
G01X7507658Y4723313D03*
G01X5249604Y8099860D03*
G01X5140587Y8099860D03*
G01X5244545Y8261229D03*
G01X5135528Y8261229D03*
G54D16*
G01X4819913Y7917536D03*
G01X4944907Y7917536D03*
G54D17*
G01X5189915Y7634047D03*
G01X4574930Y7634047D03*
G54D19*
G01X6226668Y5267018D03*
G01X6321664Y5267018D03*
G01X6416660Y5267018D03*
G01X6416660Y5496837D03*
G01X6321664Y5496837D03*
G01X6226668Y5496837D03*
G54D20*
G01X4352333Y4016537D03*
G01X3971040Y4359854D03*
G54D21*
G01X8666897Y4393347D03*
G01X8273855Y4063546D03*
G54D22*
G01X8864105Y8526041D03*
G01X8476878Y8862652D03*
G54D23*
G01X3734531Y8551189D03*
G01X4121757Y8887800D03*
G54D24*
G01X7471658Y6102958D03*
G01X7471658Y5892900D03*
G54D25*
G01X2395154Y2249692D03*
G54D26*
G01X2225195Y2438451D03*
G54D25*
G01X10450929Y2408555D03*
G54D27*
G01X10284289Y2216859D03*
G54D25*
G01X10386494Y10212632D03*
G54D28*
G01X10219855Y10404328D03*
G54D25*
G01X2200472Y10262680D03*
G54D27*
G01X2367111Y10454376D03*
G54D29*
G01X5766884Y4775954D03*
G01X5766884Y4935847D03*
G01X5763204Y5154964D03*
G01X5763204Y5314857D03*
G54D30*
G01X6153370Y6111533D03*
G01X6153370Y6061546D03*
G01X6153370Y6011533D03*
G01X6153370Y5961546D03*
G01X6153370Y5911534D03*
G01X6153370Y5861546D03*
G54D31*
G01X6228376Y5786540D03*
G01X6278363Y5786540D03*
G01X6328376Y5786540D03*
G01X6378363Y5786540D03*
G01X6428376Y5786540D03*
G01X6478363Y5786540D03*
G54D30*
G01X6553369Y5861546D03*
G01X6553369Y5911534D03*
G01X6553369Y5961546D03*
G01X6553369Y6011533D03*
G01X6553369Y6061546D03*
G01X6553369Y6110746D03*
G54D31*
G01X6478363Y6186539D03*
G01X6428376Y6186539D03*
G01X6378363Y6186539D03*
G01X6328376Y6186539D03*
G01X6278363Y6186539D03*
G01X6228376Y6186539D03*
G54D32*
G01X6353370Y5985295D03*
G54D33*
G01X5065346Y5674043D03*
G01X5065346Y5579047D03*
G01X5065346Y5484051D03*
G01X4795344Y5484051D03*
G01X4795344Y5579047D03*
G01X4795344Y5674043D03*
G54D34*
G01X4524172Y4479037D03*
G01X4382980Y4606166D03*
G01X4319750Y4393973D03*
G54D35*
G01X8247520Y4632327D03*
G01X8101978Y4510202D03*
G01X8303306Y4418056D03*
G54D36*
G01X8276412Y8416677D03*
G01X8419801Y8292031D03*
G01X8479318Y8505295D03*
G54D37*
G01X4164967Y8570586D03*
G01X4021578Y8445940D03*
G01X4224484Y8357322D03*
G54D38*
G01X5572296Y4775777D03*
G01X5572296Y4926450D03*
G54D39*
G01X4540066Y5494669D03*
G01X4389393Y5494669D03*
G54D38*
G01X5751125Y5557787D03*
G01X5751125Y5708460D03*
G01X5564929Y5163173D03*
G01X5564929Y5313846D03*
G54D39*
G01X4546128Y5700878D03*
G01X4395455Y5700878D03*
G54D40*
G01X6034577Y5270993D03*
G01X5948014Y5270993D03*
G01X6586009Y5273965D03*
G01X6672572Y5273965D03*
G54D41*
G01X4554447Y4686236D03*
G01X4618776Y4628314D03*
G54D42*
G01X8037451Y4671777D03*
G01X8103762Y4727419D03*
G54D43*
G01X8256984Y8206260D03*
G01X8191654Y8263050D03*
G54D44*
G01X4303279Y8194142D03*
G01X4368609Y8250933D03*
G54D45*
G01X5940598Y5738847D03*
G01X5940598Y5825410D03*
G01X6698422Y6069292D03*
G01X6698422Y6155855D03*
G54D40*
G01X7427563Y5678611D03*
G01X7514126Y5678611D03*
G54D10*
G01X4921299Y4365344D03*
G01X5358280Y4365344D03*
G54D46*
G01X4612778Y7084206D03*
G01X4664356Y6788674D03*
G01X4690144Y6640921D03*
G54D47*
G01X4646709Y6475981D03*
G01X4423090Y6436953D03*
G01X4292425Y7185630D03*
G01X4516044Y7224657D03*
G54D48*
G01X4773766Y5259480D03*
G01X4773766Y5132480D03*
G01X4773766Y5005480D03*
G01X4773766Y4878480D03*
G01X5355426Y4878480D03*
G01X5355426Y5005480D03*
G01X5355426Y5132480D03*
G01X5355426Y5259480D03*
G54D49*
G01X5064596Y5068980D03*
G54D50*
G01X5269683Y5669526D03*
G01X5269683Y5574530D03*
G01X5269683Y5479534D03*
G01X5499503Y5479534D03*
G01X5499503Y5574530D03*
G01X5499503Y5669526D03*
G54D51*
G01X7526731Y4956431D03*
G01X7226732Y4956431D03*
G54D52*
G01X7376744Y5054678D03*
G54D51*
G01X7226732Y5295927D03*
G54D53*
G01X7376719Y5260444D03*
G54D51*
G01X7526731Y5295927D03*
G54D54*
G01X5446845Y8347678D03*
G01X5446845Y8220678D03*
G01X5446845Y8093678D03*
G01X5446845Y7966678D03*
G01X5446845Y7839678D03*
G01X5446845Y7712678D03*
G01X5446845Y7585678D03*
G01X5446845Y7458678D03*
G01X5446845Y7331678D03*
G01X5446845Y7204678D03*
G01X5446845Y7077678D03*
G01X5446845Y6950678D03*
G01X5446845Y6823678D03*
G01X5446845Y6696678D03*
G54D55*
G01X5623349Y6568687D03*
G01X5750349Y6568687D03*
G01X5877349Y6568687D03*
G01X6004349Y6568687D03*
G01X6131349Y6568687D03*
G01X6258349Y6568687D03*
G01X6385349Y6568687D03*
G01X6512349Y6568687D03*
G01X6639349Y6568687D03*
G01X6766349Y6568687D03*
G01X6893349Y6568687D03*
G01X7020349Y6571685D03*
G54D54*
G01X7196854Y6696678D03*
G01X7196854Y6823678D03*
G01X7196854Y6950678D03*
G01X7196854Y7077678D03*
G01X7196854Y7204678D03*
G01X7196854Y7331678D03*
G01X7196854Y7458678D03*
G01X7196854Y7585678D03*
G01X7196854Y7712678D03*
G01X7196854Y7839678D03*
G01X7196854Y7966678D03*
G01X7196854Y8093678D03*
G01X7196854Y8220678D03*
G01X7196854Y8347678D03*
G54D56*
G01X6311842Y7435666D03*
G01X6171837Y7435666D03*
G01X6031832Y7435666D03*
G01X6031832Y7715675D03*
G01X6171837Y7715675D03*
G01X6311842Y7715675D03*
G01X6311842Y7575670D03*
G01X6031832Y7575670D03*
G01X6171837Y7575670D03*
G54D57*
G01X6050668Y4891808D03*
G01X6130678Y4891808D03*
G01X6690672Y4891808D03*
G01X6610687Y4891808D03*
G54D58*
G01X6545688Y4891808D03*
G01X6495676Y4891808D03*
G01X6445689Y4891808D03*
G01X6395676Y4891808D03*
G01X6345689Y4891808D03*
G01X6295676Y4891808D03*
G01X6245689Y4891808D03*
G01X6195676Y4891808D03*
G54D59*
G01X6802686Y4419317D03*
G01X5938679Y4419317D03*
G54D60*
G01X6802686Y4834302D03*
G01X5938679Y4834302D03*
G04 Pad End*

M02*

